<svg width="203" height="62" fill="none" xmlns="http://www.w3.org/2000/svg"><g clip-path="url(#clip0_114_4040)"><path d="M73 14.62a37.641 37.641 0 00-1.804-6.54 37.366 37.366 0 00-2.857-6.188A3.841 3.841 0 0066.6.342a3.898 3.898 0 00-2.327-.27 51.77 51.77 0 00-12.891 4.606 3.83 3.83 0 00-1.614 1.672 3.77 3.77 0 00-.34 2.287c.398 2.238 1 4.436 1.8 6.567a38.024 38.024 0 002.873 6.177 3.838 3.838 0 001.744 1.544c.73.323 1.543.415 2.327.261a46.125 46.125 0 006.58-1.892 45.419 45.419 0 006.27-2.714 3.84 3.84 0 001.627-1.668A3.78 3.78 0 0073 14.62z" fill="#F72A16"/><path d="M97.66 3.963A52.002 52.002 0 0084.49.329a3.903 3.903 0 00-2.299.435 3.84 3.84 0 00-1.623 1.666 37.015 37.015 0 00-2.39 6.377 36.14 36.14 0 00-1.298 6.68 3.77 3.77 0 00.51 2.263 3.842 3.842 0 001.742 1.553 46.87 46.87 0 006.46 2.244 46.081 46.081 0 006.707 1.386 3.87 3.87 0 002.3-.42 3.805 3.805 0 001.625-1.662 37.504 37.504 0 002.39-6.374 37.395 37.395 0 001.298-6.68 3.79 3.79 0 00-.507-2.272 3.856 3.856 0 00-1.745-1.562z" fill="#FABC22"/><path d="M127.15 14.62a36.933 36.933 0 00-1.804-6.54 37.278 37.278 0 00-2.876-6.188 3.814 3.814 0 00-1.739-1.557 3.87 3.87 0 00-2.332-.263 52.277 52.277 0 00-12.857 4.606 3.842 3.842 0 00-1.621 1.67 3.772 3.772 0 00-.347 2.289 37.129 37.129 0 001.803 6.567 37.148 37.148 0 002.873 6.177 3.812 3.812 0 001.742 1.549 3.87 3.87 0 002.329.256 46.609 46.609 0 006.58-1.892 45.462 45.462 0 006.288-2.714 3.827 3.827 0 001.618-1.671 3.77 3.77 0 00.343-2.288z" fill="#06C92E"/><path d="M151.829 3.963a48.677 48.677 0 00-6.464-2.271 46.59 46.59 0 00-6.726-1.363c-.79-.09-1.59.064-2.289.44a3.841 3.841 0 00-1.617 1.66 37.327 37.327 0 00-2.397 6.378 37.07 37.07 0 00-1.295 6.68 3.774 3.774 0 00.504 2.26 3.836 3.836 0 001.733 1.556 45.723 45.723 0 006.464 2.244 46.113 46.113 0 006.71 1.39 3.893 3.893 0 002.283-.432 3.826 3.826 0 001.616-1.65 36.44 36.44 0 002.394-6.374 37.339 37.339 0 001.294-6.68 3.77 3.77 0 00-.484-2.268 3.833 3.833 0 00-1.726-1.57z" fill="#00C2FC"/><path d="M5.06 57.068a1.322 1.322 0 01-.383.954 1.353 1.353 0 01-.955.405H1.371a1.365 1.365 0 01-.962-.378 1.336 1.336 0 01-.41-.94v-5.896a1.331 1.331 0 01.382-.95c.249-.255.59-.402.948-.409h.766a6.49 6.49 0 00.827-1.465c.254-.614.46-1.247.617-1.892.176-.695.314-1.398.413-2.108.111-.723.188-1.45.238-2.18l.145-2.108c.018-.366.18-.71.45-.96s.628-.386.998-.38h10.164c.363-.002.711.138.97.389.258.25.405.593.409.95v9.754h1.337a1.33 1.33 0 01.972.379 1.278 1.278 0 01.383.969v5.863a1.261 1.261 0 01-.383.965 1.318 1.318 0 01-.972.378h-2.298a1.37 1.37 0 01-.965-.379 1.342 1.342 0 01-.41-.942V54.84H5.032l.027 2.23zm6.835-13.3h-2.42l-.073.644a18.305 18.305 0 01-.685 3.36 8.624 8.624 0 01-.939 2.078h4.117v-6.082zm15.197 4.83c.114.358.298.691.542.98.245.287.545.524.883.696.732.373 1.547.56 2.37.545.534.003 1.066-.033 1.594-.11a6.01 6.01 0 001.336-.37c.257-.092.528-.14.8-.14.263-.011.523.055.747.19.224.134.403.332.514.567l.551 1.135c.1.2.15.42.146.643a1.297 1.297 0 01-.624 1.189 9.833 9.833 0 01-2.873 1.086c-.917.173-1.85.258-2.784.254a10.265 10.265 0 01-3.654-.613 7.586 7.586 0 01-2.758-1.704 7.474 7.474 0 01-1.78-2.69 9.042 9.042 0 01-.601-3.46 8.557 8.557 0 01.632-3.27 8.41 8.41 0 011.773-2.699 8.187 8.187 0 012.753-1.824 9.698 9.698 0 013.662-.681 8.459 8.459 0 012.998.556c.936.336 1.796.85 2.532 1.514a7.67 7.67 0 011.72 2.377c.444.978.666 2.04.65 3.111a9.271 9.271 0 01-.11 1.631 1.299 1.299 0 01-.452.757 1.155 1.155 0 01-.766.337l-9.8-.007zm5.676-3.558a2.172 2.172 0 00-.666-1.514 2.593 2.593 0 00-1.973-.697 3.32 3.32 0 00-2.095.572 3.61 3.61 0 00-1.103 1.635l5.837.004zm12.952 9.81a1.375 1.375 0 01-.967-.38 1.344 1.344 0 01-.411-.944v-9.398h-3.31a1.324 1.324 0 01-.976-.378 1.294 1.294 0 01-.383-.966v-2.65a1.298 1.298 0 01.832-1.252c.168-.065.347-.096.528-.09h12.064c.358-.005.703.131.96.378s.405.584.41.938v2.688a1.321 1.321 0 01-.382.95 1.352 1.352 0 01-.95.404h-3.347v9.368a1.334 1.334 0 01-.394.955 1.365 1.365 0 01-.962.4H45.72v-.023zm21.922-10.862a5.636 5.636 0 00-2.5-.644c-.432 0-.86.072-1.268.212-.67.244-1.244.69-1.643 1.274a3.336 3.336 0 00-.582 1.981c-.011.508.102 1.01.329 1.465a3.54 3.54 0 001.972 1.771c.412.151.848.228 1.287.228a4.735 4.735 0 002.532-.784 1.764 1.764 0 011.015-.322 1.334 1.334 0 011.099.545l1.103 1.465c.187.247.288.547.287.855a1.334 1.334 0 01-.578 1.136 8.776 8.776 0 01-3.064 1.684c-.897.25-1.825.378-2.758.379a10.838 10.838 0 01-3.741-.61 8.022 8.022 0 01-2.857-1.718 7.322 7.322 0 01-1.808-2.68 9.182 9.182 0 01-.632-3.467 8.755 8.755 0 01.609-3.266 8.234 8.234 0 011.754-2.699 8.243 8.243 0 012.758-1.824 9.02 9.02 0 013.504-.659c.99-.008 1.977.09 2.945.296.985.239 1.919.65 2.757 1.215a1.456 1.456 0 01.8 1.249c-.002.244-.08.481-.221.68l-1.038 1.708c-.119.22-.297.402-.513.528a1.383 1.383 0 01-.717.187 1.52 1.52 0 01-.83-.185zM79.79 47.17v6.325a1.323 1.323 0 01-.382.95 1.352 1.352 0 01-.95.405h-2.72a1.365 1.365 0 01-.961-.378 1.335 1.335 0 01-.41-.939V40.12a1.32 1.32 0 01.383-.95 1.354 1.354 0 01.95-.405h2.72c.358-.004.703.132.96.379s.405.584.41.938v5.677l4.213-6.112c.199-.265.452-.484.743-.644.291-.163.62-.249.954-.25h2.524a1.326 1.326 0 011.011.424 1.347 1.347 0 01.111 1.794l-3.86 5 1.769 2.4a3.853 3.853 0 001.953 1.536c.42.05.81.243 1.103.545.208.358.301.77.268 1.181v2.18a1.129 1.129 0 01-.325.784 1.29 1.29 0 01-.766.431c-.196 0-.383.042-.552.053-.168.012-.348 0-.551 0a6.806 6.806 0 01-1.356-.14 5.36 5.36 0 01-1.413-.518 6.504 6.504 0 01-1.352-1.034 11.307 11.307 0 01-1.429-1.752l-3.044-4.466zm26.465 7.68a1.366 1.366 0 01-.962-.378 1.335 1.335 0 01-.409-.939v-7.078l-5.174 7.487a2.48 2.48 0 01-.667.64 1.545 1.545 0 01-.888.253h-3.11a1.355 1.355 0 01-.98-.378 1.309 1.309 0 01-.384-.965V40.12a1.3 1.3 0 01.383-.966 1.357 1.357 0 01.98-.378h2.682c.358-.004.703.132.96.379s.405.584.41.938v7.085l5.179-7.509c.178-.25.398-.467.651-.643a1.43 1.43 0 01.865-.25h3.145c.358-.004.703.132.96.379s.405.584.411.938v13.41a1.325 1.325 0 01-.383.95 1.343 1.343 0 01-.95.405h-2.719v-.008zm20.631 0a1.37 1.37 0 01-.962-.378 1.336 1.336 0 01-.409-.973v-7.047l-5.174 7.486a2.549 2.549 0 01-.67.64 1.55 1.55 0 01-.885.253h-3.125a1.374 1.374 0 01-.964-.382 1.341 1.341 0 01-.411-.942V40.12a1.336 1.336 0 01.387-.951c.251-.254.594-.4.953-.404h2.716c.358-.004.703.132.96.379.257.246.405.584.411.938v7.085l5.17-7.51c.181-.246.401-.463.651-.643.258-.17.563-.257.873-.25h3.141a1.37 1.37 0 01.963.38c.258.248.406.587.412.942v13.402a1.339 1.339 0 01-.823 1.247c-.164.07-.34.106-.518.108l-2.696.007zm-.793-23.129a2.153 2.153 0 011.655.613c.381.433.579.994.551 1.567a2.783 2.783 0 01-.386 1.361c-.244.414-.591.76-1.008 1.005-.927.643-2.307.965-4.14.965-2.022 0-3.477-.322-4.354-.965a2.88 2.88 0 01-.962-1.02 2.842 2.842 0 01-.363-1.346 2.254 2.254 0 01.551-1.567 2.554 2.554 0 013.003-.23c.291.263.504.601.616.976.103.303.276.578.506.802.283.23.646.341 1.011.31a1.206 1.206 0 00.904-.31c.207-.236.368-.508.475-.802.107-.375.318-.713.609-.977a2.052 2.052 0 011.336-.378l-.004-.004zm21.485 21.774c.019.347-.102.687-.337.946a1.332 1.332 0 01-1.022.432h-2.681a1.366 1.366 0 01-.962-.378 1.335 1.335 0 01-.409-.94V40.12a1.325 1.325 0 01.382-.95 1.356 1.356 0 01.951-.405h2.585a2.187 2.187 0 011.654.82l4.156 4.649 3.86-4.614c.201-.25.444-.463.72-.628.276-.154.588-.233.904-.227h2.42a1.342 1.342 0 011.281.819c.069.166.103.344.098.524V53.48a1.275 1.275 0 01-.402.965 1.327 1.327 0 01-.977.379h-2.68a1.373 1.373 0 01-.965-.38 1.325 1.325 0 01-.41-.942v-6.536L152.68 50.4a1.211 1.211 0 01-.942.432 1.286 1.286 0 01-.939-.379l-3.221-3.486v6.53zm30.16 1.355a1.361 1.361 0 01-1.261-.807 1.337 1.337 0 01-.11-.51v-7.078l-5.174 7.483c-.183.251-.41.468-.67.64-.262.172-.57.26-.885.253h-3.11a1.366 1.366 0 01-.966-.375 1.325 1.325 0 01-.412-.942V40.12a1.336 1.336 0 01.387-.95c.251-.254.594-.4.953-.404h2.712c.358-.005.703.132.96.379.257.246.405.584.411.938v7.085l5.178-7.51c.184-.249.409-.466.666-.643.254-.172.558-.26.866-.25h3.148a1.37 1.37 0 01.963.38c.258.248.406.586.412.941v13.403a1.335 1.335 0 01-.823 1.248c-.163.069-.34.105-.518.107h-2.73l.003.007zm13.458 5.795a1.324 1.324 0 01-.382.95 1.355 1.355 0 01-.95.405h-2.72a1.373 1.373 0 01-.963-.382 1.345 1.345 0 01-.408-.943V40.12a1.325 1.325 0 01.383-.95 1.345 1.345 0 01.95-.405h2.895a1.165 1.165 0 01.827.3 1.13 1.13 0 01.368.79v.094a6.33 6.33 0 011.85-1.135 6.966 6.966 0 012.681-.485 7.224 7.224 0 012.984.61 6.459 6.459 0 012.297 1.71 8.315 8.315 0 011.467 2.612 9.994 9.994 0 01.525 3.27 9.264 9.264 0 01-.659 3.437 8.373 8.373 0 01-1.773 2.767 8.117 8.117 0 01-2.757 1.858 9.107 9.107 0 01-3.601.681c-.553 0-1.107-.041-1.654-.125a5.406 5.406 0 01-1.394-.378l.034 5.874zm0-10.976c.355.22.743.382 1.149.48.457.099.924.14 1.391.125.49.04.982-.035 1.438-.217a3.145 3.145 0 001.185-.835 3.918 3.918 0 00.85-2.555 3.516 3.516 0 00-.816-2.358 2.911 2.911 0 00-1.07-.753 2.94 2.94 0 00-1.296-.212 3.82 3.82 0 00-1.571.407 3.773 3.773 0 00-1.252 1.02l-.008 4.898z" fill="#fff"/></g><defs><clipPath id="clip0_114_4040"><path fill="#fff" d="M0 0h203v62H0z"/></clipPath></defs></svg>