<svg width="185" height="34" fill="none" xmlns="http://www.w3.org/2000/svg"><path d="M66.014 33.62c-6.675 0-12.87-2.05-17.007-5.854-3.124-2.874-4.626-6.778-4.626-10.795 0-3.97 1.566-7.9 4.626-10.758C52.848 2.626 59.629.379 66.014.379c7.066 0 12.72 1.824 17.044 5.843 3.075 2.86 4.563 6.774 4.563 10.749 0 3.853-1.578 7.957-4.563 10.795-4.026 3.828-10.352 5.855-17.044 5.855v-4.385c3.543 0 6.83-1.253 9.124-3.593 2.28-2.324 3.341-5.18 3.341-8.672 0-3.345-1.145-6.472-3.34-8.69-2.265-2.286-5.63-3.572-9.125-3.572-3.506 0-6.873 1.273-9.139 3.572-2.184 2.217-3.332 5.353-3.332 8.69 0 3.326 1.162 6.46 3.332 8.672 2.268 2.312 5.623 3.594 9.139 3.594v4.384zM17.228.396c-3.57 0-7.627.684-11.073 2.262C2.974 4.11.37 6.463.37 10.363c-.001 3.512 2.177 5.568 2.118 5.511.926.874 2.418 2.363 6.317 3.236 1.743.391 5.469.99 9.179 1.388 3.683.398 7.307.777 8.784 1.16 1.173.305 3.143.722 3.143 2.987 0 2.256-2.076 2.945-2.437 3.094-.36.146-2.85 1.317-7.326 1.317-3.305 0-7.278-1.019-8.726-1.55-1.67-.608-3.421-1.414-5.055-3.458-.406-.507-1.047-1.901-1.047-3.282H1.27v11.632h4.502v-1.571c0-.18.218-.915.974-.565.94.438 3.702 1.564 6.588 2.182 2.367.507 3.894.87 6.836.87 4.801 0 7.38-.801 9.164-1.323 1.68-.492 3.755-1.378 5.441-2.755.913-.745 2.916-2.655 2.916-6.121 0-3.328-1.743-5.393-2.356-6.021-.835-.856-1.855-1.52-2.918-2.031-.926-.447-2.388-.983-3.584-1.283-2.32-.584-7.569-1.304-10.078-1.574-2.632-.281-7.198-.669-9.02-1.247-.554-.175-1.68-.726-1.68-2.066 0-.954.515-1.762 1.533-2.415 1.617-1.038 4.883-1.684 8.288-1.684 4.024-.015 7.433.928 9.601 1.921.738.338 1.6.822 2.285 1.396.774.646 1.86 1.988 2.252 3.86h3.637V1.847H31.59v1.177c0 .38-.383.874-1.107.466C28.666 2.512 23.527.404 17.227.395h.001zm88.998 1.84l19.81 18.32-.203-12.335c-.02-1.617-.311-2.292-2.018-2.292h-3.725v-3.69h16.939v3.69h-3.634c-1.741 0-1.851.57-1.872 2.292l.307 23.569h-5.801l-22.818-20.87.005 14.81c.02 1.61.094 2.368 1.712 2.368h4.069v3.688H92.361V28.1h3.89c1.452 0 1.394-1.419 1.394-2.452V8.361c0-1.116-.153-2.43-2.433-2.43h-3.156V2.235h14.17zm50.158 25.857c.159 0 .866-.02 1.003-.063.391-.125.656-.411.779-.71.052-.124.078-.678.078-.798l.003-5.831c0-.14-.01-.201-.242-.514-.256-.341-10.377-12.094-10.84-12.612-.576-.642-1.586-1.636-3.121-1.636h-3.519V2.237h19.864v3.687h-2.395c-.554 0-.922.538-.449 1.136 0 0 6.684 8.192 6.747 8.278.062.087.115.108.201.029.083-.082 6.85-8.232 6.904-8.296a.711.711 0 00-.59-1.143h-2.457V2.237h16.28v3.69h-3.637c-1.319 0-1.856.251-2.849 1.401-.454.526-10.683 12.49-10.962 12.815-.145.17-.133.406-.133.546v5.83c0 .119.026.673.078.797.123.3.39.586.781.71.136.042.834.064.992.064h3.721v3.69h-19.762v-3.69l3.526.002h-.001z" fill="#fff"/></svg>