<svg width="183" height="28" fill="none" xmlns="http://www.w3.org/2000/svg"><g clip-path="url(#clip0_114_2709)"><path d="M173.746 12.298v3.812h2.681v3.781c.009.338-.01.703-.068.994-.107.706-.777 1.907-2.681 1.907-1.892 0-2.55-1.201-2.665-1.907a6.484 6.484 0 01-.068-.994V7.947c0-.423.028-.885.118-1.235.13-.637.695-1.892 2.601-1.892 2.001 0 2.501 1.323 2.615 1.892.076.376.08 1.008.08 1.008v1.45h6.588v-.857s.03-.895-.05-1.73c-.495-4.902-4.538-6.453-9.175-6.453-4.645 0-8.606 1.565-9.183 6.453-.052.447-.132 1.251-.132 1.73V19.3c0 .478.015.849.104 1.723.43 4.768 4.566 6.458 9.193 6.458 4.655 0 8.762-1.69 9.2-6.458.077-.874.085-1.245.096-1.723v-7.003h-9.254zM128.317.833H121.7v19.334c.011.337 0 .715-.058.993-.138.649-.689 1.898-2.514 1.898-1.802 0-2.367-1.25-2.495-1.898-.066-.278-.074-.656-.066-.993V.833h-6.614v18.734c-.009.483.029 1.47.058 1.728.456 4.881 4.308 6.466 9.117 6.466 4.818 0 8.668-1.585 9.132-6.466.037-.259.085-1.245.057-1.728V.833zm-60.793 0l-3.3 20.429-3.3-20.43H50.253l-.566 26.135h6.538l.178-24.193L60.9 26.967h6.634l4.503-24.193.178 24.193h6.555L78.184.833h-10.66zm-39.516 0l-4.846 26.134h7.067l3.652-24.193 3.564 24.193h7.018L39.637.833H28.008zM151.44 21.874L145.279.833h-9.708v25.862h6.422L141.62 4.98l6.616 21.715h9.311V.833h-6.464l.357 21.041zM92.035 7.634a3.5 3.5 0 01-.022-1.35c.187-.837.75-1.75 2.37-1.75 1.511 0 2.397.941 2.397 2.353v1.598h6.45V6.664c0-5.631-5.053-6.516-8.712-6.516-4.609 0-8.372 1.518-9.06 5.755-.181 1.153-.226 2.176.063 3.482 1.12 5.284 10.328 6.816 11.664 10.157.236.633.168 1.44.048 1.916-.2.87-.786 1.744-2.522 1.744-1.627 0-2.607-.935-2.607-2.344l-.002-2.509h-6.943v1.994c0 5.777 4.53 7.52 9.409 7.52 4.672 0 8.531-1.595 9.15-5.918.296-2.234.073-3.69-.046-4.237-1.081-5.42-10.894-7.05-11.637-10.074zM6.954 7.57c-.127-.527-.097-1.083-.027-1.373.179-.832.745-1.76 2.395-1.76 1.53 0 2.43.95 2.43 2.373v1.617h6.526V6.591C18.278.906 13.148 0 9.448 0 4.801 0 1.004 1.541.31 5.809.12 6.98.087 8.01.362 9.33c1.133 5.344 10.43 6.889 11.783 10.27.253.628.177 1.435.051 1.93-.214.878-.805 1.765-2.555 1.765-1.634 0-2.612-.951-2.612-2.38L7.02 18.4H0v2C0 26.243 4.594 28 9.51 28c4.727 0 8.609-1.61 9.242-5.983.315-2.254.079-3.721-.027-4.278C17.62 12.254 7.698 10.63 6.954 7.57z" fill="#fff"/></g><defs><clipPath id="clip0_114_2709"><path fill="#fff" d="M0 0h183v28H0z"/></clipPath></defs></svg>