<svg width="178" height="52" fill="none" xmlns="http://www.w3.org/2000/svg"><g clip-path="url(#clip0_114_4060)" fill="#fff"><path d="M66.431 5.205l6.512 43.342 5.858-.02-6.487-43.309-5.883-.013zm-.273 0h-9.97v43.2h9.97v-43.2zm-29.506 0H0v43.2h32.996l3.656-43.2zm5.179 43.2h11.132l.045-43.2H45.48l-3.65 43.2zm58.295-23.204h-3.453v-8.188a8.081 8.081 0 01-4.684 1.372c-2.976 0-5.972-1.623-5.972-6.377V5.27h3.446v5.752c0 3.189 1.517 4.097 3.453 4.097a6.612 6.612 0 003.757-1.288V5.27h3.453V25.2zm3.744 0V5.27h3.453v14.178L117.617 5.27h3.028V25.2h-3.446V11.048l-10.295 14.153h-3.034zM123.653 5.27h16.184v3.272h-6.366v16.66h-3.452V8.541h-6.366V5.27zm21.528-.058h3.034l8.302 19.97h-3.675l-2.05-5.096h-8.384l-2.05 5.096h-3.478l8.301-19.97zm-1.454 11.595h5.751l-2.863-7.086-2.888 7.086zm14.89 8.394V5.27h3.446v14.178L172.357 5.27h3.034V25.2h-3.452V11.048l-10.295 14.153h-3.027zm-72.746 3.311h11.082v3.273h-7.636v16.653h-3.446V28.512zM172.39 0h-10.059v3.292h7.723L172.39 0zm-64.274 28.197c5.833 0 10.237 4.071 10.237 10.307 0 5.978-4.404 10.307-10.237 10.307-5.832 0-10.212-4.065-10.212-10.307 0-5.798 4.183-10.307 10.212-10.307zm0 17.277c4.12 0 6.588-3.072 6.588-7.002 0-4.13-2.888-7.003-6.588-7.003s-6.562 2.873-6.562 7.003c0 3.994 2.888 7.002 6.562 7.002zm13.398 2.964V28.512c1.092 0 4.202-.064 5.579-.064 5.775 0 7.616 3.137 7.616 6.442 0 3.389-2.494 6.442-7.184 6.442-.591 0-1.708 0-2.539-.084v7.203l-3.472-.013zm3.446-16.653v6.12a24.46 24.46 0 002.443.142c2.044 0 3.644-.999 3.644-3.221 0-2.075-1.269-3.099-3.618-3.099-.697 0-1.542 0-2.469.058zm22.316-3.588c5.832 0 10.237 4.071 10.237 10.307 0 5.978-4.405 10.307-10.237 10.307-5.833 0-10.213-4.065-10.213-10.307 0-5.798 4.183-10.307 10.213-10.307zm0 17.277c4.119 0 6.587-3.072 6.587-7.002 0-4.13-2.888-7.003-6.587-7.003-3.7 0-6.569 2.873-6.569 7.003 0 3.994 2.894 7.002 6.569 7.002zm10.536-.309h2.671c2.254-9.92 3.612-16.659 3.612-16.659h11.221v16.66H178V52h-3.224v-3.562h-13.735V52h-3.229v-6.835zm6.11 0h7.973v-13.38h-5.192s-1.225 6.442-2.781 13.38z"/></g><defs><clipPath id="clip0_114_4060"><path fill="#fff" d="M0 0h178v52H0z"/></clipPath></defs></svg>