<svg width="228" height="22" fill="none" xmlns="http://www.w3.org/2000/svg"><g clip-path="url(#clip0_114_4029)"><path fill-rule="evenodd" clip-rule="evenodd" d="M210.871.046l17.13 21.811h-4.278l-6.431-8.186-6.432 8.186h-4.276l8.569-10.912-8.56-10.899h4.278z" fill="#fff"/><path fill-rule="evenodd" clip-rule="evenodd" d="M218.455 6.803l5.26-6.757h4.279l-7.398 9.479-2.141-2.722" fill="#86C22B"/><path fill-rule="evenodd" clip-rule="evenodd" d="M189.514 11.01c0 4.167 3.319 7.546 7.409 7.546 4.094 0 7.412-3.379 7.412-7.546 0-4.17-3.318-7.545-7.412-7.545-4.09 0-7.409 3.376-7.409 7.545zm-3.287 0c0-6.017 4.789-10.894 10.696-10.894 5.909 0 10.7 4.878 10.7 10.894s-4.791 10.895-10.7 10.895c-5.907 0-10.696-4.879-10.696-10.895zm-20.462 0c0 4.167 3.315 7.546 7.409 7.546 4.093 0 7.408-3.379 7.408-7.546 0-4.17-3.315-7.545-7.408-7.545-4.094 0-7.409 3.376-7.409 7.545zm-3.29 0c0-6.018 4.791-10.894 10.699-10.894 5.909 0 10.699 4.878 10.699 10.894s-4.79 10.895-10.7 10.895c-5.907-.001-10.698-4.879-10.698-10.895z" fill="#fff"/><path d="M140.062.001h10.573s.414-.004 1.043.083c3.161.445 5.783 2.412 5.783 6.083 0 1.4-.405 2.61-1.091 3.581 2.747.668 4.891 2.594 4.891 5.91 0 3.798-2.996 6.218-6.412 6.166h-14.787V.002zm2.763 12.33v6.656h12.032l.573-.055c1.775-.27 3.045-1.197 3.045-3.274 0-2.36-2.084-3.316-4.034-3.326h-11.616zm0-9.491v6.653l8.233.002.575-.055c1.772-.269 3.042-1.196 3.042-3.273 0-2.36-2.082-3.318-4.032-3.327h-7.818z" fill="#fff"/><path fill-rule="evenodd" clip-rule="evenodd" d="M122.424 20.106l-.029-.03-8.91-9.398 7.745-8.457.005-.005a1.08 1.08 0 00.302-.738c0-.645-.598-1.167-1.336-1.167h-4.168l-6.083 6.64-6.297-6.64H99.01c-.739 0-1.336.522-1.336 1.167 0 .268.103.514.28.712l8.321 8.775-8.356 9.125v.002c-.192.2-.304.46-.304.74 0 .645.598 1.168 1.335 1.168h4.169l6.538-7.142.151-.166 6.527 6.88.002.005a1.42 1.42 0 001.029.423h4.013c.739 0 1.336-.522 1.336-1.168 0-.274-.109-.527-.291-.726zM92.602.31h-4.904l-7.082 7.47L73.533.31h-4.902c-.74 0-1.337.523-1.337 1.168 0 .28.113.536.3.738l.013.01 10.069 10.256v8.35c0 .645.6 1.168 1.335 1.168h3.208c.739 0 1.336-.522 1.336-1.168v-8.35l10.07-10.255.012-.011c.187-.202.301-.458.301-.738 0-.645-.597-1.167-1.336-1.168zM24.94 16.495c0 .645-.596 1.166-1.335 1.166h-11.35V4.66H24.94v11.835zM26.949.31H9.715c-1.843 0-3.337 1.304-3.337 2.915v15.86c0 1.61 1.494 2.915 3.337 2.915H26.95c1.84 0 3.335-1.305 3.335-2.915V3.225c0-1.61-1.495-2.914-3.336-2.915z" fill="#fff"/><path fill-rule="evenodd" clip-rule="evenodd" d="M1.984 4.768h-.722a.181.181 0 00-.181.184v.734c0 .049.019.096.053.13a.18.18 0 00.128.054h.722a.183.183 0 00.179-.184v-.734a.182.182 0 00-.179-.183zm0-1.653h-.632a.268.268 0 01-.191-.08.278.278 0 01-.08-.194v-.644a.186.186 0 00-.053-.13.18.18 0 00-.127-.054H.18a.18.18 0 00-.127.055.186.186 0 00-.053.13v.733c0 .102.081.184.18.184h.631a.265.265 0 01.191.08.274.274 0 01.079.196v.642c0 .101.08.184.18.184h.723a.183.183 0 00.179-.183v-.735a.186.186 0 00-.052-.13.18.18 0 00-.127-.054zm0 4.406h-.632a.27.27 0 01-.192-.08.28.28 0 01-.08-.197v-.641a.182.182 0 00-.18-.184H.18a.179.179 0 00-.127.054.185.185 0 00-.053.13v.734c0 .101.081.184.18.184h.631a.265.265 0 01.19.08.274.274 0 01.08.195v.643a.185.185 0 00.053.13.179.179 0 00.128.053h.722c.097 0 .179-.08.179-.183v-.735a.186.186 0 00-.053-.129.179.179 0 00-.126-.054zm.672 0h1.082V6.42H2.656v1.102z" fill="#8CD024"/><path fill-rule="evenodd" clip-rule="evenodd" d="M2.656 14.998c3.196.027 6.233.88 9.613 2.664V4.66C8.89 2.875 5.852 2.023 2.656 1.997v1.118h.902c.099 0 .18.083.18.185v.733a.183.183 0 01-.18.184l-.902-.001v1.101h.902c.099 0 .18.083.18.185v.917h.9c.1 0 .179.082.179.184v.734l-.008.057a.182.182 0 01-.065.092.176.176 0 01-.106.035h-.9v.918a.182.182 0 01-.18.183h-.902v6.376z" fill="#8CD024"/><path fill-rule="evenodd" clip-rule="evenodd" d="M41.24.31h-2.672c-.736 0-1.336.523-1.336 1.168v19.354c0 .645.6 1.168 1.336 1.168h2.672c.739 0 1.337-.523 1.337-1.168V1.478c0-.645-.6-1.167-1.337-1.168" fill="#fff"/><path fill-rule="evenodd" clip-rule="evenodd" d="M44.708 10.818l-.002-.001.002.001z" fill="#7B7979"/><path fill-rule="evenodd" clip-rule="evenodd" d="M61.951 1.48v-.007C61.948.83 61.351.31 60.615.31h-2.672c-.74 0-1.337.523-1.337 1.168v11.8l-11.253-9.59-.017-.014a.722.722 0 00-.465-.164c-.371 0-.673.262-.673.587v5.896c0 .323.15.614.391.824l.002.002 12.253 10.468.08.07A2.877 2.877 0 0058.76 22h1.855c.736 0 1.333-.52 1.336-1.163V1.48z" fill="#fff"/></g><defs><clipPath id="clip0_114_4029"><path fill="#fff" d="M0 0h228v22H0z"/></clipPath></defs></svg>