<svg width="207" height="31" fill="none" xmlns="http://www.w3.org/2000/svg"><path d="M14.64 23.116c.834-2.263 1.66-4.53 2.504-6.789 1.688-4.501 3.096-9.13 5.633-13.254a11 11 0 01.534-.805c2.285-3.127 6.463-2.793 8.257.677 1.54 2.975 1.98 6.254 2.19 9.538.314 4.91-.058 9.76-1.842 14.393-.982 2.553-2.895 3.928-5.333 3.928-2.18 0-3.338-1.365-3.171-3.603.2-3.04.324-6.088.476-9.131.042-.41.029-.825-.038-1.232a10.002 10.002 0 00-.477-1.34c-.359.349-.666.75-.91 1.193a62.391 62.391 0 01-5.448 11.604 12.74 12.74 0 01-1.274 1.767c-1.087 1.252-2.127 1.247-3.234 0-1.326-1.472-1.94-3.308-2.547-5.164-1.082-3.308-2.227-6.588-3.339-9.877a3.703 3.703 0 00-.505-.736c0 1.704.047 3.26 0 4.81a415.65 415.65 0 01-.415 9.112 2.999 2.999 0 01-.453 1.247c-.916 1.595-2.6 1.59-3.287-.143a23.804 23.804 0 01-1.43-5.37A63.514 63.514 0 01.524 7.884c.261-2.134.7-4.242 1.312-6.298C2.352-.191 3.387-.393 4.8.82c1.68 1.438 2.514 3.436 3.249 5.454 1.807 4.938 3.51 9.926 5.27 14.869.248.692.568 1.36.854 2.042l.468-.069zm131.076.28a45.786 45.786 0 01-3.463 3.28 56.131 56.131 0 01-4.956 3.332c-.954.59-2.065.467-2.628-.55-.811-1.472-1.655-3.009-1.984-4.624-1.102-5.463-.887-11-.391-16.518.148-1.66.477-3.3.734-4.944.239-1.418 1.288-2.454 2.438-2.454 1.03 0 1.788.8 2.008 2.322.167 1.084.238 2.182.21 3.28-.1 2.944-.339 5.846-.42 8.767-.057 2.15 0 4.3.086 6.45.057 1.428.682 1.752 1.841.982 1.431-.982 2.819-1.964 4.15-3.059a5.586 5.586 0 001.525-2.007c.351-.78.523-1.634.502-2.494.038-2.946 0-5.93.095-8.89a13.4 13.4 0 01.544-3.113c.263-.952.749-1.885 1.856-1.988a19.384 19.384 0 014.259-.137c1.837.23 2.996 1.914 3.306 4.418a42.212 42.212 0 01-.754 14.064c-.553 2.612-1.312 5.184-2.089 7.737a6.279 6.279 0 01-1.34 2.272c-1.57 1.728-3.592 1.252-4.355-.981a24.395 24.395 0 01-.668-2.455c-.177-.79-.301-1.585-.506-2.69zm-24.131-11.202c1.011.159 2.011.38 2.996.663 2.079.756 3.172 2.489 3.878 4.501 1.039 2.945 1.092 5.89-.687 8.625-1.126 1.733-2.905 2.455-4.718 3.073a24.948 24.948 0 01-10.904 1.267c-1.932-.226-2.58-.766-2.924-2.725a35.977 35.977 0 01-.691-5.89c-.048-5.273.028-10.555.171-15.827.034-1.139.563-2.263.864-3.392.102-.425.348-.8.692-1.057.345-.257.767-.38 1.192-.347 3.339.128 6.678.26 9.707 1.934 3.653 2.023 4.064 5.528 1.063 8.473-.186.162-.348.368-.639.702zm-8.347 5.586c0 3.373 1.645 4.737 4.126 3.657a3.657 3.657 0 001.538-1.317c.382-.58.598-1.257.623-1.957.119-1.163-.582-2.027-1.589-2.454a8.465 8.465 0 00-2.385-.614c-1.321-.152-1.798.246-2.099 1.551-.124.472-.181.958-.214 1.134zm5.013-9.69c.052-1.212-.73-1.713-1.689-2.022-.868-.285-1.769-.619-2.523.25-.753.869-1.04 3.029-.477 4.03.226.373.575.65.983.78 1.679.413 3.749-1.31 3.706-3.038zM93.633.574c2.419.113 4.837.182 7.251.349a7.779 7.779 0 012.547.55c2.056.898 1.684 2.945 1.832 4.653a2.353 2.353 0 01-.384 1.704 2.224 2.224 0 01-1.439.932 32.432 32.432 0 01-5.137.894c-2.413.157-4.846.064-7.27.059-1.196 0-1.845.555-1.907 1.679-.057 1.34.477 1.963 1.836 1.963 2.385.05 4.77 0 7.117.162 1.617.123 2.142.982 2.108 2.656-.023.982-.505 1.654-1.326 1.792-1.98.324-3.987.49-5.986.687-.272 0-.553-.093-.825-.088-1.078.034-2.313-.334-2.981.957a4.288 4.288 0 00-.524 2.105c.009.737.206 1.459.571 2.092.711 1.31 2.037 1.507 3.306 1.517 2.619 0 5.247-.157 7.856-.118 1.185 0 2.361.203 3.482.599 1.488.564 1.641 2.14.277 2.994a9.476 9.476 0 01-3.392 1.301 35.581 35.581 0 01-13.355-.461c-2.061-.457-2.987-1.93-3.34-3.824a38.088 38.088 0 01-.715-6.043c-.086-4.88-.186-9.764.644-14.614.434-2.513 1.603-3.981 4.04-4.197 1.908-.167 3.816-.035 5.724-.035l-.01-.265zm93.305 22.11c0-4.595-.043-9.194 0-13.789.024-1.816-.258-3.235-2.199-3.927a6.7 6.7 0 01-2.428-1.713c-.477-.491-1.026-1.473-.849-1.925.184-.346.444-.644.759-.869a2.43 2.43 0 011.058-.427 36.37 36.37 0 014.842.192 3.1 3.1 0 01.806.206c1.96.702 3.563 1.114 3.262 4.246a7.76 7.76 0 000 1.1c.053 1.743.511 2.4 2.18 2.64 3.096.443 5.934 1.474 8.3 3.619 3.034 2.744 4.717 6.14 4.255 10.353-.372 3.387-2.414 5.645-5.414 6.833a21.383 21.383 0 01-5.524 1.32 53.944 53.944 0 01-6.678.148c-1.431 0-2.256-.938-2.385-2.523-.148-1.822-.214-3.653-.319-5.479l.334-.005zm11.047-7.024c0-1.934-1.856-3.466-4.207-3.584-.825-.04-1.403.329-1.493 1.056-.186 1.507-.42 3.072-.215 4.55.329 2.38 1.121 2.69 3.239 1.605 1.459-.75 2.771-1.654 2.676-3.627zM47.59 23.867c-1.909-.152-3.654-.329-5.41-.402-.185.036-.36.117-.51.237a1.23 1.23 0 00-.348.45c-.616 1.713-1.102 3.47-1.736 5.174a2.855 2.855 0 01-1.093 1.365c-1.23.736-2.619-.133-2.638-1.841-.034-2.028.14-4.053.52-6.043 1.307-6.75 3.635-13.185 6.077-19.572.84-2.194 3.43-2.857 5.753-1.532 2.06 1.169 3.215 3.147 4.135 5.214 2.638 5.93 3.745 12.223 3.759 18.703a7.009 7.009 0 01-1.173 3.71c-1.532 2.254-4.513 2.023-5.753-.426-.71-1.414-.997-3.058-1.474-4.595a8.38 8.38 0 01-.11-.442zm-2.338-11.104l-.43-.073a6.751 6.751 0 00-.51 1.104c-.429 1.689-.8 3.387-1.225 5.071-.425 1.684-.158 2.072 1.502 2.145a8.05 8.05 0 001.202-.073c.768-.084 1.155-.491.954-1.311l-1.493-6.863zm14.811 11.203c.176-6.667 1.283-13.166 3.854-19.317 1.13-2.725 2.47-3.83 4.46-3.638a7.748 7.748 0 013.01.873 7.962 7.962 0 012.447 2.004c1.907 2.273 2.995 4.978 3.772 7.795a54.098 54.098 0 011.908 15.179 5.68 5.68 0 01-.72 2.64c-.777 1.36-2.69 1.503-4.507.531a4.715 4.715 0 01-1.749-1.442 4.896 4.896 0 01-.899-2.112c-.567-3.48-1.044-6.98-1.564-10.466-.158-1.046-.286-2.091-.53-3.112-.076-.33-.477-.575-.72-.86-.239.246-.606.447-.696.742-.635 2.042-1.274 4.084-1.799 6.16-.863 3.437-1.617 6.947-2.494 10.403-.115.451-.75 1.153-1.03 1.1a4.634 4.634 0 01-2.152-1.022 2.63 2.63 0 01-.553-1.679c-.09-1.237-.038-2.523-.038-3.78zM167.772 8.924c.186 1.773.31 3.56.573 5.322.097.838.43 1.628.958 2.273a4.197 4.197 0 002.013 1.36c1.632.574 2.481 0 2.49-1.797 0-1.704-.129-3.412-.148-5.115-.023-2.195-.047-4.394.024-6.588.072-2.194 1.512-3.608 3.439-3.54.526-.03 1.043.14 1.454.478.411.338.687.82.774 1.353.179 1.04.24 2.098.181 3.152-.176 4.546-.477 9.091-.582 13.637-.047 2.838.291 5.68.353 8.517.038 1.733-.453 2.278-1.831 2.455-1.651.216-2.605-.305-2.939-1.9a22.617 22.617 0 01-.477-4.457c0-1.203-.243-1.606-1.545-1.724-4.722-.417-8.758-2.366-11.887-6.126-2.079-2.504-2.256-5.567-2.475-8.6a20.22 20.22 0 01.181-3.648 3.248 3.248 0 01.706-1.78 3.104 3.104 0 011.569-1.042c3.182-1.144 6.201.333 6.988 3.637.248 1.356.408 2.727.477 4.104l-.296.03z" fill="#fff"/></svg>