<svg width="391" height="386" viewBox="0 0 391 386" fill="none" xmlns="http://www.w3.org/2000/svg">
<g opacity="0.6">
<path d="M100.204 191.451V194.248V196.269V204.35" stroke="white" stroke-width="2" stroke-miterlimit="10"/>
<path d="M105.804 189.897L100.204 195.025L94.6045 189.897" stroke="white" stroke-width="2" stroke-miterlimit="10"/>
<path d="M104.33 187.644L100.204 191.451L96.0781 187.644" stroke="white" stroke-width="2" stroke-miterlimit="10"/>
<path d="M91.1416 191.995L92.5415 199.688L85.542 202.174" stroke="white" stroke-width="2" stroke-miterlimit="10"/>
<path d="M88.5628 192.228L89.668 197.901L84.4368 199.765" stroke="white" stroke-width="2" stroke-miterlimit="10"/>
<path d="M114.866 202.174L107.867 199.688L109.267 191.995" stroke="white" stroke-width="2" stroke-miterlimit="10"/>
<path d="M115.971 199.765L110.74 197.901L111.772 192.228" stroke="white" stroke-width="2" stroke-miterlimit="10"/>
<path d="M84.805 163.012L78.616 155.241C79.2791 155.008 80.0159 154.93 80.7527 154.93C84.363 154.93 84.363 156.718 87.8996 156.718L80.0159 144.207L76.3319 138.38C77.0687 138.069 77.8792 137.836 78.6896 137.913C81.7842 137.913 81.7842 139.701 84.805 139.701L66.3852 105.822L47.9653 139.778C51.0598 139.778 51.0598 137.991 54.0807 137.991C54.8912 137.991 55.7016 138.147 56.3647 138.457L56.2911 138.613L44.7971 156.718C48.4074 156.718 48.4074 154.93 51.944 154.93C52.6808 154.93 53.3439 155.008 54.0807 155.241L53.4912 155.941L39.4185 173.735C43.9129 173.735 43.9129 171.948 48.4074 171.948C52.9018 171.948 52.9018 173.735 57.3963 173.735C59.1646 173.735 61.0066 173.346 62.6275 172.569V183.758H70.0691V172.569C71.6901 173.346 73.5321 173.735 75.3004 173.735C79.7948 173.735 79.7948 171.948 84.2893 171.948C88.7837 171.948 88.7837 173.735 93.2782 173.735L84.805 163.012Z" stroke="white" stroke-width="2" stroke-miterlimit="10"/>
<path d="M180.588 88.9603C171.452 94.1665 167.989 106.288 172.999 115.923C177.936 125.559 189.43 129.211 198.566 123.927C207.702 118.721 211.165 106.599 206.155 96.9638C204.534 93.8556 202.176 91.2137 199.303 89.4265" stroke="white" stroke-width="2" stroke-miterlimit="10"/>
<path d="M184.493 65.1831C178.525 68.0581 175.873 75.5954 178.673 81.8893C179.262 83.2103 180.073 84.4536 181.03 85.4637" stroke="white" stroke-width="2" stroke-miterlimit="10"/>
<path d="M198.787 84.6089C200.556 82.3555 201.513 79.4805 201.513 76.6055C201.513 75.0514 201.219 73.5751 200.703 72.1764" stroke="white" stroke-width="2" stroke-miterlimit="10"/>
<path d="M195.545 76.2947C195.545 77.1494 194.882 77.771 194.146 77.771C193.335 77.771 192.746 77.0717 192.746 76.2947C192.746 75.5176 193.409 74.8183 194.146 74.8183C194.882 74.7406 195.545 75.4399 195.545 76.2947C195.545 76.2169 195.545 76.2169 195.545 76.2947Z" fill="white"/>
<path d="M186.409 76.2947C186.409 77.1494 185.746 77.771 185.009 77.771C184.199 77.771 183.609 77.0717 183.609 76.2947C183.609 75.4399 184.273 74.8183 185.009 74.8183C185.746 74.7406 186.409 75.4399 186.409 76.2947C186.409 76.2169 186.409 76.2169 186.409 76.2947Z" fill="white"/>
<path d="M191.493 79.325C191.493 80.1797 190.83 80.9568 189.946 80.9568C189.135 80.9568 188.398 80.2574 188.398 79.325C188.398 78.4703 189.062 77.6932 189.946 77.6932C190.83 77.7709 191.493 78.4703 191.493 79.325Z" fill="white"/>
<path d="M201.882 69.4567L199.45 68.3689L199.745 66.7371L200.482 62.8519C200.777 61.4533 200.04 60.0546 198.787 59.5884L193.409 57.2573C192.156 56.7133 190.756 57.1796 190.019 58.4228L188.03 61.7641L187.22 63.2404L184.788 62.1526C184.125 61.8418 183.315 62.2303 183.02 62.9296L182.946 63.0073C182.651 63.7067 183.02 64.5614 183.683 64.8722L200.777 72.254C201.44 72.5649 202.25 72.1763 202.545 71.477L202.619 71.3216C202.913 70.6223 202.619 69.7675 201.882 69.4567Z" stroke="white" stroke-width="2" stroke-miterlimit="10"/>
<path d="M191.125 98.5955C191.125 99.5279 190.388 100.305 189.504 100.305C188.62 100.305 187.883 99.5279 187.883 98.5955C187.883 97.663 188.62 96.886 189.504 96.886C190.388 96.886 191.125 97.663 191.125 98.5955Z" fill="white"/>
<path d="M191.125 106.521C191.125 107.454 190.388 108.231 189.504 108.231C188.62 108.231 187.883 107.454 187.883 106.521C187.883 105.589 188.62 104.812 189.504 104.812C190.388 104.812 191.125 105.589 191.125 106.521Z" fill="white"/>
<path d="M191.125 114.369C191.125 115.302 190.388 116.079 189.504 116.079C188.62 116.079 187.883 115.302 187.883 114.369C187.883 113.437 188.62 112.66 189.504 112.66C190.388 112.737 191.125 113.437 191.125 114.369Z" fill="white"/>
<path d="M205.492 96.8084L214.923 90.8252L217.723 87.4062" stroke="white" stroke-width="2" stroke-miterlimit="10"/>
<path d="M214.923 90.8252L219.86 92.2239" stroke="white" stroke-width="2" stroke-miterlimit="10"/>
<path d="M208.145 95.0212L209.25 91.5245" stroke="white" stroke-width="2" stroke-miterlimit="10"/>
<path d="M173.589 96.8084L164.158 90.8252L161.358 87.4062" stroke="white" stroke-width="2" stroke-miterlimit="10"/>
<path d="M164.158 90.8252L159.221 92.2239" stroke="white" stroke-width="2" stroke-miterlimit="10"/>
<path d="M170.937 95.0212L169.831 91.5245" stroke="white" stroke-width="2" stroke-miterlimit="10"/>
<path d="M197.977 101.16C198.935 100.305 199.229 99.1394 199.156 96.886C198.861 94.5549 198.345 92.3015 197.608 90.1258C197.977 90.1258 198.345 90.1258 198.787 90.0481C199.745 89.8927 199.45 88.1832 199.377 87.5616C199.303 86.94 199.671 86.3183 199.598 85.3082C199.524 84.2981 196.724 84.0649 192.746 84.0649C190.167 84.0649 187.588 84.2981 185.083 84.6866C182.946 84.9974 180.662 85.1528 180.662 86.2406C180.662 87.3285 180.073 88.3386 181.03 89.3488C181.62 89.9704 187.514 90.1258 192.377 90.2035C192.672 91.6799 193.04 94.5549 192.672 96.3421C192.23 98.4401 191.198 99.8388 191.272 100.927L197.977 101.16Z" stroke="white" stroke-width="2" stroke-miterlimit="10"/>
<path d="M87.826 75.6731C92.3941 73.0311 100.646 69.5345 107.498 74.0413C117.445 80.413 122.603 94.6327 122.603 94.6327C115.087 97.1969 103.151 96.8861 103.151 96.8861C103.151 96.8861 91.2153 97.1969 83.7 94.6327C84.4367 87.7171 91.2153 82.2779 90.6995 81.1123C90.4785 80.5684 89.5206 80.4907 88.5628 80.6461" stroke="white" stroke-width="2" stroke-miterlimit="10"/>
<path d="M125.624 98.751C125.771 101.937 125.034 103.413 125.034 103.413C116.34 106.91 89.9627 106.91 81.3422 103.413C81.3422 103.413 80.5318 101.937 80.7528 98.751C80.7528 97.0415 81.4159 95.332 82.5211 94.0887C82.8895 94.2442 83.3316 94.3996 83.7 94.555C91.2153 97.1192 103.151 96.8084 103.151 96.8084C103.151 96.8084 115.087 97.1192 122.603 94.555C123.045 94.3996 123.413 94.2442 123.855 94.0887C124.96 95.332 125.55 97.0415 125.624 98.751Z" stroke="white" stroke-width="2" stroke-miterlimit="10"/>
<path d="M88.8576 78.6257C88.8576 81.1899 86.9419 83.2879 84.4368 83.3656C82.0054 83.3656 80.0161 81.3453 79.9424 78.7034C79.9424 76.1392 81.8581 74.0412 84.3632 73.9635C86.8683 74.0412 88.8576 76.0615 88.8576 78.6257Z" stroke="white" stroke-width="2" stroke-miterlimit="10"/>
<path d="M124.445 146.383V171.714" stroke="white" stroke-width="2" stroke-miterlimit="10"/>
<path d="M112.435 159.049H136.381" stroke="white" stroke-width="2" stroke-miterlimit="10"/>
<path d="M118.477 152.755L130.339 165.343" stroke="white" stroke-width="2" stroke-miterlimit="10"/>
<path d="M118.477 165.343L130.339 152.755" stroke="white" stroke-width="2" stroke-miterlimit="10"/>
<path d="M124.445 135.349V130.454" stroke="white" stroke-width="2" stroke-miterlimit="10"/>
<path d="M128.055 138.691V135.427H120.761V138.691" stroke="white" stroke-width="2" stroke-miterlimit="10"/>
<path d="M124.445 179.796C135.309 179.796 144.117 170.507 144.117 159.049C144.117 147.591 135.309 138.302 124.445 138.302C113.58 138.302 104.772 147.591 104.772 159.049C104.772 170.507 113.58 179.796 124.445 179.796Z" stroke="white" stroke-width="2" stroke-miterlimit="10"/>
<path d="M193.998 185.623V200.154" stroke="white" stroke-width="2" stroke-miterlimit="10"/>
<path d="M187.072 192.927H200.85" stroke="white" stroke-width="2" stroke-miterlimit="10"/>
<path d="M190.535 189.275L197.387 196.502" stroke="white" stroke-width="2" stroke-miterlimit="10"/>
<path d="M190.535 196.502L197.387 189.275" stroke="white" stroke-width="2" stroke-miterlimit="10"/>
<path d="M193.998 179.329V176.532" stroke="white" stroke-width="2" stroke-miterlimit="10"/>
<path d="M196.061 181.194V179.329H191.935V181.194" stroke="white" stroke-width="2" stroke-miterlimit="10"/>
<path d="M193.998 204.738C200.224 204.738 205.271 199.416 205.271 192.85C205.271 186.284 200.224 180.961 193.998 180.961C187.772 180.961 182.725 186.284 182.725 192.85C182.725 199.416 187.772 204.738 193.998 204.738Z" stroke="white" stroke-width="2" stroke-miterlimit="10"/>
<path d="M140.065 88.5717C140.065 90.2035 138.812 91.5245 137.265 91.5245C135.718 91.5245 134.465 90.2035 134.465 88.5717C134.465 86.94 135.718 85.619 137.265 85.619C138.738 85.619 139.991 86.94 140.065 88.5717Z" stroke="white" stroke-width="2" stroke-miterlimit="10"/>
<path d="M194.072 45.291C195.618 45.291 196.872 43.969 196.872 42.3382C196.872 40.7075 195.618 39.3855 194.072 39.3855C192.525 39.3855 191.272 40.7075 191.272 42.3382C191.272 43.969 192.525 45.291 194.072 45.291Z" stroke="white" stroke-width="2" stroke-miterlimit="10"/>
<path d="M110.74 59.9769C110.74 61.6087 109.488 62.9296 107.94 63.0073C106.393 63.0073 105.141 61.6864 105.067 60.0546C105.067 58.4228 106.319 57.1019 107.867 57.0242H107.94C109.488 57.1019 110.74 58.4228 110.74 59.9769Z" stroke="white" stroke-width="2" stroke-miterlimit="10"/>
<path d="M201.071 146.383C202.618 146.383 203.871 145.061 203.871 143.43C203.871 141.8 202.618 140.478 201.071 140.478C199.525 140.478 198.271 141.8 198.271 143.43C198.271 145.061 199.525 146.383 201.071 146.383Z" stroke="white" stroke-width="2" stroke-miterlimit="10"/>
<path d="M101.972 127.657C101.972 129.288 100.72 130.609 99.1726 130.609C97.6254 130.609 96.3728 129.288 96.3728 127.657C96.3728 126.025 97.6254 124.704 99.1726 124.704C100.72 124.704 101.972 126.025 101.972 127.657Z" stroke="white" stroke-width="2" stroke-miterlimit="10"/>
<path d="M58.5752 94.4772C60.1215 94.4772 61.375 93.1553 61.375 91.5245C61.375 89.8938 60.1215 88.5718 58.5752 88.5718C57.0289 88.5718 55.7754 89.8938 55.7754 91.5245C55.7754 93.1553 57.0289 94.4772 58.5752 94.4772Z" stroke="white" stroke-width="2" stroke-miterlimit="10"/>
<path d="M59.6804 24.3888V19.5712" stroke="white" stroke-width="2" stroke-miterlimit="10"/>
<path d="M56.0701 27.73V24.5442H63.2907V27.73" stroke="white" stroke-width="2" stroke-miterlimit="10"/>
<path d="M59.6804 68.9905C70.5859 68.9905 79.4265 59.667 79.4265 48.166C79.4265 36.6649 70.5859 27.3414 59.6804 27.3414C48.775 27.3414 39.9343 36.6649 39.9343 48.166C39.9343 59.667 48.775 68.9905 59.6804 68.9905Z" stroke="white" stroke-width="2" stroke-miterlimit="10"/>
<path d="M40.9658 41.3281H78.3213" stroke="white" stroke-width="2" stroke-miterlimit="10"/>
<path d="M40.9658 55.0039H78.3213" stroke="white" stroke-width="2" stroke-miterlimit="10"/>
<path d="M46.7127 48.166C46.7127 49.2538 45.9023 50.1863 44.8707 50.1863C43.8392 50.1863 42.9551 49.3315 42.9551 48.2437C42.9551 47.1558 43.7656 46.2234 44.7971 46.2234C45.9023 46.1457 46.7127 47.0781 46.7127 48.166Z" stroke="white" stroke-width="2" stroke-miterlimit="10"/>
<path d="M56.6595 48.166C56.6595 49.2538 55.849 50.1863 54.8175 50.1863C53.786 50.1863 52.9019 49.3315 52.9019 48.2437C52.9019 47.1558 53.7123 46.2234 54.7438 46.2234C55.7754 46.1457 56.6595 47.0781 56.6595 48.166Z" stroke="white" stroke-width="2" stroke-miterlimit="10"/>
<path d="M66.5326 48.166C66.5326 49.2538 65.7221 50.1863 64.6906 50.1863C63.6591 50.1863 62.7749 49.3315 62.7749 48.2437C62.7749 47.1558 63.5854 46.2234 64.6169 46.2234C65.6484 46.1457 66.4589 47.0781 66.5326 48.166Z" stroke="white" stroke-width="2" stroke-miterlimit="10"/>
<path d="M76.4057 48.166C76.4057 49.2538 75.5952 50.1086 74.5637 50.1086C73.5322 50.1086 72.7217 49.2538 72.7217 48.166C72.7217 47.0781 73.5322 46.2234 74.5637 46.2234C75.5215 46.1457 76.4057 47.0781 76.4057 48.166Z" stroke="white" stroke-width="2" stroke-miterlimit="10"/>
<path d="M100.204 11.49V14.2873V16.3076V24.3111" stroke="white" stroke-width="2" stroke-miterlimit="10"/>
<path d="M105.804 9.85815L100.204 14.9866L94.6045 9.85815" stroke="white" stroke-width="2" stroke-miterlimit="10"/>
<path d="M104.33 7.6825L100.204 11.49L96.0781 7.6825" stroke="white" stroke-width="2" stroke-miterlimit="10"/>
<path d="M89.668 17.9393L91.952 19.2603L93.573 20.3481L100.204 24.311" stroke="white" stroke-width="2" stroke-miterlimit="10"/>
<path d="M91.1416 12.0339L92.5415 19.6489L85.542 22.2131" stroke="white" stroke-width="2" stroke-miterlimit="10"/>
<path d="M88.5628 12.1893L89.668 17.9394L84.4368 19.8043" stroke="white" stroke-width="2" stroke-miterlimit="10"/>
<path d="M89.668 30.7604L91.952 29.3618L93.573 28.3516L100.204 24.311" stroke="white" stroke-width="2" stroke-miterlimit="10"/>
<path d="M85.542 26.4867L92.5415 28.9732L91.1416 36.6658" stroke="white" stroke-width="2" stroke-miterlimit="10"/>
<path d="M84.4368 28.8955L89.668 30.7604L88.5628 36.4327" stroke="white" stroke-width="2" stroke-miterlimit="10"/>
<path d="M100.204 37.2098V34.4125V32.3922V24.311" stroke="white" stroke-width="2" stroke-miterlimit="10"/>
<path d="M94.6045 38.7639L100.204 33.7131L105.804 38.7639" stroke="white" stroke-width="2" stroke-miterlimit="10"/>
<path d="M96.0781 41.0173L100.204 37.2098L104.33 41.0173" stroke="white" stroke-width="2" stroke-miterlimit="10"/>
<path d="M110.74 30.7604L108.456 29.3618L106.762 28.3516L100.204 24.311" stroke="white" stroke-width="2" stroke-miterlimit="10"/>
<path d="M109.267 36.6658L107.867 28.9732L114.866 26.4867" stroke="white" stroke-width="2" stroke-miterlimit="10"/>
<path d="M111.772 36.4327L110.74 30.7604L115.971 28.8955" stroke="white" stroke-width="2" stroke-miterlimit="10"/>
<path d="M110.74 17.9393L108.456 19.2603L106.762 20.3481L100.204 24.311" stroke="white" stroke-width="2" stroke-miterlimit="10"/>
<path d="M114.866 22.2131L107.867 19.6489L109.267 12.0339" stroke="white" stroke-width="2" stroke-miterlimit="10"/>
<path d="M115.971 19.8043L110.74 17.9394L111.772 12.1893" stroke="white" stroke-width="2" stroke-miterlimit="10"/>
<path d="M174.031 141.41V144.207V146.228V154.231" stroke="white" stroke-width="2" stroke-miterlimit="10"/>
<path d="M179.631 139.778L174.031 144.907L168.505 139.778" stroke="white" stroke-width="2" stroke-miterlimit="10"/>
<path d="M178.231 137.603L174.031 141.41L169.905 137.603" stroke="white" stroke-width="2" stroke-miterlimit="10"/>
<path d="M163.495 147.859L165.779 149.258L167.474 150.268L174.031 154.231" stroke="white" stroke-width="2" stroke-miterlimit="10"/>
<path d="M164.968 141.954L166.368 149.569L159.442 152.133" stroke="white" stroke-width="2" stroke-miterlimit="10"/>
<path d="M162.463 142.109L163.495 147.859L158.264 149.724" stroke="white" stroke-width="2" stroke-miterlimit="10"/>
<path d="M163.495 160.681L165.779 159.282L167.474 158.272L174.031 154.231" stroke="white" stroke-width="2" stroke-miterlimit="10"/>
<path d="M159.442 156.407L166.368 158.971L164.968 166.586" stroke="white" stroke-width="2" stroke-miterlimit="10"/>
<path d="M158.264 158.816L163.495 160.681L162.463 166.431" stroke="white" stroke-width="2" stroke-miterlimit="10"/>
<path d="M174.031 167.13V164.333V162.312V154.231" stroke="white" stroke-width="2" stroke-miterlimit="10"/>
<path d="M168.505 168.684L174.031 163.633L179.631 168.684" stroke="white" stroke-width="2" stroke-miterlimit="10"/>
<path d="M169.905 170.937L174.031 167.13L178.231 170.937" stroke="white" stroke-width="2" stroke-miterlimit="10"/>
<path d="M184.641 160.681L182.357 159.282L180.662 158.272L174.031 154.231" stroke="white" stroke-width="2" stroke-miterlimit="10"/>
<path d="M183.167 166.586L181.767 158.971L188.693 156.407" stroke="white" stroke-width="2" stroke-miterlimit="10"/>
<path d="M185.672 166.431L184.641 160.681L189.798 158.816" stroke="white" stroke-width="2" stroke-miterlimit="10"/>
<path d="M184.641 147.859L182.357 149.258L180.662 150.268L174.031 154.231" stroke="white" stroke-width="2" stroke-miterlimit="10"/>
<path d="M188.693 152.133L181.767 149.569L183.167 141.954" stroke="white" stroke-width="2" stroke-miterlimit="10"/>
<path d="M189.798 149.724L184.641 147.859L185.672 142.109" stroke="white" stroke-width="2" stroke-miterlimit="10"/>
<path d="M146.696 185.157V199.843" stroke="white" stroke-width="2" stroke-miterlimit="10"/>
<path d="M139.696 192.461H153.695" stroke="white" stroke-width="2" stroke-miterlimit="10"/>
<path d="M143.233 188.809L150.159 196.191" stroke="white" stroke-width="2" stroke-miterlimit="10"/>
<path d="M143.233 196.191L150.159 188.809" stroke="white" stroke-width="2" stroke-miterlimit="10"/>
<path d="M145.222 112.738V127.423" stroke="white" stroke-width="2" stroke-miterlimit="10"/>
<path d="M138.223 120.042H152.222" stroke="white" stroke-width="2" stroke-miterlimit="10"/>
<path d="M141.759 116.39L148.685 123.694" stroke="white" stroke-width="2" stroke-miterlimit="10"/>
<path d="M141.759 123.694L148.685 116.39" stroke="white" stroke-width="2" stroke-miterlimit="10"/>
<path d="M152.222 39.5409L155.095 44.8247H160.916L157.969 50.1086L160.916 55.4701H155.095L152.222 60.7539L149.348 55.4701H143.528L146.401 50.1086L143.528 44.8247H149.348L152.222 39.5409Z" stroke="white" stroke-width="2" stroke-miterlimit="10"/>
<path d="M152.222 31.4597V35.5003V38.453V50.1085" stroke="white" stroke-width="2" stroke-miterlimit="10"/>
<path d="M158.411 32.1591L152.222 37.8314L146.033 32.1591" stroke="white" stroke-width="2" stroke-miterlimit="10"/>
<path d="M136.823 40.7842L140.138 42.8045L142.57 44.2808L152.222 50.1086" stroke="white" stroke-width="2" stroke-miterlimit="10"/>
<path d="M140.507 35.5004L142.128 43.97L134.318 46.8451" stroke="white" stroke-width="2" stroke-miterlimit="10"/>
<path d="M136.823 59.5106L140.138 57.4903L142.57 56.014L152.222 50.1085" stroke="white" stroke-width="2" stroke-miterlimit="10"/>
<path d="M134.318 53.4498L142.128 56.3249L140.507 64.7945" stroke="white" stroke-width="2" stroke-miterlimit="10"/>
<path d="M152.222 68.835V64.7945V61.8417V50.1085" stroke="white" stroke-width="2" stroke-miterlimit="10"/>
<path d="M146.033 68.1357L152.222 62.4634L158.411 68.1357" stroke="white" stroke-width="2" stroke-miterlimit="10"/>
<path d="M167.621 59.5106L164.232 57.4903L161.8 56.014L152.222 50.1085" stroke="white" stroke-width="2" stroke-miterlimit="10"/>
<path d="M163.863 64.7945L162.316 56.3249L170.126 53.4498" stroke="white" stroke-width="2" stroke-miterlimit="10"/>
<path d="M167.621 40.7842L164.232 42.8045L161.8 44.2808L152.222 50.1086" stroke="white" stroke-width="2" stroke-miterlimit="10"/>
<path d="M170.126 46.8451L162.316 43.97L163.863 35.5004" stroke="white" stroke-width="2" stroke-miterlimit="10"/>
<path d="M9.87305 88.9603C6.77852 90.7475 4.27341 93.3117 2.5051 96.5753C0.810473 99.6057 0 103.025 0 106.521C0 117.477 8.47314 126.413 18.862 126.413C29.2508 126.413 37.7239 117.477 37.7239 106.521C37.7239 103.025 36.8398 99.6057 35.2188 96.5753C33.5979 93.6225 31.3875 91.2137 28.5877 89.4265" stroke="white" stroke-width="2" stroke-miterlimit="10"/>
<path d="M28.0718 84.6089C29.8401 82.3555 30.7979 79.5582 30.7979 76.6831C30.7979 75.1291 30.5032 73.6527 29.9874 72.254" stroke="white" stroke-width="2" stroke-miterlimit="10"/>
<path d="M31.1663 69.4567L28.7349 68.3689L29.0296 66.7371L29.7664 62.8519C30.0611 61.4533 29.3243 60.0546 28.0718 59.5884L22.7669 57.2573C21.5143 56.7134 20.1144 57.1796 19.3776 58.4228L17.3883 61.7641L16.5778 63.2404L14.1464 62.1526C13.4832 61.8418 12.6728 62.2303 12.3781 62.9296L12.3044 63.085C12.0097 63.7844 12.3781 64.6391 13.0412 64.9499L30.0611 72.3317C30.7242 72.6425 31.5347 72.254 31.8294 71.5547L31.9031 71.3216C32.1978 70.6223 31.9031 69.7675 31.1663 69.4567ZM31.1663 69.4567C31.24 69.4567 31.24 69.4567 31.1663 69.4567Z" stroke="white" stroke-width="2" stroke-miterlimit="10"/>
<path d="M34.7766 96.8084L44.2076 90.8252L47.0074 87.4062" stroke="white" stroke-width="2" stroke-miterlimit="10"/>
<path d="M44.2078 90.8252L49.218 92.2239" stroke="white" stroke-width="2" stroke-miterlimit="10"/>
<path d="M37.4292 95.0212L38.6081 91.5245" stroke="white" stroke-width="2" stroke-miterlimit="10"/>
<path d="M23.2827 204.738C29.5086 204.738 34.5557 199.416 34.5557 192.85C34.5557 186.284 29.5086 180.961 23.2827 180.961C17.0568 180.961 12.0098 186.284 12.0098 192.85C12.0098 199.416 17.0568 204.738 23.2827 204.738Z" stroke="white" stroke-width="2" stroke-miterlimit="10"/>
<path d="M30.4297 146.383C31.976 146.383 33.2295 145.061 33.2295 143.43C33.2295 141.8 31.976 140.478 30.4297 140.478C28.8834 140.478 27.6299 141.8 27.6299 143.43C27.6299 145.061 28.8834 146.383 30.4297 146.383Z" stroke="white" stroke-width="2" stroke-miterlimit="10"/>
<path d="M193.998 5.66223V20.1151" stroke="white" stroke-width="2" stroke-miterlimit="10"/>
<path d="M187.072 12.8887H200.85" stroke="white" stroke-width="2" stroke-miterlimit="10"/>
<path d="M190.535 9.31421L197.387 16.5406" stroke="white" stroke-width="2" stroke-miterlimit="10"/>
<path d="M190.535 16.5406L197.387 9.31421" stroke="white" stroke-width="2" stroke-miterlimit="10"/>
<path d="M193.998 24.7773C200.224 24.7773 205.271 19.4545 205.271 12.8886C205.271 6.32272 200.224 1 193.998 1C187.772 1 182.725 6.32272 182.725 12.8886C182.725 19.4545 187.772 24.7773 193.998 24.7773Z" stroke="white" stroke-width="2" stroke-miterlimit="10"/>
<path d="M146.696 5.11829V19.8819" stroke="white" stroke-width="2" stroke-miterlimit="10"/>
<path d="M139.696 12.5001H153.695" stroke="white" stroke-width="2" stroke-miterlimit="10"/>
<path d="M143.233 8.84802L150.159 16.1521" stroke="white" stroke-width="2" stroke-miterlimit="10"/>
<path d="M143.233 16.1521L150.159 8.84802" stroke="white" stroke-width="2" stroke-miterlimit="10"/>
<path d="M23.2827 24.7773C29.5086 24.7773 34.5557 19.4545 34.5557 12.8886C34.5557 6.32272 29.5086 1 23.2827 1C17.0568 1 12.0098 6.32272 12.0098 12.8886C12.0098 19.4545 17.0568 24.7773 23.2827 24.7773Z" stroke="white" stroke-width="2" stroke-miterlimit="10"/>
<path d="M270.846 191.451V194.248V196.269V204.35" stroke="white" stroke-width="2" stroke-miterlimit="10"/>
<path d="M276.445 189.897L270.846 195.025L265.32 189.897" stroke="white" stroke-width="2" stroke-miterlimit="10"/>
<path d="M275.046 187.644L270.846 191.451L266.72 187.644" stroke="white" stroke-width="2" stroke-miterlimit="10"/>
<path d="M261.783 191.995L263.183 199.688L256.184 202.174" stroke="white" stroke-width="2" stroke-miterlimit="10"/>
<path d="M259.278 192.228L260.31 197.901L255.078 199.765" stroke="white" stroke-width="2" stroke-miterlimit="10"/>
<path d="M285.508 202.174L278.582 199.688L279.982 191.995" stroke="white" stroke-width="2" stroke-miterlimit="10"/>
<path d="M286.613 199.765L281.456 197.901L282.487 192.228" stroke="white" stroke-width="2" stroke-miterlimit="10"/>
<path d="M255.447 163.012L249.258 155.241C249.921 155.008 250.658 154.93 251.394 154.93C255.005 154.93 255.005 156.718 258.615 156.718L250.731 144.285L247.047 138.457C247.784 138.147 248.595 137.913 249.405 137.991C252.5 137.991 252.5 139.778 255.52 139.778L237.101 105.822L218.681 139.856C221.775 139.856 221.775 138.069 224.796 138.069C225.607 138.069 226.417 138.224 227.154 138.535L227.08 138.69L215.586 156.795C219.196 156.795 219.196 155.008 222.807 155.008C223.544 155.008 224.207 155.086 224.943 155.319L224.354 156.018L210.281 173.812C214.776 173.812 214.776 172.025 219.27 172.025C223.765 172.025 223.765 173.812 228.259 173.812C230.027 173.812 231.869 173.424 233.49 172.647V183.836H240.932V172.569C242.553 173.346 244.395 173.735 246.163 173.735C250.658 173.735 250.658 171.948 255.152 171.948C259.647 171.948 259.647 173.735 264.141 173.735L255.447 163.012Z" stroke="white" stroke-width="2" stroke-miterlimit="10"/>
<path d="M351.23 88.9603C342.094 94.1665 338.631 106.288 343.641 115.923C348.578 125.559 360.072 129.211 369.208 123.927C378.344 118.721 381.807 106.599 376.797 96.9638C375.176 93.8556 372.818 91.2137 369.945 89.4265" stroke="white" stroke-width="2" stroke-miterlimit="10"/>
<path d="M355.209 65.1831C349.241 68.0581 346.588 75.5954 349.388 81.8893C349.977 83.2103 350.788 84.4536 351.746 85.4637" stroke="white" stroke-width="2" stroke-miterlimit="10"/>
<path d="M369.429 84.6089C372.155 81.1122 372.892 76.3723 371.345 72.0986" stroke="white" stroke-width="2" stroke-miterlimit="10"/>
<path d="M366.187 76.2947C366.187 77.1494 365.524 77.771 364.787 77.771C363.977 77.771 363.387 77.0717 363.387 76.2947C363.387 75.4399 364.05 74.8183 364.787 74.8183C365.524 74.7406 366.187 75.4399 366.187 76.2947C366.187 76.2169 366.187 76.2169 366.187 76.2947Z" fill="white"/>
<path d="M357.051 76.2947C357.051 77.1494 356.388 77.771 355.651 77.771C354.84 77.771 354.251 77.0717 354.251 76.2947C354.251 75.4399 354.914 74.8183 355.651 74.8183C356.461 74.7406 357.051 75.4399 357.051 76.2947C357.051 76.2169 357.051 76.2169 357.051 76.2947Z" fill="white"/>
<path d="M362.208 79.325C362.208 80.1797 361.545 80.9568 360.661 80.9568C359.851 80.9568 359.114 80.2574 359.114 79.325C359.114 78.3926 359.777 77.6932 360.661 77.6932C361.545 77.7709 362.208 78.4703 362.208 79.325Z" fill="white"/>
<path d="M372.523 69.4567L370.092 68.3689L370.46 66.7371L371.197 62.8519C371.492 61.4533 370.755 60.0546 369.503 59.5884L364.124 57.2573C362.871 56.7134 361.472 57.1796 360.735 58.4228L358.745 61.7641L357.935 63.2404L355.504 62.1526C354.84 61.8418 354.03 62.2303 353.735 62.9296L353.662 63.085C353.367 63.7844 353.735 64.6391 354.398 64.9499L371.492 72.3317C372.155 72.6425 372.966 72.254 373.26 71.5547L373.334 71.3993C373.555 70.6223 373.26 69.7675 372.523 69.4567ZM372.523 69.4567C372.597 69.4567 372.597 69.4567 372.523 69.4567Z" stroke="white" stroke-width="2" stroke-miterlimit="10"/>
<path d="M361.766 98.5955C361.766 99.5279 361.03 100.305 360.145 100.305C359.261 100.305 358.524 99.5279 358.524 98.5955C358.524 97.663 359.261 96.886 360.145 96.886C361.03 96.886 361.766 97.663 361.766 98.5955Z" fill="white"/>
<path d="M361.766 106.521C361.766 107.454 361.03 108.231 360.145 108.231C359.261 108.231 358.524 107.454 358.524 106.521C358.524 105.589 359.261 104.812 360.145 104.812C361.03 104.812 361.766 105.589 361.766 106.521Z" fill="white"/>
<path d="M361.766 114.369C361.766 115.302 361.03 116.079 360.145 116.079C359.261 116.079 358.524 115.302 358.524 114.369C358.524 113.437 359.261 112.66 360.145 112.66C361.03 112.737 361.766 113.437 361.766 114.369Z" fill="white"/>
<path d="M376.134 96.8084L385.565 90.8252L388.365 87.4062" stroke="white" stroke-width="2" stroke-miterlimit="10"/>
<path d="M385.565 90.8252L390.575 92.2239" stroke="white" stroke-width="2" stroke-miterlimit="10"/>
<path d="M378.786 95.0212L379.965 91.5245" stroke="white" stroke-width="2" stroke-miterlimit="10"/>
<path d="M344.304 96.8084L334.873 90.8252L332.073 87.4062" stroke="white" stroke-width="2" stroke-miterlimit="10"/>
<path d="M334.873 90.8252L329.863 92.2239" stroke="white" stroke-width="2" stroke-miterlimit="10"/>
<path d="M341.652 95.0212L340.473 91.5245" stroke="white" stroke-width="2" stroke-miterlimit="10"/>
<path d="M368.618 101.16C369.576 100.305 369.871 99.1394 369.797 96.886C369.503 94.5549 368.987 92.3015 368.25 90.1258C368.618 90.1258 369.06 90.1258 369.429 90.0481C370.387 89.8927 370.092 88.1832 370.018 87.5616C369.945 86.94 370.313 86.3183 370.239 85.3082C370.166 84.2981 367.366 84.0649 363.387 84.0649C360.808 84.0649 358.23 84.2981 355.724 84.6866C353.588 84.9974 351.304 85.1528 351.304 86.2406C351.304 87.3285 350.714 88.3386 351.672 89.3488C352.262 89.9704 358.156 90.1258 363.019 90.2035C363.313 91.6799 363.682 94.5549 363.313 96.3421C362.871 98.4401 361.766 99.8388 361.914 100.927L368.618 101.16Z" stroke="white" stroke-width="2" stroke-miterlimit="10"/>
<path d="M258.541 75.6731C263.036 73.0311 271.362 69.5345 278.214 74.0413C288.161 80.413 293.392 94.6327 293.392 94.6327C285.876 97.1969 273.94 96.8861 273.94 96.8861C273.94 96.8861 262.004 97.1969 254.489 94.6327C255.226 87.7171 262.004 82.2779 261.489 81.1123C261.268 80.5684 260.31 80.4907 259.352 80.6461" stroke="white" stroke-width="2" stroke-miterlimit="10"/>
<path d="M296.265 98.751C296.413 101.937 295.676 103.413 295.676 103.413C286.982 106.91 260.604 106.91 251.984 103.413C251.984 103.413 251.173 101.937 251.394 98.751C251.394 97.0415 251.984 95.332 253.163 94.0887C253.531 94.2442 253.973 94.3996 254.415 94.555C261.931 97.1192 273.867 96.8084 273.867 96.8084C273.867 96.8084 285.803 97.1192 293.318 94.555C293.76 94.3996 294.129 94.2442 294.571 94.0887C295.602 95.4097 296.265 97.0415 296.265 98.751Z" stroke="white" stroke-width="2" stroke-miterlimit="10"/>
<path d="M259.573 78.6257C259.573 81.1899 257.657 83.2879 255.152 83.3656C252.721 83.3656 250.731 81.3453 250.657 78.7034C250.657 76.1392 252.573 74.0412 255.078 73.9635C257.583 74.0412 259.499 76.0615 259.573 78.6257Z" stroke="white" stroke-width="2" stroke-miterlimit="10"/>
<path d="M295.086 146.383V171.714" stroke="white" stroke-width="2" stroke-miterlimit="10"/>
<path d="M283.077 159.049H307.096" stroke="white" stroke-width="2" stroke-miterlimit="10"/>
<path d="M289.118 152.755L301.054 165.343" stroke="white" stroke-width="2" stroke-miterlimit="10"/>
<path d="M289.118 165.343L301.054 152.755" stroke="white" stroke-width="2" stroke-miterlimit="10"/>
<path d="M295.086 135.349V130.454" stroke="white" stroke-width="2" stroke-miterlimit="10"/>
<path d="M298.697 138.691V135.427H291.476V138.691" stroke="white" stroke-width="2" stroke-miterlimit="10"/>
<path d="M295.086 179.796C305.951 179.796 314.759 170.507 314.759 159.049C314.759 147.591 305.951 138.302 295.086 138.302C284.221 138.302 275.414 147.591 275.414 159.049C275.414 170.507 284.221 179.796 295.086 179.796Z" stroke="white" stroke-width="2" stroke-miterlimit="10"/>
<path d="M364.64 185.623V200.154" stroke="white" stroke-width="2" stroke-miterlimit="10"/>
<path d="M357.788 192.927H371.492" stroke="white" stroke-width="2" stroke-miterlimit="10"/>
<path d="M361.25 189.275L368.029 196.502" stroke="white" stroke-width="2" stroke-miterlimit="10"/>
<path d="M361.25 196.502L368.029 189.275" stroke="white" stroke-width="2" stroke-miterlimit="10"/>
<path d="M364.64 179.329V176.532" stroke="white" stroke-width="2" stroke-miterlimit="10"/>
<path d="M366.703 181.194V179.329H362.577V181.194" stroke="white" stroke-width="2" stroke-miterlimit="10"/>
<path d="M364.64 204.738C370.866 204.738 375.913 199.416 375.913 192.85C375.913 186.284 370.866 180.961 364.64 180.961C358.414 180.961 353.367 186.284 353.367 192.85C353.367 199.416 358.414 204.738 364.64 204.738Z" stroke="white" stroke-width="2" stroke-miterlimit="10"/>
<path d="M310.706 88.5717C310.706 90.2035 309.454 91.5245 307.907 91.5245C306.359 91.5245 305.107 90.2035 305.107 88.5717C305.107 86.94 306.359 85.619 307.907 85.619C309.454 85.619 310.706 86.94 310.706 88.5717Z" stroke="white" stroke-width="2" stroke-miterlimit="10"/>
<path d="M364.787 45.291C366.333 45.291 367.587 43.969 367.587 42.3382C367.587 40.7075 366.333 39.3855 364.787 39.3855C363.241 39.3855 361.987 40.7075 361.987 42.3382C361.987 43.969 363.241 45.291 364.787 45.291Z" stroke="white" stroke-width="2" stroke-miterlimit="10"/>
<path d="M281.456 59.9769C281.456 61.6087 280.203 62.9296 278.656 63.0073C277.108 63.0073 275.856 61.6864 275.782 60.0546C275.782 58.4228 277.035 57.1019 278.582 57.0242C278.582 57.0242 278.582 57.0242 278.656 57.0242C280.129 57.1019 281.382 58.4228 281.456 59.9769Z" stroke="white" stroke-width="2" stroke-miterlimit="10"/>
<path d="M371.787 146.383C373.333 146.383 374.586 145.061 374.586 143.43C374.586 141.8 373.333 140.478 371.787 140.478C370.24 140.478 368.987 141.8 368.987 143.43C368.987 145.061 370.24 146.383 371.787 146.383Z" stroke="white" stroke-width="2" stroke-miterlimit="10"/>
<path d="M272.614 127.657C272.614 129.288 271.361 130.609 269.814 130.609C268.267 130.609 267.014 129.288 267.014 127.657C267.014 126.025 268.267 124.704 269.814 124.704C271.361 124.704 272.614 126.025 272.614 127.657Z" stroke="white" stroke-width="2" stroke-miterlimit="10"/>
<path d="M229.217 94.4772C230.763 94.4772 232.017 93.1553 232.017 91.5245C232.017 89.8938 230.763 88.5718 229.217 88.5718C227.671 88.5718 226.417 89.8938 226.417 91.5245C226.417 93.1553 227.671 94.4772 229.217 94.4772Z" stroke="white" stroke-width="2" stroke-miterlimit="10"/>
<path d="M230.322 24.3888V19.5712" stroke="white" stroke-width="2" stroke-miterlimit="10"/>
<path d="M226.712 27.73V24.5442H234.006V27.73" stroke="white" stroke-width="2" stroke-miterlimit="10"/>
<path d="M230.322 68.9905C241.228 68.9905 250.068 59.667 250.068 48.166C250.068 36.6649 241.228 27.3414 230.322 27.3414C219.417 27.3414 210.576 36.6649 210.576 48.166C210.576 59.667 219.417 68.9905 230.322 68.9905Z" stroke="white" stroke-width="2" stroke-miterlimit="10"/>
<path d="M211.681 41.3281H249.037" stroke="white" stroke-width="2" stroke-miterlimit="10"/>
<path d="M211.681 55.0039H249.037" stroke="white" stroke-width="2" stroke-miterlimit="10"/>
<path d="M217.428 48.166C217.428 49.2538 216.618 50.1863 215.586 50.1863C214.555 50.1863 213.67 49.3315 213.67 48.2437C213.67 47.1558 214.481 46.2234 215.512 46.2234C215.512 46.2234 215.512 46.2234 215.586 46.2234C216.544 46.2234 217.428 47.0781 217.428 48.166Z" stroke="white" stroke-width="2" stroke-miterlimit="10"/>
<path d="M227.301 48.166C227.301 49.2538 226.491 50.1863 225.459 50.1863C224.428 50.1863 223.543 49.3315 223.543 48.2437C223.543 47.1558 224.354 46.2234 225.385 46.2234C226.417 46.1457 227.301 47.0781 227.301 48.166Z" stroke="white" stroke-width="2" stroke-miterlimit="10"/>
<path d="M237.174 48.166C237.174 49.2538 236.364 50.1863 235.332 50.1863C234.301 50.1863 233.417 49.3315 233.417 48.2437C233.417 47.1558 234.227 46.2234 235.258 46.2234C236.364 46.1457 237.174 47.0781 237.174 48.166Z" stroke="white" stroke-width="2" stroke-miterlimit="10"/>
<path d="M247.047 48.166C247.047 49.2538 246.237 50.1863 245.205 50.1863C244.174 50.1863 243.29 49.3315 243.29 48.2437C243.29 47.1558 244.1 46.2234 245.132 46.2234C246.237 46.1457 247.047 47.0781 247.047 48.166Z" stroke="white" stroke-width="2" stroke-miterlimit="10"/>
<path d="M270.846 11.49V14.2873V16.3076V24.3111" stroke="white" stroke-width="2" stroke-miterlimit="10"/>
<path d="M276.445 9.85815L270.846 14.9866L265.32 9.85815" stroke="white" stroke-width="2" stroke-miterlimit="10"/>
<path d="M275.046 7.6825L270.846 11.49L266.72 7.6825" stroke="white" stroke-width="2" stroke-miterlimit="10"/>
<path d="M260.31 17.9393L262.594 19.2603L264.288 20.3481L270.846 24.311" stroke="white" stroke-width="2" stroke-miterlimit="10"/>
<path d="M261.783 12.0339L263.183 19.6489L256.184 22.2131" stroke="white" stroke-width="2" stroke-miterlimit="10"/>
<path d="M259.278 12.1893L260.31 17.9394L255.078 19.8043" stroke="white" stroke-width="2" stroke-miterlimit="10"/>
<path d="M260.31 30.7604L262.594 29.3618L264.288 28.3516L270.846 24.311" stroke="white" stroke-width="2" stroke-miterlimit="10"/>
<path d="M256.184 26.4867L263.183 28.9732L261.783 36.6658" stroke="white" stroke-width="2" stroke-miterlimit="10"/>
<path d="M255.078 28.8955L260.31 30.7604L259.278 36.4327" stroke="white" stroke-width="2" stroke-miterlimit="10"/>
<path d="M270.846 37.2098V34.4125V32.3922V24.311" stroke="white" stroke-width="2" stroke-miterlimit="10"/>
<path d="M265.32 38.7639L270.846 33.7131L276.445 38.7639" stroke="white" stroke-width="2" stroke-miterlimit="10"/>
<path d="M266.72 41.0173L270.846 37.2098L275.046 41.0173" stroke="white" stroke-width="2" stroke-miterlimit="10"/>
<path d="M281.456 30.7604L279.172 29.3618L277.477 28.3516L270.846 24.311" stroke="white" stroke-width="2" stroke-miterlimit="10"/>
<path d="M279.982 36.6658L278.582 28.9732L285.508 26.4867" stroke="white" stroke-width="2" stroke-miterlimit="10"/>
<path d="M282.487 36.4327L281.456 30.7604L286.613 28.8955" stroke="white" stroke-width="2" stroke-miterlimit="10"/>
<path d="M281.456 17.9393L279.172 19.2603L277.477 20.3481L270.846 24.311" stroke="white" stroke-width="2" stroke-miterlimit="10"/>
<path d="M285.508 22.2131L278.582 19.6489L279.982 12.0339" stroke="white" stroke-width="2" stroke-miterlimit="10"/>
<path d="M286.613 19.8043L281.456 17.9394L282.487 12.1893" stroke="white" stroke-width="2" stroke-miterlimit="10"/>
<path d="M344.746 141.41V144.207V146.228V154.231" stroke="white" stroke-width="2" stroke-miterlimit="10"/>
<path d="M350.346 139.778L344.746 144.907L339.147 139.778" stroke="white" stroke-width="2" stroke-miterlimit="10"/>
<path d="M348.872 137.603L344.746 141.41L340.62 137.603" stroke="white" stroke-width="2" stroke-miterlimit="10"/>
<path d="M334.21 147.859L336.494 149.258L338.115 150.268L344.746 154.231" stroke="white" stroke-width="2" stroke-miterlimit="10"/>
<path d="M335.684 141.954L337.084 149.569L330.084 152.133" stroke="white" stroke-width="2" stroke-miterlimit="10"/>
<path d="M333.105 142.109L334.21 147.859L328.979 149.724" stroke="white" stroke-width="2" stroke-miterlimit="10"/>
<path d="M334.21 160.681L336.494 159.282L338.115 158.272L344.746 154.231" stroke="white" stroke-width="2" stroke-miterlimit="10"/>
<path d="M330.084 156.407L337.084 158.971L335.684 166.586" stroke="white" stroke-width="2" stroke-miterlimit="10"/>
<path d="M328.979 158.816L334.21 160.681L333.105 166.431" stroke="white" stroke-width="2" stroke-miterlimit="10"/>
<path d="M344.746 167.13V164.333V162.312V154.231" stroke="white" stroke-width="2" stroke-miterlimit="10"/>
<path d="M339.147 168.684L344.746 163.633L350.346 168.684" stroke="white" stroke-width="2" stroke-miterlimit="10"/>
<path d="M340.62 170.937L344.746 167.13L348.872 170.937" stroke="white" stroke-width="2" stroke-miterlimit="10"/>
<path d="M355.283 160.681L352.998 159.282L351.304 158.272L344.746 154.231" stroke="white" stroke-width="2" stroke-miterlimit="10"/>
<path d="M353.809 166.586L352.409 158.971L359.408 156.407" stroke="white" stroke-width="2" stroke-miterlimit="10"/>
<path d="M356.314 166.431L355.282 160.681L360.514 158.816" stroke="white" stroke-width="2" stroke-miterlimit="10"/>
<path d="M355.283 147.859L352.998 149.258L351.304 150.268L344.746 154.231" stroke="white" stroke-width="2" stroke-miterlimit="10"/>
<path d="M359.408 152.133L352.409 149.569L353.809 141.954" stroke="white" stroke-width="2" stroke-miterlimit="10"/>
<path d="M360.514 149.724L355.282 147.859L356.314 142.109" stroke="white" stroke-width="2" stroke-miterlimit="10"/>
<path d="M317.411 185.157V199.843" stroke="white" stroke-width="2" stroke-miterlimit="10"/>
<path d="M310.412 192.461H324.337" stroke="white" stroke-width="2" stroke-miterlimit="10"/>
<path d="M313.948 188.809L320.874 196.191" stroke="white" stroke-width="2" stroke-miterlimit="10"/>
<path d="M313.948 196.191L320.874 188.809" stroke="white" stroke-width="2" stroke-miterlimit="10"/>
<path d="M315.938 112.738V127.423" stroke="white" stroke-width="2" stroke-miterlimit="10"/>
<path d="M308.938 120.042H322.863" stroke="white" stroke-width="2" stroke-miterlimit="10"/>
<path d="M312.475 116.39L319.401 123.694" stroke="white" stroke-width="2" stroke-miterlimit="10"/>
<path d="M312.475 123.694L319.401 116.39" stroke="white" stroke-width="2" stroke-miterlimit="10"/>
<path d="M322.864 39.5409L325.811 44.8247H331.558L328.684 50.1086L331.558 55.4701H325.811L322.864 60.7539L319.99 55.4701H314.169L317.117 50.1086L314.169 44.8247H319.99L322.864 39.5409Z" stroke="white" stroke-width="2" stroke-miterlimit="10"/>
<path d="M322.864 31.4597V35.5003V38.453V50.1085" stroke="white" stroke-width="2" stroke-miterlimit="10"/>
<path d="M329.126 32.1591L322.863 37.8314L316.674 32.1591" stroke="white" stroke-width="2" stroke-miterlimit="10"/>
<path d="M307.538 40.7842L310.854 42.8045L313.285 44.2808L322.863 50.1086" stroke="white" stroke-width="2" stroke-miterlimit="10"/>
<path d="M311.222 35.5004L312.77 43.97L305.033 46.8451" stroke="white" stroke-width="2" stroke-miterlimit="10"/>
<path d="M307.538 59.5106L310.854 57.4903L313.285 56.014L322.863 50.1085" stroke="white" stroke-width="2" stroke-miterlimit="10"/>
<path d="M305.033 53.4498L312.77 56.3249L311.222 64.7945" stroke="white" stroke-width="2" stroke-miterlimit="10"/>
<path d="M322.864 68.835V64.7945V61.8417V50.1085" stroke="white" stroke-width="2" stroke-miterlimit="10"/>
<path d="M316.674 68.1357L322.863 62.4634L329.126 68.1357" stroke="white" stroke-width="2" stroke-miterlimit="10"/>
<path d="M338.263 59.5106L334.947 57.4903L332.516 56.014L322.864 50.1085" stroke="white" stroke-width="2" stroke-miterlimit="10"/>
<path d="M334.579 64.7945L333.031 56.3249L340.768 53.4498" stroke="white" stroke-width="2" stroke-miterlimit="10"/>
<path d="M338.263 40.7842L334.947 42.8045L332.516 44.2808L322.864 50.1086" stroke="white" stroke-width="2" stroke-miterlimit="10"/>
<path d="M340.768 46.8451L333.031 43.97L334.579 35.5004" stroke="white" stroke-width="2" stroke-miterlimit="10"/>
<path d="M180.588 88.9603C171.452 94.1665 167.989 106.288 172.999 115.923C177.936 125.559 189.43 129.211 198.566 123.927C207.702 118.721 211.165 106.599 206.155 96.9638C204.534 93.8556 202.176 91.2137 199.303 89.4265" stroke="white" stroke-width="2" stroke-miterlimit="10"/>
<path d="M198.787 84.6089C200.555 82.3555 201.513 79.4805 201.513 76.6055C201.513 75.0514 201.219 73.5751 200.703 72.1764" stroke="white" stroke-width="2" stroke-miterlimit="10"/>
<path d="M201.882 69.4567L199.45 68.3689L199.745 66.7371L200.482 62.8519C200.777 61.4533 200.04 60.0546 198.787 59.5884L193.409 57.2573C192.156 56.7133 190.756 57.1796 190.019 58.4228L188.03 61.7641L187.22 63.2404L184.788 62.1526C184.125 61.8418 183.315 62.2303 183.02 62.9296L182.946 63.0073C182.651 63.7067 183.02 64.5614 183.683 64.8722L200.777 72.254C201.44 72.5649 202.25 72.1763 202.545 71.477L202.619 71.3216C202.913 70.6223 202.619 69.7675 201.882 69.4567Z" stroke="white" stroke-width="2" stroke-miterlimit="10"/>
<path d="M205.492 96.8084L214.923 90.8252L217.723 87.4062" stroke="white" stroke-width="2" stroke-miterlimit="10"/>
<path d="M214.923 90.8252L219.86 92.2239" stroke="white" stroke-width="2" stroke-miterlimit="10"/>
<path d="M208.145 95.0212L209.25 91.5245" stroke="white" stroke-width="2" stroke-miterlimit="10"/>
<path d="M193.998 204.738C200.224 204.738 205.271 199.416 205.271 192.85C205.271 186.284 200.224 180.961 193.998 180.961C187.772 180.961 182.725 186.284 182.725 192.85C182.725 199.416 187.772 204.738 193.998 204.738Z" stroke="white" stroke-width="2" stroke-miterlimit="10"/>
<path d="M201.071 146.383C202.618 146.383 203.871 145.061 203.871 143.43C203.871 141.8 202.618 140.478 201.071 140.478C199.525 140.478 198.271 141.8 198.271 143.43C198.271 145.061 199.525 146.383 201.071 146.383Z" stroke="white" stroke-width="2" stroke-miterlimit="10"/>
<path d="M364.64 5.66223V20.1151" stroke="white" stroke-width="2" stroke-miterlimit="10"/>
<path d="M357.788 12.8887H371.492" stroke="white" stroke-width="2" stroke-miterlimit="10"/>
<path d="M361.25 9.31421L368.029 16.5406" stroke="white" stroke-width="2" stroke-miterlimit="10"/>
<path d="M361.25 16.5406L368.029 9.31421" stroke="white" stroke-width="2" stroke-miterlimit="10"/>
<path d="M364.64 24.7773C370.866 24.7773 375.913 19.4545 375.913 12.8886C375.913 6.32272 370.866 1 364.64 1C358.414 1 353.367 6.32272 353.367 12.8886C353.367 19.4545 358.414 24.7773 364.64 24.7773Z" stroke="white" stroke-width="2" stroke-miterlimit="10"/>
<path d="M317.411 5.11829V19.8819" stroke="white" stroke-width="2" stroke-miterlimit="10"/>
<path d="M310.412 12.5001H324.337" stroke="white" stroke-width="2" stroke-miterlimit="10"/>
<path d="M313.948 8.84802L320.874 16.1521" stroke="white" stroke-width="2" stroke-miterlimit="10"/>
<path d="M313.948 16.1521L320.874 8.84802" stroke="white" stroke-width="2" stroke-miterlimit="10"/>
<path d="M193.998 24.7773C200.224 24.7773 205.271 19.4545 205.271 12.8886C205.271 6.32272 200.224 1 193.998 1C187.772 1 182.725 6.32272 182.725 12.8886C182.725 19.4545 187.772 24.7773 193.998 24.7773Z" stroke="white" stroke-width="2" stroke-miterlimit="10"/>
<path d="M100.204 371.49V374.287V376.308V384.311" stroke="white" stroke-width="2" stroke-miterlimit="10"/>
<path d="M105.804 369.858L100.204 374.987L94.6045 369.858" stroke="white" stroke-width="2" stroke-miterlimit="10"/>
<path d="M104.33 367.682L100.204 371.49L96.0781 367.682" stroke="white" stroke-width="2" stroke-miterlimit="10"/>
<path d="M91.1416 372.034L92.5415 379.649L85.542 382.213" stroke="white" stroke-width="2" stroke-miterlimit="10"/>
<path d="M88.5628 372.189L89.668 377.939L84.4368 379.804" stroke="white" stroke-width="2" stroke-miterlimit="10"/>
<path d="M114.866 382.213L107.867 379.649L109.267 372.034" stroke="white" stroke-width="2" stroke-miterlimit="10"/>
<path d="M115.971 379.804L110.74 377.939L111.772 372.189" stroke="white" stroke-width="2" stroke-miterlimit="10"/>
<path d="M84.805 342.973L78.616 335.202C79.2791 334.969 80.0159 334.892 80.7527 334.892C84.363 334.892 84.363 336.679 87.8996 336.679L80.0159 324.169L76.3319 318.341C77.0687 318.03 77.8792 317.875 78.616 317.875C81.7105 317.875 81.7105 319.662 84.7314 319.662L66.3852 285.705L47.9653 319.662C51.0598 319.662 51.0598 317.875 54.0807 317.875C54.8912 317.875 55.7016 318.03 56.3647 318.341L56.2911 318.496L44.7971 336.601C48.4074 336.601 48.4074 334.814 51.944 334.814C52.6808 334.814 53.3439 334.892 54.0807 335.125L53.4912 335.824L39.4185 353.54C43.9129 353.54 43.9129 351.753 48.4074 351.753C52.9018 351.753 52.9018 353.54 57.3963 353.54C59.1646 353.54 61.0066 353.152 62.6275 352.375V363.72H70.0691V352.53C71.6901 353.307 73.5321 353.696 75.3004 353.696C79.7948 353.696 79.7948 351.909 84.2893 351.909C88.7837 351.909 88.7837 353.696 93.2782 353.696L84.805 342.973Z" stroke="white" stroke-width="2" stroke-miterlimit="10"/>
<path d="M180.588 268.999C171.378 274.205 167.989 286.327 172.926 295.962C177.862 305.675 189.356 309.25 198.493 304.043C207.702 298.837 211.092 286.716 206.155 277.08C204.534 273.972 202.176 271.33 199.303 269.465" stroke="white" stroke-width="2" stroke-miterlimit="10"/>
<path d="M184.493 245.144C178.525 248.019 175.873 255.556 178.673 261.85C179.262 263.171 180.073 264.415 181.03 265.425" stroke="white" stroke-width="2" stroke-miterlimit="10"/>
<path d="M198.787 264.648C200.556 262.394 201.513 259.597 201.513 256.644C201.513 255.09 201.219 253.536 200.703 252.137" stroke="white" stroke-width="2" stroke-miterlimit="10"/>
<path d="M195.545 256.256C195.545 257.111 194.882 257.732 194.146 257.732C193.409 257.732 192.746 257.033 192.746 256.256C192.746 255.479 193.409 254.779 194.146 254.779C194.882 254.779 195.472 255.401 195.545 256.256Z" fill="white"/>
<path d="M186.409 256.256C186.409 257.111 185.746 257.732 185.009 257.732C184.273 257.732 183.609 257.033 183.609 256.256C183.609 255.479 184.273 254.779 185.009 254.779C185.746 254.779 186.409 255.401 186.409 256.256Z" fill="white"/>
<path d="M191.493 259.364C191.493 260.219 190.83 260.996 189.946 260.996C189.135 260.996 188.398 260.296 188.398 259.364C188.398 258.509 189.062 257.732 189.946 257.732C190.83 257.732 191.493 258.432 191.493 259.364Z" fill="white"/>
<path d="M201.882 249.418L199.45 248.408L199.745 246.698L200.482 242.813C200.777 241.414 200.04 240.016 198.787 239.55L193.409 237.218C192.156 236.675 190.756 237.141 190.019 238.384L188.03 241.725L187.22 243.202L184.788 242.114C184.125 241.803 183.315 242.191 183.02 242.891L182.946 243.046C182.651 243.746 183.02 244.6 183.683 244.911L200.777 252.215C201.44 252.526 202.25 252.137 202.545 251.438L202.619 251.283C202.913 250.583 202.545 249.729 201.882 249.418Z" stroke="white" stroke-width="2" stroke-miterlimit="10"/>
<path d="M191.125 278.634C191.125 279.567 190.388 280.344 189.504 280.344C188.62 280.344 187.883 279.567 187.883 278.634C187.883 277.702 188.62 276.925 189.504 276.925C190.388 276.925 191.125 277.624 191.125 278.634Z" fill="white"/>
<path d="M191.125 286.482C191.125 287.415 190.388 288.192 189.504 288.192C188.62 288.192 187.883 287.415 187.883 286.482C187.883 285.55 188.62 284.773 189.504 284.773C190.388 284.773 191.125 285.55 191.125 286.482Z" fill="white"/>
<path d="M191.125 294.408C191.125 295.341 190.388 296.118 189.504 296.118C188.62 296.118 187.883 295.341 187.883 294.408C187.883 293.476 188.62 292.699 189.504 292.699C190.388 292.699 191.125 293.476 191.125 294.408Z" fill="white"/>
<path d="M205.492 276.847L214.923 270.786L217.723 267.367" stroke="white" stroke-width="2" stroke-miterlimit="10"/>
<path d="M214.923 270.786L219.86 272.185" stroke="white" stroke-width="2" stroke-miterlimit="10"/>
<path d="M208.145 274.982L209.25 271.563" stroke="white" stroke-width="2" stroke-miterlimit="10"/>
<path d="M173.589 276.847L164.158 270.786L161.358 267.367" stroke="white" stroke-width="2" stroke-miterlimit="10"/>
<path d="M164.158 270.786L159.221 272.185" stroke="white" stroke-width="2" stroke-miterlimit="10"/>
<path d="M170.937 274.982L169.831 271.563" stroke="white" stroke-width="2" stroke-miterlimit="10"/>
<path d="M197.977 281.121C198.935 280.266 199.229 279.101 199.156 276.847C198.861 274.516 198.345 272.263 197.608 270.087C198.198 270.087 198.64 270.087 198.787 270.009C199.745 269.854 199.45 268.144 199.377 267.523C199.303 266.901 199.671 266.28 199.598 265.269C199.524 264.259 196.724 264.026 192.746 264.026C190.167 264.026 187.588 264.259 185.083 264.648C182.946 264.959 180.662 265.114 180.662 266.202C180.662 267.29 180.073 268.3 181.03 269.31C181.62 269.932 187.514 270.087 192.377 270.165C192.672 271.641 193.04 274.516 192.672 276.303C192.23 278.401 191.198 279.8 191.272 280.888L197.977 281.121Z" stroke="white" stroke-width="2" stroke-miterlimit="10"/>
<path d="M87.826 255.634C92.3941 252.992 100.646 249.573 107.498 253.925C117.445 260.296 122.603 274.516 122.603 274.516C115.087 277.08 103.151 276.769 103.151 276.769C103.151 276.769 91.2153 277.08 83.7 274.516C84.4367 267.6 91.2153 262.161 90.6995 260.996C90.4785 260.452 89.5206 260.374 88.5628 260.529" stroke="white" stroke-width="2" stroke-miterlimit="10"/>
<path d="M125.624 278.79C125.771 282.053 125.034 283.452 125.034 283.452C116.34 287.026 89.9627 287.026 81.3422 283.452C81.3422 283.452 80.5318 281.976 80.7528 278.79C80.7528 277.08 81.4159 275.371 82.5211 274.128C82.8895 274.283 83.3316 274.438 83.7 274.594C91.2153 277.158 103.151 276.847 103.151 276.847C103.151 276.847 115.087 277.158 122.603 274.594C123.045 274.438 123.413 274.283 123.855 274.128C124.887 275.371 125.55 277.08 125.624 278.79Z" stroke="white" stroke-width="2" stroke-miterlimit="10"/>
<path d="M88.8574 258.665C88.8574 261.229 86.8681 263.327 84.4366 263.327C82.0052 263.327 80.0159 261.229 80.0159 258.665C80.0159 256.1 82.0052 254.002 84.4366 254.002C86.8681 254.002 88.8574 256.023 88.8574 258.665Z" stroke="white" stroke-width="2" stroke-miterlimit="10"/>
<path d="M124.445 326.422V351.753" stroke="white" stroke-width="2" stroke-miterlimit="10"/>
<path d="M112.435 339.088H136.381" stroke="white" stroke-width="2" stroke-miterlimit="10"/>
<path d="M118.477 332.794L130.339 345.382" stroke="white" stroke-width="2" stroke-miterlimit="10"/>
<path d="M118.477 345.382L130.339 332.794" stroke="white" stroke-width="2" stroke-miterlimit="10"/>
<path d="M124.445 315.31V310.493" stroke="white" stroke-width="2" stroke-miterlimit="10"/>
<path d="M128.055 318.652V315.466H120.761V318.652" stroke="white" stroke-width="2" stroke-miterlimit="10"/>
<path d="M124.445 359.834C135.309 359.834 144.117 350.546 144.117 339.088C144.117 327.629 135.309 318.341 124.445 318.341C113.58 318.341 104.772 327.629 104.772 339.088C104.772 350.546 113.58 359.834 124.445 359.834Z" stroke="white" stroke-width="2" stroke-miterlimit="10"/>
<path d="M193.998 365.662V380.115" stroke="white" stroke-width="2" stroke-miterlimit="10"/>
<path d="M187.072 372.889H200.85" stroke="white" stroke-width="2" stroke-miterlimit="10"/>
<path d="M190.535 369.314L197.387 376.463" stroke="white" stroke-width="2" stroke-miterlimit="10"/>
<path d="M190.535 376.463L197.387 369.314" stroke="white" stroke-width="2" stroke-miterlimit="10"/>
<path d="M193.998 359.29V356.493" stroke="white" stroke-width="2" stroke-miterlimit="10"/>
<path d="M196.061 361.233V359.368H191.935V361.233" stroke="white" stroke-width="2" stroke-miterlimit="10"/>
<path d="M193.998 384.777C200.224 384.777 205.271 379.455 205.271 372.889C205.271 366.323 200.224 361 193.998 361C187.772 361 182.725 366.323 182.725 372.889C182.725 379.455 187.772 384.777 193.998 384.777Z" stroke="white" stroke-width="2" stroke-miterlimit="10"/>
<path d="M140.065 268.533C140.065 270.165 138.812 271.486 137.265 271.486C135.718 271.486 134.465 270.165 134.465 268.533C134.465 266.901 135.718 265.58 137.265 265.58C138.738 265.58 140.065 266.901 140.065 268.533Z" stroke="white" stroke-width="2" stroke-miterlimit="10"/>
<path d="M194.072 225.33C195.618 225.33 196.872 224.008 196.872 222.377C196.872 220.746 195.618 219.424 194.072 219.424C192.525 219.424 191.272 220.746 191.272 222.377C191.272 224.008 192.525 225.33 194.072 225.33Z" stroke="white" stroke-width="2" stroke-miterlimit="10"/>
<path d="M110.74 240.016C110.74 241.647 109.488 242.968 107.94 242.968C106.393 242.968 105.141 241.647 105.141 240.016C105.141 238.384 106.393 237.063 107.94 237.063C109.488 237.063 110.74 238.384 110.74 240.016Z" stroke="white" stroke-width="2" stroke-miterlimit="10"/>
<path d="M201.071 326.422C202.618 326.422 203.871 325.1 203.871 323.469C203.871 321.838 202.618 320.516 201.071 320.516C199.525 320.516 198.271 321.838 198.271 323.469C198.271 325.1 199.525 326.422 201.071 326.422Z" stroke="white" stroke-width="2" stroke-miterlimit="10"/>
<path d="M101.972 307.695C101.972 309.327 100.72 310.648 99.1726 310.648C97.6254 310.648 96.3728 309.327 96.3728 307.695C96.3728 306.064 97.6254 304.743 99.1726 304.743C100.72 304.743 101.972 306.064 101.972 307.695Z" stroke="white" stroke-width="2" stroke-miterlimit="10"/>
<path d="M58.5752 274.438C60.1215 274.438 61.375 273.116 61.375 271.486C61.375 269.855 60.1215 268.533 58.5752 268.533C57.0289 268.533 55.7754 269.855 55.7754 271.486C55.7754 273.116 57.0289 274.438 58.5752 274.438Z" stroke="white" stroke-width="2" stroke-miterlimit="10"/>
<path d="M59.6804 204.428V199.532" stroke="white" stroke-width="2" stroke-miterlimit="10"/>
<path d="M56.0701 207.769V204.505H63.2907V207.769" stroke="white" stroke-width="2" stroke-miterlimit="10"/>
<path d="M59.6804 249.029C70.5859 249.029 79.4265 239.706 79.4265 228.205C79.4265 216.704 70.5859 207.38 59.6804 207.38C48.775 207.38 39.9343 216.704 39.9343 228.205C39.9343 239.706 48.775 249.029 59.6804 249.029Z" stroke="white" stroke-width="2" stroke-miterlimit="10"/>
<path d="M40.9658 221.289H78.3213" stroke="white" stroke-width="2" stroke-miterlimit="10"/>
<path d="M40.9658 235.043H78.3213" stroke="white" stroke-width="2" stroke-miterlimit="10"/>
<path d="M46.7127 228.127C46.7127 229.215 45.9023 230.147 44.8707 230.147C43.8392 230.147 42.9551 229.293 42.9551 228.205C42.9551 227.117 43.7656 226.185 44.7971 226.185C45.9023 226.185 46.7127 227.039 46.7127 228.127Z" stroke="white" stroke-width="2" stroke-miterlimit="10"/>
<path d="M56.6595 228.127C56.6595 229.215 55.849 230.147 54.8175 230.147C53.786 230.147 52.9019 229.293 52.9019 228.205C52.9019 227.117 53.7123 226.185 54.7438 226.185C55.7754 226.185 56.6595 227.039 56.6595 228.127Z" stroke="white" stroke-width="2" stroke-miterlimit="10"/>
<path d="M66.5326 228.127C66.5326 229.215 65.7221 230.147 64.6906 230.147C63.6591 230.147 62.7749 229.293 62.7749 228.205C62.7749 227.117 63.5854 226.185 64.6169 226.185C65.6484 226.185 66.4589 227.039 66.5326 228.127Z" stroke="white" stroke-width="2" stroke-miterlimit="10"/>
<path d="M76.4057 228.127C76.4057 229.215 75.5952 230.07 74.5637 230.07C73.5322 230.07 72.7217 229.215 72.7217 228.127C72.7217 227.039 73.5322 226.185 74.5637 226.185C75.5215 226.185 76.4057 227.039 76.4057 228.127Z" stroke="white" stroke-width="2" stroke-miterlimit="10"/>
<path d="M100.204 191.451V194.248V196.269V204.35" stroke="white" stroke-width="2" stroke-miterlimit="10"/>
<path d="M105.804 189.897L100.204 195.025L94.6045 189.897" stroke="white" stroke-width="2" stroke-miterlimit="10"/>
<path d="M104.33 187.644L100.204 191.451L96.0781 187.644" stroke="white" stroke-width="2" stroke-miterlimit="10"/>
<path d="M89.668 197.901L91.952 199.299L93.573 200.309L100.204 204.35" stroke="white" stroke-width="2" stroke-miterlimit="10"/>
<path d="M91.1416 191.995L92.5415 199.688L85.542 202.174" stroke="white" stroke-width="2" stroke-miterlimit="10"/>
<path d="M88.5628 192.228L89.668 197.901L84.4368 199.765" stroke="white" stroke-width="2" stroke-miterlimit="10"/>
<path d="M89.668 210.799L91.952 209.401L93.573 208.39L100.204 204.35" stroke="white" stroke-width="2" stroke-miterlimit="10"/>
<path d="M85.542 206.448L92.5415 209.012L91.1416 216.627" stroke="white" stroke-width="2" stroke-miterlimit="10"/>
<path d="M84.4368 208.857L89.668 210.799L88.5628 216.472" stroke="white" stroke-width="2" stroke-miterlimit="10"/>
<path d="M100.204 217.171V214.374V212.353V204.35" stroke="white" stroke-width="2" stroke-miterlimit="10"/>
<path d="M94.6045 218.803L100.204 213.674L105.804 218.803" stroke="white" stroke-width="2" stroke-miterlimit="10"/>
<path d="M96.0781 220.978L100.204 217.171L104.33 220.978" stroke="white" stroke-width="2" stroke-miterlimit="10"/>
<path d="M110.74 210.799L108.456 209.401L106.762 208.39L100.204 204.35" stroke="white" stroke-width="2" stroke-miterlimit="10"/>
<path d="M109.267 216.627L107.867 209.012L114.866 206.448" stroke="white" stroke-width="2" stroke-miterlimit="10"/>
<path d="M111.772 216.472L110.74 210.799L115.971 208.857" stroke="white" stroke-width="2" stroke-miterlimit="10"/>
<path d="M110.74 197.901L108.456 199.299L106.762 200.309L100.204 204.35" stroke="white" stroke-width="2" stroke-miterlimit="10"/>
<path d="M114.866 202.174L107.867 199.688L109.267 191.995" stroke="white" stroke-width="2" stroke-miterlimit="10"/>
<path d="M115.971 199.765L110.74 197.901L111.772 192.228" stroke="white" stroke-width="2" stroke-miterlimit="10"/>
<path d="M174.031 321.371V324.169V326.189V334.27" stroke="white" stroke-width="2" stroke-miterlimit="10"/>
<path d="M179.631 319.817L174.031 324.946L168.505 319.817" stroke="white" stroke-width="2" stroke-miterlimit="10"/>
<path d="M178.231 317.564L174.031 321.371L169.905 317.564" stroke="white" stroke-width="2" stroke-miterlimit="10"/>
<path d="M163.495 327.821L165.779 329.219L167.474 330.229L174.031 334.27" stroke="white" stroke-width="2" stroke-miterlimit="10"/>
<path d="M164.968 321.915L166.368 329.608L159.442 332.094" stroke="white" stroke-width="2" stroke-miterlimit="10"/>
<path d="M162.463 322.148L163.495 327.821L158.264 329.763" stroke="white" stroke-width="2" stroke-miterlimit="10"/>
<path d="M163.495 340.719L165.779 339.321L167.474 338.311L174.031 334.27" stroke="white" stroke-width="2" stroke-miterlimit="10"/>
<path d="M159.442 336.368L166.368 338.932L164.968 346.547" stroke="white" stroke-width="2" stroke-miterlimit="10"/>
<path d="M158.264 338.777L163.495 340.719L162.463 346.392" stroke="white" stroke-width="2" stroke-miterlimit="10"/>
<path d="M174.031 347.091V344.371V342.273V334.27" stroke="white" stroke-width="2" stroke-miterlimit="10"/>
<path d="M168.505 348.723L174.031 343.594L179.631 348.723" stroke="white" stroke-width="2" stroke-miterlimit="10"/>
<path d="M169.905 350.899L174.031 347.091L178.231 350.899" stroke="white" stroke-width="2" stroke-miterlimit="10"/>
<path d="M184.641 340.719L182.357 339.321L180.662 338.311L174.031 334.27" stroke="white" stroke-width="2" stroke-miterlimit="10"/>
<path d="M183.167 346.547L181.767 338.932L188.693 336.368" stroke="white" stroke-width="2" stroke-miterlimit="10"/>
<path d="M185.672 346.392L184.641 340.719L189.798 338.777" stroke="white" stroke-width="2" stroke-miterlimit="10"/>
<path d="M184.641 327.821L182.357 329.219L180.662 330.229L174.031 334.27" stroke="white" stroke-width="2" stroke-miterlimit="10"/>
<path d="M188.693 332.094L181.767 329.608L183.167 321.915" stroke="white" stroke-width="2" stroke-miterlimit="10"/>
<path d="M189.798 329.763L184.641 327.821L185.672 322.148" stroke="white" stroke-width="2" stroke-miterlimit="10"/>
<path d="M146.696 365.118V379.882" stroke="white" stroke-width="2" stroke-miterlimit="10"/>
<path d="M139.696 372.5H153.695" stroke="white" stroke-width="2" stroke-miterlimit="10"/>
<path d="M143.233 368.848L150.159 376.152" stroke="white" stroke-width="2" stroke-miterlimit="10"/>
<path d="M143.233 376.152L150.159 368.848" stroke="white" stroke-width="2" stroke-miterlimit="10"/>
<path d="M145.222 292.699V307.462" stroke="white" stroke-width="2" stroke-miterlimit="10"/>
<path d="M138.223 300.08H152.222" stroke="white" stroke-width="2" stroke-miterlimit="10"/>
<path d="M141.759 296.428L148.685 303.733" stroke="white" stroke-width="2" stroke-miterlimit="10"/>
<path d="M141.759 303.733L148.685 296.428" stroke="white" stroke-width="2" stroke-miterlimit="10"/>
<path d="M152.222 219.58L155.095 224.864H160.916L157.969 230.147L160.916 235.431H155.095L152.222 240.715L149.348 235.431H143.528L146.401 230.147L143.528 224.864H149.348L152.222 219.58Z" stroke="white" stroke-width="2" stroke-miterlimit="10"/>
<path d="M152.222 211.421V215.461V218.414V230.147" stroke="white" stroke-width="2" stroke-miterlimit="10"/>
<path d="M158.411 212.12L152.222 217.87L146.033 212.12" stroke="white" stroke-width="2" stroke-miterlimit="10"/>
<path d="M136.823 220.745L140.138 222.843L142.57 224.32L152.222 230.147" stroke="white" stroke-width="2" stroke-miterlimit="10"/>
<path d="M140.507 215.461L142.128 224.009L134.318 226.806" stroke="white" stroke-width="2" stroke-miterlimit="10"/>
<path d="M136.823 239.472L140.138 237.451L142.57 235.975L152.222 230.147" stroke="white" stroke-width="2" stroke-miterlimit="10"/>
<path d="M134.318 233.489L142.128 236.286L140.507 244.833" stroke="white" stroke-width="2" stroke-miterlimit="10"/>
<path d="M152.222 248.874V244.833V241.881V230.147" stroke="white" stroke-width="2" stroke-miterlimit="10"/>
<path d="M146.033 248.175L152.222 242.425L158.411 248.175" stroke="white" stroke-width="2" stroke-miterlimit="10"/>
<path d="M167.621 239.472L164.232 237.451L161.8 235.975L152.222 230.147" stroke="white" stroke-width="2" stroke-miterlimit="10"/>
<path d="M163.863 244.833L162.316 236.286L170.126 233.489" stroke="white" stroke-width="2" stroke-miterlimit="10"/>
<path d="M167.621 220.745L164.232 222.843L161.8 224.32L152.222 230.147" stroke="white" stroke-width="2" stroke-miterlimit="10"/>
<path d="M170.126 226.806L162.316 224.009L163.863 215.461" stroke="white" stroke-width="2" stroke-miterlimit="10"/>
<path d="M9.87305 268.999C6.77852 270.786 4.27341 273.351 2.5051 276.614C0.810473 279.645 0 283.063 0 286.56C0 297.516 8.47314 306.452 18.862 306.452C29.2508 306.452 37.7239 297.594 37.7239 286.56C37.7239 283.063 36.8398 279.645 35.2188 276.614C33.5979 273.661 31.3875 271.253 28.5877 269.465" stroke="white" stroke-width="2" stroke-miterlimit="10"/>
<path d="M28.0718 264.648C29.8401 262.394 30.7979 259.597 30.7979 256.644C30.7979 255.09 30.5032 253.536 29.9874 252.137" stroke="white" stroke-width="2" stroke-miterlimit="10"/>
<path d="M31.1663 249.418L28.7349 248.408L29.0296 246.698L29.7664 242.813C30.0611 241.414 29.3243 240.016 28.0718 239.55L22.7669 237.218C21.5143 236.675 20.1144 237.141 19.3776 238.384L17.3883 241.725L16.5778 243.202L14.1464 242.114C13.4832 241.803 12.6728 242.191 12.3781 242.891L12.3044 243.046C12.0097 243.746 12.3781 244.6 13.0412 244.911L30.1348 252.215C30.7979 252.448 31.5347 252.137 31.8294 251.438L31.9031 251.283C32.1978 250.583 31.9031 249.729 31.1663 249.418Z" stroke="white" stroke-width="2" stroke-miterlimit="10"/>
<path d="M34.7766 276.847L44.2076 270.786L47.0074 267.367" stroke="white" stroke-width="2" stroke-miterlimit="10"/>
<path d="M44.2078 270.786L49.218 272.185" stroke="white" stroke-width="2" stroke-miterlimit="10"/>
<path d="M37.4292 274.982L38.6081 271.563" stroke="white" stroke-width="2" stroke-miterlimit="10"/>
<path d="M23.2827 384.777C29.5086 384.777 34.5557 379.455 34.5557 372.889C34.5557 366.323 29.5086 361 23.2827 361C17.0568 361 12.0098 366.323 12.0098 372.889C12.0098 379.455 17.0568 384.777 23.2827 384.777Z" stroke="white" stroke-width="2" stroke-miterlimit="10"/>
<path d="M30.4297 326.422C31.976 326.422 33.2295 325.1 33.2295 323.469C33.2295 321.838 31.976 320.516 30.4297 320.516C28.8834 320.516 27.6299 321.838 27.6299 323.469C27.6299 325.1 28.8834 326.422 30.4297 326.422Z" stroke="white" stroke-width="2" stroke-miterlimit="10"/>
<path d="M193.998 185.623V200.154" stroke="white" stroke-width="2" stroke-miterlimit="10"/>
<path d="M187.072 192.927H200.85" stroke="white" stroke-width="2" stroke-miterlimit="10"/>
<path d="M190.535 189.275L197.387 196.502" stroke="white" stroke-width="2" stroke-miterlimit="10"/>
<path d="M190.535 196.502L197.387 189.275" stroke="white" stroke-width="2" stroke-miterlimit="10"/>
<path d="M193.998 204.816C200.224 204.816 205.271 199.493 205.271 192.927C205.271 186.362 200.224 181.039 193.998 181.039C187.772 181.039 182.725 186.362 182.725 192.927C182.725 199.493 187.772 204.816 193.998 204.816Z" stroke="white" stroke-width="2" stroke-miterlimit="10"/>
<path d="M146.696 185.157V199.843" stroke="white" stroke-width="2" stroke-miterlimit="10"/>
<path d="M139.696 192.461H153.695" stroke="white" stroke-width="2" stroke-miterlimit="10"/>
<path d="M143.233 188.809L150.159 196.191" stroke="white" stroke-width="2" stroke-miterlimit="10"/>
<path d="M143.233 196.191L150.159 188.809" stroke="white" stroke-width="2" stroke-miterlimit="10"/>
<path d="M23.2827 204.816C29.5086 204.816 34.5557 199.493 34.5557 192.927C34.5557 186.362 29.5086 181.039 23.2827 181.039C17.0568 181.039 12.0098 186.362 12.0098 192.927C12.0098 199.493 17.0568 204.816 23.2827 204.816Z" stroke="white" stroke-width="2" stroke-miterlimit="10"/>
<path d="M270.846 371.49V374.287V376.308V384.311" stroke="white" stroke-width="2" stroke-miterlimit="10"/>
<path d="M276.445 369.858L270.846 374.987L265.32 369.858" stroke="white" stroke-width="2" stroke-miterlimit="10"/>
<path d="M275.046 367.682L270.846 371.49L266.72 367.682" stroke="white" stroke-width="2" stroke-miterlimit="10"/>
<path d="M261.783 372.034L263.183 379.649L256.184 382.213" stroke="white" stroke-width="2" stroke-miterlimit="10"/>
<path d="M259.278 372.189L260.31 377.939L255.078 379.804" stroke="white" stroke-width="2" stroke-miterlimit="10"/>
<path d="M285.508 382.213L278.582 379.649L279.982 372.034" stroke="white" stroke-width="2" stroke-miterlimit="10"/>
<path d="M286.613 379.804L281.456 377.939L282.487 372.189" stroke="white" stroke-width="2" stroke-miterlimit="10"/>
<path d="M255.447 342.973L249.258 335.202C249.921 334.969 250.658 334.892 251.394 334.892C255.005 334.892 255.005 336.679 258.615 336.679L250.731 324.246L247.047 318.419C247.784 318.108 248.595 317.875 249.405 317.952C252.5 317.952 252.5 319.739 255.52 319.739L237.101 285.783L218.681 319.739C221.775 319.739 221.775 317.952 224.796 317.952C225.607 317.952 226.417 318.108 227.154 318.419L227.08 318.574L215.586 336.679C219.196 336.679 219.196 334.892 222.807 334.892C223.544 334.892 224.207 334.969 224.943 335.202L224.354 335.902L210.281 353.696C214.776 353.696 214.776 351.909 219.27 351.909C223.765 351.909 223.765 353.696 228.259 353.696C230.027 353.696 231.869 353.307 233.49 352.53V363.72H240.932V352.53C242.553 353.307 244.395 353.696 246.163 353.696C250.658 353.696 250.658 351.909 255.152 351.909C259.647 351.909 259.647 353.696 264.141 353.696L255.447 342.973Z" stroke="white" stroke-width="2" stroke-miterlimit="10"/>
<path d="M351.23 268.999C342.02 274.205 338.631 286.327 343.568 295.962C348.504 305.675 359.998 309.25 369.134 304.043C378.344 298.837 381.734 286.716 376.797 277.08C375.176 273.972 372.818 271.33 369.945 269.465" stroke="white" stroke-width="2" stroke-miterlimit="10"/>
<path d="M355.209 245.144C349.241 248.019 346.588 255.556 349.388 261.85C349.977 263.171 350.788 264.415 351.746 265.425" stroke="white" stroke-width="2" stroke-miterlimit="10"/>
<path d="M369.429 264.648C372.155 261.151 372.892 256.411 371.345 252.137" stroke="white" stroke-width="2" stroke-miterlimit="10"/>
<path d="M366.187 256.256C366.187 257.111 365.524 257.732 364.787 257.732C364.05 257.732 363.387 257.033 363.387 256.256C363.387 255.479 364.05 254.779 364.787 254.779C365.524 254.779 366.187 255.401 366.187 256.256Z" fill="white"/>
<path d="M357.051 256.256C357.051 257.111 356.388 257.732 355.651 257.732C354.84 257.732 354.251 257.033 354.251 256.256C354.251 255.401 354.914 254.779 355.651 254.779C356.461 254.779 357.051 255.401 357.051 256.256Z" fill="white"/>
<path d="M362.208 259.364C362.208 260.219 361.545 260.996 360.661 260.996C359.851 260.996 359.114 260.296 359.114 259.364C359.114 258.509 359.777 257.732 360.661 257.732C361.545 257.732 362.208 258.432 362.208 259.364Z" fill="white"/>
<path d="M372.523 249.418L370.092 248.408L370.46 246.698L371.197 242.813C371.492 241.414 370.755 240.016 369.503 239.55L364.124 237.218C362.871 236.675 361.472 237.141 360.735 238.384L358.745 241.725L357.935 243.202L355.504 242.114C354.84 241.803 354.03 242.191 353.735 242.891L353.662 243.046C353.367 243.746 353.735 244.6 354.398 244.911L371.492 252.215C372.155 252.526 372.966 252.137 373.26 251.438L373.334 251.283C373.555 250.583 373.26 249.729 372.523 249.418Z" stroke="white" stroke-width="2" stroke-miterlimit="10"/>
<path d="M361.766 278.634C361.766 279.567 361.03 280.344 360.145 280.344C359.261 280.344 358.524 279.567 358.524 278.634C358.524 277.702 359.261 276.925 360.145 276.925C361.03 276.925 361.766 277.624 361.766 278.634Z" fill="white"/>
<path d="M361.766 286.482C361.766 287.415 361.03 288.192 360.145 288.192C359.261 288.192 358.524 287.415 358.524 286.482C358.524 285.55 359.261 284.773 360.145 284.773C361.03 284.773 361.766 285.55 361.766 286.482Z" fill="white"/>
<path d="M361.766 294.408C361.766 295.341 361.03 296.118 360.145 296.118C359.261 296.118 358.524 295.341 358.524 294.408C358.524 293.476 359.261 292.699 360.145 292.699C361.03 292.699 361.766 293.476 361.766 294.408Z" fill="white"/>
<path d="M376.134 276.847L385.565 270.786L388.365 267.367" stroke="white" stroke-width="2" stroke-miterlimit="10"/>
<path d="M385.565 270.786L390.575 272.185" stroke="white" stroke-width="2" stroke-miterlimit="10"/>
<path d="M378.786 274.982L379.965 271.563" stroke="white" stroke-width="2" stroke-miterlimit="10"/>
<path d="M344.304 276.847L334.873 270.786L332.073 267.367" stroke="white" stroke-width="2" stroke-miterlimit="10"/>
<path d="M334.873 270.786L329.863 272.185" stroke="white" stroke-width="2" stroke-miterlimit="10"/>
<path d="M341.652 274.982L340.473 271.563" stroke="white" stroke-width="2" stroke-miterlimit="10"/>
<path d="M368.618 281.121C369.576 280.266 369.871 279.101 369.797 276.847C369.503 274.516 368.987 272.263 368.25 270.087C368.839 270.087 369.282 270.087 369.429 270.009C370.387 269.854 370.092 268.144 370.018 267.523C369.945 266.901 370.313 266.28 370.239 265.269C370.166 264.259 367.366 264.026 363.387 264.026C360.808 264.026 358.23 264.259 355.724 264.648C353.588 264.959 351.304 265.114 351.304 266.202C351.304 267.29 350.714 268.3 351.672 269.31C352.262 269.932 358.156 270.087 363.019 270.165C363.313 271.641 363.682 274.516 363.313 276.303C362.871 278.401 361.766 279.8 361.914 280.888L368.618 281.121Z" stroke="white" stroke-width="2" stroke-miterlimit="10"/>
<path d="M258.541 255.634C263.036 252.992 271.362 249.573 278.214 253.925C288.161 260.296 293.392 274.516 293.392 274.516C285.876 277.08 273.94 276.769 273.94 276.769C273.94 276.769 262.004 277.08 254.489 274.516C255.226 267.6 262.004 262.161 261.489 260.996C261.268 260.452 260.31 260.374 259.352 260.529" stroke="white" stroke-width="2" stroke-miterlimit="10"/>
<path d="M296.265 278.79C296.413 282.053 295.676 283.452 295.676 283.452C286.982 287.026 260.604 287.026 251.984 283.452C251.984 283.452 251.173 281.976 251.394 278.79C251.394 277.08 251.984 275.371 253.163 274.128C253.531 274.283 253.973 274.438 254.415 274.594C261.931 277.158 273.867 276.847 273.867 276.847C273.867 276.847 285.803 277.158 293.318 274.594C293.76 274.438 294.128 274.283 294.571 274.128C295.602 275.371 296.265 277.08 296.265 278.79Z" stroke="white" stroke-width="2" stroke-miterlimit="10"/>
<path d="M259.573 258.665C259.573 261.229 257.583 263.327 255.152 263.327C252.721 263.327 250.731 261.229 250.731 258.665C250.731 256.1 252.721 254.002 255.152 254.002C257.583 254.002 259.573 256.1 259.573 258.665Z" stroke="white" stroke-width="2" stroke-miterlimit="10"/>
<path d="M295.086 326.422V351.753" stroke="white" stroke-width="2" stroke-miterlimit="10"/>
<path d="M283.077 339.088H307.096" stroke="white" stroke-width="2" stroke-miterlimit="10"/>
<path d="M289.118 332.794L301.054 345.382" stroke="white" stroke-width="2" stroke-miterlimit="10"/>
<path d="M289.118 345.382L301.054 332.794" stroke="white" stroke-width="2" stroke-miterlimit="10"/>
<path d="M295.086 315.31V310.493" stroke="white" stroke-width="2" stroke-miterlimit="10"/>
<path d="M298.697 318.652V315.466H291.476V318.652" stroke="white" stroke-width="2" stroke-miterlimit="10"/>
<path d="M295.086 359.834C305.951 359.834 314.759 350.546 314.759 339.088C314.759 327.629 305.951 318.341 295.086 318.341C284.221 318.341 275.414 327.629 275.414 339.088C275.414 350.546 284.221 359.834 295.086 359.834Z" stroke="white" stroke-width="2" stroke-miterlimit="10"/>
<path d="M364.64 365.662V380.115" stroke="white" stroke-width="2" stroke-miterlimit="10"/>
<path d="M357.788 372.889H371.492" stroke="white" stroke-width="2" stroke-miterlimit="10"/>
<path d="M361.25 369.314L368.029 376.463" stroke="white" stroke-width="2" stroke-miterlimit="10"/>
<path d="M361.25 376.463L368.029 369.314" stroke="white" stroke-width="2" stroke-miterlimit="10"/>
<path d="M364.64 359.29V356.493" stroke="white" stroke-width="2" stroke-miterlimit="10"/>
<path d="M366.703 361.233V359.368H362.577V361.233" stroke="white" stroke-width="2" stroke-miterlimit="10"/>
<path d="M364.64 384.777C370.866 384.777 375.913 379.455 375.913 372.889C375.913 366.323 370.866 361 364.64 361C358.414 361 353.367 366.323 353.367 372.889C353.367 379.455 358.414 384.777 364.64 384.777Z" stroke="white" stroke-width="2" stroke-miterlimit="10"/>
<path d="M310.706 268.533C310.706 270.165 309.454 271.486 307.907 271.486C306.359 271.486 305.107 270.165 305.107 268.533C305.107 266.901 306.359 265.58 307.907 265.58C309.454 265.58 310.706 266.901 310.706 268.533Z" stroke="white" stroke-width="2" stroke-miterlimit="10"/>
<path d="M364.787 225.33C366.333 225.33 367.587 224.008 367.587 222.377C367.587 220.746 366.333 219.424 364.787 219.424C363.241 219.424 361.987 220.746 361.987 222.377C361.987 224.008 363.241 225.33 364.787 225.33Z" stroke="white" stroke-width="2" stroke-miterlimit="10"/>
<path d="M281.456 240.016C281.456 241.647 280.203 242.968 278.656 242.968C277.109 242.968 275.856 241.647 275.856 240.016C275.856 238.384 277.109 237.063 278.656 237.063C280.203 237.063 281.456 238.384 281.456 240.016Z" stroke="white" stroke-width="2" stroke-miterlimit="10"/>
<path d="M371.787 326.422C373.333 326.422 374.586 325.1 374.586 323.469C374.586 321.838 373.333 320.516 371.787 320.516C370.24 320.516 368.987 321.838 368.987 323.469C368.987 325.1 370.24 326.422 371.787 326.422Z" stroke="white" stroke-width="2" stroke-miterlimit="10"/>
<path d="M272.614 307.695C272.614 309.327 271.362 310.648 269.814 310.648C268.267 310.648 267.014 309.327 267.014 307.695C267.014 306.064 268.267 304.743 269.814 304.743C271.362 304.743 272.614 306.064 272.614 307.695Z" stroke="white" stroke-width="2" stroke-miterlimit="10"/>
<path d="M229.217 274.438C230.763 274.438 232.017 273.116 232.017 271.486C232.017 269.855 230.763 268.533 229.217 268.533C227.671 268.533 226.417 269.855 226.417 271.486C226.417 273.116 227.671 274.438 229.217 274.438Z" stroke="white" stroke-width="2" stroke-miterlimit="10"/>
<path d="M230.322 204.428V199.532" stroke="white" stroke-width="2" stroke-miterlimit="10"/>
<path d="M226.712 207.769V204.505H234.006V207.769" stroke="white" stroke-width="2" stroke-miterlimit="10"/>
<path d="M230.322 249.029C241.228 249.029 250.068 239.706 250.068 228.205C250.068 216.704 241.228 207.38 230.322 207.38C219.417 207.38 210.576 216.704 210.576 228.205C210.576 239.706 219.417 249.029 230.322 249.029Z" stroke="white" stroke-width="2" stroke-miterlimit="10"/>
<path d="M211.681 221.289H249.037" stroke="white" stroke-width="2" stroke-miterlimit="10"/>
<path d="M211.681 235.043H249.037" stroke="white" stroke-width="2" stroke-miterlimit="10"/>
<path d="M217.428 228.127C217.428 229.215 216.618 230.07 215.586 230.07C214.555 230.07 213.744 229.215 213.744 228.127C213.744 227.039 214.555 226.185 215.586 226.185C216.544 226.185 217.428 227.117 217.428 228.127Z" stroke="white" stroke-width="2" stroke-miterlimit="10"/>
<path d="M227.301 228.127C227.301 229.215 226.491 230.147 225.459 230.147C224.428 230.147 223.543 229.293 223.543 228.205C223.543 227.117 224.354 226.185 225.385 226.185C226.417 226.185 227.301 227.039 227.301 228.127Z" stroke="white" stroke-width="2" stroke-miterlimit="10"/>
<path d="M237.174 228.127C237.174 229.215 236.364 230.147 235.332 230.147C234.301 230.147 233.417 229.293 233.417 228.205C233.417 227.117 234.227 226.185 235.258 226.185C236.364 226.185 237.174 227.039 237.174 228.127Z" stroke="white" stroke-width="2" stroke-miterlimit="10"/>
<path d="M247.047 228.127C247.047 229.215 246.237 230.147 245.205 230.147C244.174 230.147 243.29 229.293 243.29 228.205C243.29 227.117 244.1 226.185 245.132 226.185C246.237 226.185 247.047 227.039 247.047 228.127Z" stroke="white" stroke-width="2" stroke-miterlimit="10"/>
<path d="M270.846 191.451V194.248V196.269V204.35" stroke="white" stroke-width="2" stroke-miterlimit="10"/>
<path d="M276.445 189.897L270.846 195.025L265.32 189.897" stroke="white" stroke-width="2" stroke-miterlimit="10"/>
<path d="M275.046 187.644L270.846 191.451L266.72 187.644" stroke="white" stroke-width="2" stroke-miterlimit="10"/>
<path d="M260.31 197.901L262.594 199.299L264.288 200.309L270.846 204.35" stroke="white" stroke-width="2" stroke-miterlimit="10"/>
<path d="M261.783 191.995L263.183 199.688L256.184 202.174" stroke="white" stroke-width="2" stroke-miterlimit="10"/>
<path d="M259.278 192.228L260.31 197.901L255.078 199.765" stroke="white" stroke-width="2" stroke-miterlimit="10"/>
<path d="M260.31 210.799L262.594 209.401L264.288 208.39L270.846 204.35" stroke="white" stroke-width="2" stroke-miterlimit="10"/>
<path d="M256.184 206.448L263.183 209.012L261.783 216.627" stroke="white" stroke-width="2" stroke-miterlimit="10"/>
<path d="M255.078 208.857L260.31 210.799L259.278 216.472" stroke="white" stroke-width="2" stroke-miterlimit="10"/>
<path d="M270.846 217.171V214.374V212.353V204.35" stroke="white" stroke-width="2" stroke-miterlimit="10"/>
<path d="M265.32 218.803L270.846 213.674L276.445 218.803" stroke="white" stroke-width="2" stroke-miterlimit="10"/>
<path d="M266.72 220.978L270.846 217.171L275.046 220.978" stroke="white" stroke-width="2" stroke-miterlimit="10"/>
<path d="M281.456 210.799L279.172 209.401L277.477 208.39L270.846 204.35" stroke="white" stroke-width="2" stroke-miterlimit="10"/>
<path d="M279.982 216.627L278.582 209.012L285.508 206.448" stroke="white" stroke-width="2" stroke-miterlimit="10"/>
<path d="M282.487 216.472L281.456 210.799L286.613 208.857" stroke="white" stroke-width="2" stroke-miterlimit="10"/>
<path d="M281.456 197.901L279.172 199.299L277.477 200.309L270.846 204.35" stroke="white" stroke-width="2" stroke-miterlimit="10"/>
<path d="M285.508 202.174L278.582 199.688L279.982 191.995" stroke="white" stroke-width="2" stroke-miterlimit="10"/>
<path d="M286.613 199.765L281.456 197.901L282.487 192.228" stroke="white" stroke-width="2" stroke-miterlimit="10"/>
<path d="M344.746 321.371V324.169V326.189V334.27" stroke="white" stroke-width="2" stroke-miterlimit="10"/>
<path d="M350.346 319.817L344.746 324.946L339.147 319.817" stroke="white" stroke-width="2" stroke-miterlimit="10"/>
<path d="M348.872 317.564L344.746 321.371L340.62 317.564" stroke="white" stroke-width="2" stroke-miterlimit="10"/>
<path d="M334.21 327.821L336.494 329.219L338.115 330.229L344.746 334.27" stroke="white" stroke-width="2" stroke-miterlimit="10"/>
<path d="M335.684 321.915L337.084 329.608L330.084 332.094" stroke="white" stroke-width="2" stroke-miterlimit="10"/>
<path d="M333.105 322.148L334.21 327.821L328.979 329.763" stroke="white" stroke-width="2" stroke-miterlimit="10"/>
<path d="M334.21 340.719L336.494 339.321L338.115 338.311L344.746 334.27" stroke="white" stroke-width="2" stroke-miterlimit="10"/>
<path d="M330.084 336.368L337.084 338.932L335.684 346.547" stroke="white" stroke-width="2" stroke-miterlimit="10"/>
<path d="M328.979 338.777L334.21 340.719L333.105 346.392" stroke="white" stroke-width="2" stroke-miterlimit="10"/>
<path d="M344.746 347.091V344.371V342.273V334.27" stroke="white" stroke-width="2" stroke-miterlimit="10"/>
<path d="M339.147 348.723L344.746 343.594L350.346 348.723" stroke="white" stroke-width="2" stroke-miterlimit="10"/>
<path d="M340.62 350.899L344.746 347.091L348.872 350.899" stroke="white" stroke-width="2" stroke-miterlimit="10"/>
<path d="M355.283 340.719L352.998 339.321L351.304 338.311L344.746 334.27" stroke="white" stroke-width="2" stroke-miterlimit="10"/>
<path d="M353.809 346.547L352.409 338.932L359.408 336.368" stroke="white" stroke-width="2" stroke-miterlimit="10"/>
<path d="M356.314 346.392L355.282 340.719L360.514 338.777" stroke="white" stroke-width="2" stroke-miterlimit="10"/>
<path d="M355.283 327.821L352.998 329.219L351.304 330.229L344.746 334.27" stroke="white" stroke-width="2" stroke-miterlimit="10"/>
<path d="M359.408 332.094L352.409 329.608L353.809 321.915" stroke="white" stroke-width="2" stroke-miterlimit="10"/>
<path d="M360.514 329.763L355.282 327.821L356.314 322.148" stroke="white" stroke-width="2" stroke-miterlimit="10"/>
<path d="M317.411 365.118V379.882" stroke="white" stroke-width="2" stroke-miterlimit="10"/>
<path d="M310.412 372.5H324.337" stroke="white" stroke-width="2" stroke-miterlimit="10"/>
<path d="M313.948 368.848L320.874 376.152" stroke="white" stroke-width="2" stroke-miterlimit="10"/>
<path d="M313.948 376.152L320.874 368.848" stroke="white" stroke-width="2" stroke-miterlimit="10"/>
<path d="M315.938 292.699V307.462" stroke="white" stroke-width="2" stroke-miterlimit="10"/>
<path d="M308.938 300.08H322.863" stroke="white" stroke-width="2" stroke-miterlimit="10"/>
<path d="M312.475 296.428L319.401 303.733" stroke="white" stroke-width="2" stroke-miterlimit="10"/>
<path d="M312.475 303.733L319.401 296.428" stroke="white" stroke-width="2" stroke-miterlimit="10"/>
<path d="M322.864 219.58L325.811 224.864H331.558L328.684 230.147L331.558 235.431H325.811L322.864 240.715L319.99 235.431H314.169L317.117 230.147L314.169 224.864H319.99L322.864 219.58Z" stroke="white" stroke-width="2" stroke-miterlimit="10"/>
<path d="M322.864 211.421V215.461V218.414V230.147" stroke="white" stroke-width="2" stroke-miterlimit="10"/>
<path d="M329.126 212.12L322.863 217.87L316.674 212.12" stroke="white" stroke-width="2" stroke-miterlimit="10"/>
<path d="M307.538 220.745L310.854 222.843L313.285 224.32L322.863 230.147" stroke="white" stroke-width="2" stroke-miterlimit="10"/>
<path d="M311.222 215.461L312.77 224.009L305.033 226.806" stroke="white" stroke-width="2" stroke-miterlimit="10"/>
<path d="M307.538 239.472L310.854 237.451L313.285 235.975L322.863 230.147" stroke="white" stroke-width="2" stroke-miterlimit="10"/>
<path d="M305.033 233.489L312.77 236.286L311.222 244.833" stroke="white" stroke-width="2" stroke-miterlimit="10"/>
<path d="M322.864 248.874V244.833V241.881V230.147" stroke="white" stroke-width="2" stroke-miterlimit="10"/>
<path d="M316.674 248.175L322.863 242.425L329.126 248.175" stroke="white" stroke-width="2" stroke-miterlimit="10"/>
<path d="M338.263 239.472L334.947 237.451L332.516 235.975L322.864 230.147" stroke="white" stroke-width="2" stroke-miterlimit="10"/>
<path d="M334.579 244.833L333.031 236.286L340.768 233.489" stroke="white" stroke-width="2" stroke-miterlimit="10"/>
<path d="M338.263 220.745L334.947 222.843L332.516 224.32L322.864 230.147" stroke="white" stroke-width="2" stroke-miterlimit="10"/>
<path d="M340.768 226.806L333.031 224.009L334.579 215.461" stroke="white" stroke-width="2" stroke-miterlimit="10"/>
<path d="M180.588 268.999C171.378 274.205 167.989 286.327 172.926 295.962C177.862 305.675 189.356 309.25 198.493 304.043C207.702 298.837 211.092 286.716 206.155 277.08C204.534 273.972 202.176 271.33 199.303 269.465" stroke="white" stroke-width="2" stroke-miterlimit="10"/>
<path d="M198.787 264.648C200.555 262.394 201.513 259.597 201.513 256.644C201.513 255.09 201.219 253.536 200.703 252.137" stroke="white" stroke-width="2" stroke-miterlimit="10"/>
<path d="M201.882 249.418L199.45 248.408L199.745 246.698L200.482 242.813C200.777 241.414 200.04 240.016 198.787 239.55L193.409 237.218C192.156 236.675 190.756 237.141 190.019 238.384L188.03 241.725L187.22 243.202L184.788 242.114C184.125 241.803 183.315 242.191 183.02 242.891L182.946 243.046C182.651 243.746 183.02 244.6 183.683 244.911L200.777 252.215C201.44 252.526 202.25 252.137 202.545 251.438L202.619 251.283C202.913 250.583 202.545 249.729 201.882 249.418Z" stroke="white" stroke-width="2" stroke-miterlimit="10"/>
<path d="M205.492 276.847L214.923 270.786L217.723 267.367" stroke="white" stroke-width="2" stroke-miterlimit="10"/>
<path d="M214.923 270.786L219.86 272.185" stroke="white" stroke-width="2" stroke-miterlimit="10"/>
<path d="M208.145 274.982L209.25 271.563" stroke="white" stroke-width="2" stroke-miterlimit="10"/>
<path d="M193.998 384.777C200.224 384.777 205.271 379.455 205.271 372.889C205.271 366.323 200.224 361 193.998 361C187.772 361 182.725 366.323 182.725 372.889C182.725 379.455 187.772 384.777 193.998 384.777Z" stroke="white" stroke-width="2" stroke-miterlimit="10"/>
<path d="M201.071 326.422C202.618 326.422 203.871 325.1 203.871 323.469C203.871 321.838 202.618 320.516 201.071 320.516C199.525 320.516 198.271 321.838 198.271 323.469C198.271 325.1 199.525 326.422 201.071 326.422Z" stroke="white" stroke-width="2" stroke-miterlimit="10"/>
<path d="M364.64 185.623V200.154" stroke="white" stroke-width="2" stroke-miterlimit="10"/>
<path d="M357.788 192.927H371.492" stroke="white" stroke-width="2" stroke-miterlimit="10"/>
<path d="M361.25 189.275L368.029 196.502" stroke="white" stroke-width="2" stroke-miterlimit="10"/>
<path d="M361.25 196.502L368.029 189.275" stroke="white" stroke-width="2" stroke-miterlimit="10"/>
<path d="M364.64 204.816C370.866 204.816 375.913 199.493 375.913 192.927C375.913 186.362 370.866 181.039 364.64 181.039C358.414 181.039 353.367 186.362 353.367 192.927C353.367 199.493 358.414 204.816 364.64 204.816Z" stroke="white" stroke-width="2" stroke-miterlimit="10"/>
<path d="M317.411 185.157V199.843" stroke="white" stroke-width="2" stroke-miterlimit="10"/>
<path d="M310.412 192.461H324.337" stroke="white" stroke-width="2" stroke-miterlimit="10"/>
<path d="M313.948 188.809L320.874 196.191" stroke="white" stroke-width="2" stroke-miterlimit="10"/>
<path d="M313.948 196.191L320.874 188.809" stroke="white" stroke-width="2" stroke-miterlimit="10"/>
<path d="M193.998 204.816C200.224 204.816 205.271 199.493 205.271 192.927C205.271 186.362 200.224 181.039 193.998 181.039C187.772 181.039 182.725 186.362 182.725 192.927C182.725 199.493 187.772 204.816 193.998 204.816Z" stroke="white" stroke-width="2" stroke-miterlimit="10"/>
</g>
</svg>
