<svg width="391" height="386" fill="none" xmlns="http://www.w3.org/2000/svg"><g opacity=".6"><path d="M100.204 191.451v12.899m5.6-14.453l-5.6 5.128-5.6-5.128" stroke="#fff" stroke-width="2" stroke-miterlimit="10"/><path d="M104.33 187.644l-4.126 3.807-4.126-3.807m-4.936 4.351l1.4 7.693-7 2.486" stroke="#fff" stroke-width="2" stroke-miterlimit="10"/><path d="M88.563 192.228l1.105 5.673-5.231 1.864m30.429 2.409l-6.999-2.486 1.4-7.693" stroke="#fff" stroke-width="2" stroke-miterlimit="10"/><path d="M115.971 199.765l-5.231-1.864 1.032-5.673m-26.967-29.216l-6.189-7.771c.663-.233 1.4-.311 2.137-.311 3.61 0 3.61 1.788 7.147 1.788l-7.884-12.511-3.684-5.827c.737-.311 1.547-.544 2.358-.467 3.094 0 3.094 1.788 6.115 1.788l-18.42-33.879-18.42 33.956c3.095 0 3.095-1.787 6.116-1.787.81 0 1.62.156 2.284.466l-.074.156-11.494 18.105c3.61 0 3.61-1.788 7.147-1.788.737 0 1.4.078 2.137.311l-.59.7-14.072 17.794c4.494 0 4.494-1.787 8.988-1.787 4.495 0 4.495 1.787 8.99 1.787 1.768 0 3.61-.389 5.23-1.166v11.189h7.442v-11.189c1.621.777 3.463 1.166 5.231 1.166 4.495 0 4.495-1.787 8.99-1.787 4.494 0 4.494 1.787 8.988 1.787l-8.473-10.723zm95.783-74.052c-9.136 5.207-12.599 17.328-7.589 26.963 4.937 9.636 16.431 13.288 25.567 8.004 9.136-5.206 12.599-17.328 7.589-26.963-1.621-3.108-3.979-5.75-6.852-7.537m-14.81-24.244c-5.968 2.875-8.62 10.412-5.82 16.706.589 1.321 1.4 2.565 2.357 3.575m17.757-.855c1.769-2.253 2.726-5.128 2.726-8.003 0-1.555-.294-3.03-.81-4.43" stroke="#fff" stroke-width="2" stroke-miterlimit="10"/><path d="M195.545 76.295c0 .854-.663 1.476-1.399 1.476-.811 0-1.4-.7-1.4-1.476 0-.777.663-1.477 1.4-1.477.736-.077 1.399.622 1.399 1.477 0-.078 0-.078 0 0zm-9.136 0c0 .854-.663 1.476-1.4 1.476-.81 0-1.4-.7-1.4-1.476 0-.855.664-1.477 1.4-1.477.737-.077 1.4.622 1.4 1.477 0-.078 0-.078 0 0zm5.084 3.03c0 .855-.663 1.632-1.547 1.632-.811 0-1.548-.7-1.548-1.632 0-.855.664-1.632 1.548-1.632.884.078 1.547.777 1.547 1.632z" fill="#fff"/><path d="M201.882 69.457l-2.432-1.088.295-1.632.737-3.885c.295-1.399-.442-2.797-1.695-3.264l-5.378-2.33c-1.253-.545-2.653-.078-3.39 1.165l-1.989 3.341-.81 1.476-2.432-1.087c-.663-.311-1.473.077-1.768.777l-.074.077c-.295.7.074 1.554.737 1.865l17.094 7.382c.663.31 1.473-.078 1.768-.777l.074-.155c.294-.7 0-1.555-.737-1.865z" stroke="#fff" stroke-width="2" stroke-miterlimit="10"/><path d="M191.125 98.596c0 .932-.737 1.709-1.621 1.709s-1.621-.777-1.621-1.71c0-.932.737-1.709 1.621-1.709s1.621.777 1.621 1.71zm0 7.925c0 .933-.737 1.71-1.621 1.71s-1.621-.777-1.621-1.71c0-.932.737-1.709 1.621-1.709s1.621.777 1.621 1.709zm0 7.848c0 .933-.737 1.71-1.621 1.71s-1.621-.777-1.621-1.71c0-.932.737-1.709 1.621-1.709.884.077 1.621.777 1.621 1.709z" fill="#fff"/><path d="M205.492 96.808l9.431-5.983 2.8-3.419m-2.8 3.419l4.937 1.399m-11.715 2.797l1.105-3.496m-35.661 5.283l-9.431-5.983-2.8-3.419m2.8 3.419l-4.937 1.399m11.716 2.797l-1.106-3.496m28.146 9.635c.958-.855 1.252-2.02 1.179-4.274a34.524 34.524 0 00-1.548-6.76c.369 0 .737 0 1.179-.078.958-.155.663-1.865.59-2.486-.074-.622.294-1.244.221-2.254-.074-1.01-2.874-1.243-6.852-1.243-2.579 0-5.158.233-7.663.622-2.137.31-4.421.466-4.421 1.554s-.589 2.098.368 3.108c.59.621 6.484.777 11.347.855.295 1.476.663 4.35.295 6.138-.442 2.098-1.474 3.497-1.4 4.585l6.705.233zM87.826 75.673c4.568-2.642 12.82-6.139 19.672-1.632 9.947 6.372 15.105 20.592 15.105 20.592-7.516 2.564-19.452 2.253-19.452 2.253s-11.936.31-19.451-2.253c.737-6.916 7.515-12.355 7-13.52-.222-.545-1.18-.622-2.137-.467" stroke="#fff" stroke-width="2" stroke-miterlimit="10"/><path d="M125.624 98.751c.147 3.186-.59 4.662-.59 4.662-8.694 3.497-35.071 3.497-43.692 0 0 0-.81-1.476-.59-4.662 0-1.71.664-3.419 1.77-4.662.367.155.81.31 1.178.466 7.515 2.564 19.451 2.253 19.451 2.253s11.936.311 19.452-2.253c.442-.155.81-.31 1.252-.466 1.105 1.243 1.695 2.953 1.769 4.662zM88.858 78.626c0 2.564-1.916 4.662-4.421 4.74-2.432 0-4.42-2.02-4.495-4.663 0-2.564 1.916-4.662 4.421-4.74 2.505.078 4.495 2.099 4.495 4.663zm35.587 67.757v25.331m-12.01-12.665h23.946m-17.904-6.294l11.862 12.588m-11.862 0l11.862-12.588m-5.894-17.406v-4.895m3.61 8.237v-3.264h-7.294v3.264" stroke="#fff" stroke-width="2" stroke-miterlimit="10"/><path d="M124.445 179.796c10.864 0 19.672-9.289 19.672-20.747s-8.808-20.747-19.672-20.747c-10.865 0-19.673 9.289-19.673 20.747s8.808 20.747 19.673 20.747zm69.553 5.827v14.531m-6.926-7.227h13.778m-10.315-3.652l6.852 7.227m-6.852 0l6.852-7.227m-3.389-9.946v-2.797m2.063 4.662v-1.865h-4.126v1.865" stroke="#fff" stroke-width="2" stroke-miterlimit="10"/><path d="M193.998 204.738c6.226 0 11.273-5.322 11.273-11.888s-5.047-11.889-11.273-11.889-11.273 5.323-11.273 11.889c0 6.566 5.047 11.888 11.273 11.888zM140.065 88.572c0 1.632-1.253 2.953-2.8 2.953s-2.8-1.322-2.8-2.953c0-1.632 1.253-2.953 2.8-2.953 1.473 0 2.726 1.321 2.8 2.953zm54.007-43.281c1.546 0 2.8-1.322 2.8-2.953 0-1.63-1.254-2.953-2.8-2.953-1.547 0-2.8 1.323-2.8 2.953 0 1.631 1.253 2.953 2.8 2.953zM110.74 59.977c0 1.632-1.252 2.953-2.8 3.03-1.547 0-2.799-1.32-2.873-2.952 0-1.632 1.252-2.953 2.8-3.03h.073c1.548.077 2.8 1.398 2.8 2.952zm90.331 86.406c1.547 0 2.8-1.322 2.8-2.953 0-1.63-1.253-2.952-2.8-2.952-1.546 0-2.8 1.322-2.8 2.952 0 1.631 1.254 2.953 2.8 2.953zm-99.099-18.726c0 1.631-1.252 2.952-2.8 2.952-1.547 0-2.8-1.321-2.8-2.952 0-1.632 1.253-2.953 2.8-2.953 1.548 0 2.8 1.321 2.8 2.953zm-43.397-33.18c1.546 0 2.8-1.322 2.8-2.953 0-1.63-1.254-2.952-2.8-2.952-1.546 0-2.8 1.322-2.8 2.953 0 1.63 1.254 2.952 2.8 2.952zm1.105-70.088V19.57m-3.61 8.16v-3.186h7.22v3.186" stroke="#fff" stroke-width="2" stroke-miterlimit="10"/><path d="M59.68 68.99c10.906 0 19.747-9.323 19.747-20.824 0-11.501-8.841-20.825-19.747-20.825-10.905 0-19.746 9.324-19.746 20.825s8.841 20.825 19.746 20.825zM40.966 41.328H78.32M40.966 55.004H78.32" stroke="#fff" stroke-width="2" stroke-miterlimit="10"/><path d="M46.713 48.166c0 1.088-.81 2.02-1.842 2.02s-1.916-.855-1.916-1.942c0-1.088.81-2.02 1.842-2.02 1.105-.078 1.916.854 1.916 1.942zm9.947 0c0 1.088-.811 2.02-1.842 2.02-1.032 0-1.916-.855-1.916-1.942 0-1.088.81-2.02 1.842-2.02 1.031-.078 1.916.854 1.916 1.942zm9.873 0c0 1.088-.81 2.02-1.842 2.02s-1.916-.855-1.916-1.942c0-1.088.81-2.02 1.842-2.02 1.031-.078 1.842.854 1.916 1.942zm9.873 0c0 1.088-.81 1.943-1.842 1.943s-1.842-.855-1.842-1.943.81-1.943 1.842-1.943c.958-.077 1.842.855 1.842 1.943zm23.798-36.676v12.821m5.6-14.453l-5.6 5.129-5.6-5.129" stroke="#fff" stroke-width="2" stroke-miterlimit="10"/><path d="M104.33 7.683l-4.126 3.807-4.126-3.808m-6.41 10.258l2.284 1.32 1.621 1.088 6.631 3.963" stroke="#fff" stroke-width="2" stroke-miterlimit="10"/><path d="M91.142 12.034l1.4 7.615-7 2.564" stroke="#fff" stroke-width="2" stroke-miterlimit="10"/><path d="M88.563 12.19l1.105 5.75-5.231 1.864m5.231 10.956l2.284-1.398 1.621-1.01 6.631-4.041" stroke="#fff" stroke-width="2" stroke-miterlimit="10"/><path d="M85.542 26.487l7 2.486-1.4 7.693" stroke="#fff" stroke-width="2" stroke-miterlimit="10"/><path d="M84.437 28.895l5.231 1.865-1.105 5.673m11.641.777v-12.9m-5.599 14.454l5.599-5.05 5.6 5.05" stroke="#fff" stroke-width="2" stroke-miterlimit="10"/><path d="M96.078 41.017l4.126-3.807 4.126 3.807m6.41-10.257l-2.284-1.398-1.694-1.01-6.558-4.041" stroke="#fff" stroke-width="2" stroke-miterlimit="10"/><path d="M109.267 36.666l-1.4-7.693 6.999-2.486" stroke="#fff" stroke-width="2" stroke-miterlimit="10"/><path d="M111.772 36.433l-1.032-5.673 5.231-1.865M110.74 17.94l-2.284 1.32-1.694 1.088-6.558 3.963" stroke="#fff" stroke-width="2" stroke-miterlimit="10"/><path d="M114.866 22.213l-6.999-2.564 1.4-7.615" stroke="#fff" stroke-width="2" stroke-miterlimit="10"/><path d="M115.971 19.804l-5.231-1.865 1.032-5.75m62.259 129.221v12.821m5.6-14.453l-5.6 5.129-5.526-5.129" stroke="#fff" stroke-width="2" stroke-miterlimit="10"/><path d="M178.231 137.603l-4.2 3.807-4.126-3.807m-6.41 10.256l2.284 1.399 1.695 1.01 6.557 3.963" stroke="#fff" stroke-width="2" stroke-miterlimit="10"/><path d="M164.968 141.954l1.4 7.615-6.926 2.564" stroke="#fff" stroke-width="2" stroke-miterlimit="10"/><path d="M162.463 142.109l1.032 5.75-5.231 1.865m5.231 10.957l2.284-1.399 1.695-1.01 6.557-4.041" stroke="#fff" stroke-width="2" stroke-miterlimit="10"/><path d="M159.442 156.407l6.926 2.564-1.4 7.615" stroke="#fff" stroke-width="2" stroke-miterlimit="10"/><path d="M158.264 158.816l5.231 1.865-1.032 5.75m11.568.699v-12.899m-5.526 14.453l5.526-5.051 5.6 5.051" stroke="#fff" stroke-width="2" stroke-miterlimit="10"/><path d="M169.905 170.937l4.126-3.807 4.2 3.807m6.41-10.256l-2.284-1.399-1.695-1.01-6.631-4.041" stroke="#fff" stroke-width="2" stroke-miterlimit="10"/><path d="M183.167 166.586l-1.4-7.615 6.926-2.564" stroke="#fff" stroke-width="2" stroke-miterlimit="10"/><path d="M185.672 166.431l-1.031-5.75 5.157-1.865m-5.157-10.957l-2.284 1.399-1.695 1.01-6.631 3.963" stroke="#fff" stroke-width="2" stroke-miterlimit="10"/><path d="M188.693 152.133l-6.926-2.564 1.4-7.615" stroke="#fff" stroke-width="2" stroke-miterlimit="10"/><path d="M189.798 149.724l-5.157-1.865 1.031-5.75m-38.976 43.048v14.686m-7-7.382h13.999m-10.462-3.652l6.926 7.382m-6.926 0l6.926-7.382m-4.937-76.071v14.685m-6.999-7.381h13.999m-10.463-3.652l6.926 7.304m-6.926 0l6.926-7.304m3.537-76.85l2.873 5.285h5.821l-2.947 5.284 2.947 5.361h-5.821l-2.873 5.284-2.874-5.284h-5.82l2.873-5.361-2.873-5.284h5.82l2.874-5.284zm0-8.08v18.648m6.189-17.948l-6.189 5.671-6.189-5.672" stroke="#fff" stroke-width="2" stroke-miterlimit="10"/><path d="M136.823 40.784l3.315 2.02 2.432 1.477 9.652 5.828" stroke="#fff" stroke-width="2" stroke-miterlimit="10"/><path d="M140.507 35.5l1.621 8.47-7.81 2.875m2.505 12.665l3.315-2.02 2.432-1.476 9.652-5.906" stroke="#fff" stroke-width="2" stroke-miterlimit="10"/><path d="M134.318 53.45l7.81 2.875-1.621 8.47m11.715 4.04V50.109m-6.189 18.027l6.189-5.673 6.189 5.673m9.21-8.626l-3.389-2.02-2.432-1.476-9.578-5.906" stroke="#fff" stroke-width="2" stroke-miterlimit="10"/><path d="M163.863 64.794l-1.547-8.47 7.81-2.874m-2.505-12.666l-3.389 2.02-2.432 1.477-9.578 5.828" stroke="#fff" stroke-width="2" stroke-miterlimit="10"/><path d="M170.126 46.845l-7.81-2.875 1.547-8.47M9.873 88.96c-3.094 1.788-5.6 4.352-7.368 7.615C.81 99.605 0 103.025 0 106.521c0 10.956 8.473 19.892 18.862 19.892 10.389 0 18.862-8.936 18.862-19.892a21.12 21.12 0 00-2.505-9.946c-1.621-2.953-3.832-5.361-6.631-7.148m-.516-4.818a12.845 12.845 0 002.726-7.926c0-1.554-.295-3.03-.81-4.429" stroke="#fff" stroke-width="2" stroke-miterlimit="10"/><path d="M31.166 69.457l-2.431-1.088.295-1.632.736-3.885c.295-1.399-.442-2.797-1.694-3.264l-5.305-2.33c-1.253-.545-2.653-.078-3.39 1.165l-1.989 3.341-.81 1.476-2.432-1.087c-.663-.311-1.473.077-1.768.777l-.074.155c-.294.7.074 1.554.737 1.865l17.02 7.382c.663.31 1.474-.078 1.768-.777l.074-.233c.295-.7 0-1.555-.737-1.865zm0 0c.074 0 .074 0 0 0zm3.611 27.351l9.43-5.983 2.8-3.419m-2.799 3.419l5.01 1.399M37.43 95.021l1.178-3.496M23.283 204.738c6.226 0 11.273-5.322 11.273-11.888s-5.047-11.889-11.273-11.889-11.273 5.323-11.273 11.889c0 6.566 5.047 11.888 11.273 11.888zm7.147-58.355c1.546 0 2.8-1.322 2.8-2.953 0-1.63-1.254-2.952-2.8-2.952-1.547 0-2.8 1.322-2.8 2.952 0 1.631 1.253 2.953 2.8 2.953zM193.998 5.662v14.453m-6.926-7.226h13.778m-10.315-3.575l6.852 7.227m-6.852-.001l6.852-7.226m-3.389 15.463c6.226 0 11.273-5.323 11.273-11.888C205.271 6.323 200.224 1 193.998 1s-11.273 5.323-11.273 11.889c0 6.566 5.047 11.888 11.273 11.888zM146.696 5.118v14.764m-7-7.382h13.999m-10.462-3.652l6.926 7.304m-6.926 0l6.926-7.304M23.283 24.777c6.226 0 11.273-5.323 11.273-11.888C34.556 6.323 29.509 1 23.283 1S12.01 6.323 12.01 12.889c0 6.566 5.047 11.888 11.273 11.888zm247.563 166.674v12.899m5.599-14.453l-5.599 5.128-5.526-5.128" stroke="#fff" stroke-width="2" stroke-miterlimit="10"/><path d="M275.046 187.644l-4.2 3.807-4.126-3.807m-4.937 4.351l1.4 7.693-6.999 2.486" stroke="#fff" stroke-width="2" stroke-miterlimit="10"/><path d="M259.278 192.228l1.032 5.673-5.232 1.864m30.43 2.409l-6.926-2.486 1.4-7.693" stroke="#fff" stroke-width="2" stroke-miterlimit="10"/><path d="M286.613 199.765l-5.157-1.864 1.031-5.673m-27.04-29.216l-6.189-7.771c.663-.233 1.4-.311 2.136-.311 3.611 0 3.611 1.788 7.221 1.788l-7.884-12.433-3.684-5.828c.737-.31 1.548-.544 2.358-.466 3.095 0 3.095 1.787 6.115 1.787l-18.419-33.956-18.42 34.034c3.094 0 3.094-1.787 6.115-1.787.811 0 1.621.155 2.358.466l-.074.155-11.494 18.105c3.61 0 3.61-1.787 7.221-1.787.737 0 1.4.078 2.136.311l-.589.699-14.073 17.794c4.495 0 4.495-1.787 8.989-1.787 4.495 0 4.495 1.787 8.989 1.787 1.768 0 3.61-.388 5.231-1.165v11.189h7.442v-11.267c1.621.777 3.463 1.166 5.231 1.166 4.495 0 4.495-1.787 8.989-1.787 4.495 0 4.495 1.787 8.989 1.787l-8.694-10.723zM351.23 88.96c-9.136 5.207-12.599 17.328-7.589 26.963 4.937 9.636 16.431 13.288 25.567 8.004 9.136-5.206 12.599-17.328 7.589-26.963-1.621-3.108-3.979-5.75-6.852-7.537m-14.736-24.244c-5.968 2.875-8.621 10.412-5.821 16.706.589 1.321 1.4 2.565 2.358 3.575m17.683-.855c2.726-3.497 3.463-8.237 1.916-12.51" stroke="#fff" stroke-width="2" stroke-miterlimit="10"/><path d="M366.187 76.295c0 .854-.663 1.476-1.4 1.476-.81 0-1.4-.7-1.4-1.476 0-.855.663-1.477 1.4-1.477.737-.077 1.4.622 1.4 1.477 0-.078 0-.078 0 0zm-9.136 0c0 .854-.663 1.476-1.4 1.476-.811 0-1.4-.7-1.4-1.476 0-.855.663-1.477 1.4-1.477.81-.077 1.4.622 1.4 1.477 0-.078 0-.078 0 0zm5.157 3.03c0 .855-.663 1.632-1.547 1.632-.81 0-1.547-.7-1.547-1.632 0-.932.663-1.632 1.547-1.632.884.078 1.547.777 1.547 1.632z" fill="#fff"/><path d="M372.523 69.457l-2.431-1.088.368-1.632.737-3.885c.295-1.399-.442-2.797-1.694-3.264l-5.379-2.33c-1.253-.545-2.652-.078-3.389 1.165l-1.99 3.341-.81 1.476-2.431-1.087c-.664-.311-1.474.077-1.769.777l-.073.155c-.295.7.073 1.554.736 1.865l17.094 7.382c.663.31 1.474-.078 1.768-.777l.074-.156c.221-.777-.074-1.632-.811-1.942zm0 0c.074 0 .074 0 0 0z" stroke="#fff" stroke-width="2" stroke-miterlimit="10"/><path d="M361.766 98.596c0 .932-.736 1.709-1.621 1.709-.884 0-1.621-.777-1.621-1.71 0-.932.737-1.709 1.621-1.709.885 0 1.621.777 1.621 1.71zm0 7.925c0 .933-.736 1.71-1.621 1.71-.884 0-1.621-.777-1.621-1.71 0-.932.737-1.709 1.621-1.709.885 0 1.621.777 1.621 1.709zm0 7.848c0 .933-.736 1.71-1.621 1.71-.884 0-1.621-.777-1.621-1.71 0-.932.737-1.709 1.621-1.709.885.077 1.621.777 1.621 1.709z" fill="#fff"/><path d="M376.134 96.808l9.431-5.983 2.8-3.419m-2.8 3.419l5.01 1.399m-11.789 2.797l1.179-3.496m-35.661 5.283l-9.431-5.983-2.8-3.419m2.8 3.419l-5.01 1.399m11.789 2.797l-1.179-3.496m28.145 9.635c.958-.855 1.253-2.02 1.179-4.274a34.45 34.45 0 00-1.547-6.76c.368 0 .81 0 1.179-.078.958-.155.663-1.865.589-2.486-.073-.622.295-1.244.221-2.254-.073-1.01-2.873-1.243-6.852-1.243-2.579 0-5.157.233-7.663.622-2.136.31-4.42.466-4.42 1.554s-.59 2.098.368 3.108c.59.621 6.484.777 11.347.855.294 1.476.663 4.35.294 6.138-.442 2.098-1.547 3.497-1.399 4.585l6.704.233zM258.541 75.673c4.495-2.642 12.821-6.139 19.673-1.632 9.947 6.372 15.178 20.592 15.178 20.592-7.516 2.564-19.452 2.253-19.452 2.253s-11.936.31-19.451-2.253c.737-6.916 7.515-12.355 7-13.52-.221-.545-1.179-.622-2.137-.467" stroke="#fff" stroke-width="2" stroke-miterlimit="10"/><path d="M296.265 98.751c.148 3.186-.589 4.662-.589 4.662-8.694 3.497-35.072 3.497-43.692 0 0 0-.811-1.476-.59-4.662 0-1.71.59-3.419 1.769-4.662.368.155.81.31 1.252.466 7.516 2.564 19.452 2.253 19.452 2.253s11.936.311 19.451-2.253c.442-.155.811-.31 1.253-.466 1.031 1.32 1.694 2.953 1.694 4.662zm-36.692-20.125c0 2.564-1.916 4.662-4.421 4.74-2.431 0-4.421-2.02-4.495-4.663 0-2.564 1.916-4.662 4.421-4.74 2.505.078 4.421 2.099 4.495 4.663zm35.513 67.757v25.331m-12.009-12.665h24.019m-17.978-6.294l11.936 12.588m-11.936 0l11.936-12.588m-5.968-17.406v-4.895m3.611 8.237v-3.264h-7.221v3.264" stroke="#fff" stroke-width="2" stroke-miterlimit="10"/><path d="M295.086 179.796c10.865 0 19.673-9.289 19.673-20.747s-8.808-20.747-19.673-20.747c-10.865 0-19.672 9.289-19.672 20.747s8.807 20.747 19.672 20.747zm69.554 5.827v14.531m-6.852-7.227h13.704m-10.242-3.652l6.779 7.227m-6.779 0l6.779-7.227m-3.389-9.946v-2.797m2.063 4.662v-1.865h-4.126v1.865" stroke="#fff" stroke-width="2" stroke-miterlimit="10"/><path d="M364.64 204.738c6.226 0 11.273-5.322 11.273-11.888s-5.047-11.889-11.273-11.889-11.273 5.323-11.273 11.889c0 6.566 5.047 11.888 11.273 11.888zM310.706 88.572c0 1.632-1.252 2.953-2.799 2.953-1.548 0-2.8-1.322-2.8-2.953 0-1.632 1.252-2.953 2.8-2.953 1.547 0 2.799 1.321 2.799 2.953zm54.081-43.281c1.546 0 2.8-1.322 2.8-2.953 0-1.63-1.254-2.953-2.8-2.953-1.546 0-2.8 1.323-2.8 2.953 0 1.631 1.254 2.953 2.8 2.953zm-83.331 14.686c0 1.632-1.253 2.953-2.8 3.03-1.548 0-2.8-1.32-2.874-2.952 0-1.632 1.253-2.953 2.8-3.03h.074c1.473.077 2.726 1.398 2.8 2.952zm90.331 86.406c1.546 0 2.799-1.322 2.799-2.953 0-1.63-1.253-2.952-2.799-2.952-1.547 0-2.8 1.322-2.8 2.952 0 1.631 1.253 2.953 2.8 2.953zm-99.173-18.726c0 1.631-1.253 2.952-2.8 2.952s-2.8-1.321-2.8-2.952c0-1.632 1.253-2.953 2.8-2.953s2.8 1.321 2.8 2.953zm-43.397-33.18c1.546 0 2.8-1.322 2.8-2.953 0-1.63-1.254-2.952-2.8-2.952-1.546 0-2.8 1.322-2.8 2.953 0 1.63 1.254 2.952 2.8 2.952zm1.105-70.088V19.57m-3.61 8.16v-3.186h7.294v3.186" stroke="#fff" stroke-width="2" stroke-miterlimit="10"/><path d="M230.322 68.99c10.906 0 19.746-9.323 19.746-20.824 0-11.501-8.84-20.825-19.746-20.825-10.905 0-19.746 9.324-19.746 20.825s8.841 20.825 19.746 20.825zm-18.641-27.662h37.356m-37.356 13.676h37.356" stroke="#fff" stroke-width="2" stroke-miterlimit="10"/><path d="M217.428 48.166c0 1.088-.81 2.02-1.842 2.02-1.031 0-1.916-.855-1.916-1.942 0-1.088.811-2.02 1.842-2.02h.074c.958 0 1.842.854 1.842 1.942zm9.873 0c0 1.088-.81 2.02-1.842 2.02-1.031 0-1.916-.855-1.916-1.942 0-1.088.811-2.02 1.842-2.02 1.032-.078 1.916.854 1.916 1.942zm9.873 0c0 1.088-.81 2.02-1.842 2.02-1.031 0-1.915-.855-1.915-1.942 0-1.088.81-2.02 1.841-2.02 1.106-.078 1.916.854 1.916 1.942zm9.873 0c0 1.088-.81 2.02-1.842 2.02-1.031 0-1.915-.855-1.915-1.942 0-1.088.81-2.02 1.842-2.02 1.105-.078 1.915.854 1.915 1.942zm23.799-36.676v12.821m5.599-14.453l-5.599 5.129-5.526-5.129" stroke="#fff" stroke-width="2" stroke-miterlimit="10"/><path d="M275.046 7.683l-4.2 3.807-4.126-3.808m-6.41 10.258l2.284 1.32 1.694 1.088 6.558 3.963" stroke="#fff" stroke-width="2" stroke-miterlimit="10"/><path d="M261.783 12.034l1.4 7.615-6.999 2.564" stroke="#fff" stroke-width="2" stroke-miterlimit="10"/><path d="M259.278 12.19l1.032 5.75-5.232 1.864m5.232 10.956l2.284-1.398 1.694-1.01 6.558-4.041" stroke="#fff" stroke-width="2" stroke-miterlimit="10"/><path d="M256.184 26.487l6.999 2.486-1.4 7.693" stroke="#fff" stroke-width="2" stroke-miterlimit="10"/><path d="M255.078 28.895l5.232 1.865-1.032 5.673m11.568.777v-12.9m-5.526 14.454l5.526-5.05 5.599 5.05" stroke="#fff" stroke-width="2" stroke-miterlimit="10"/><path d="M266.72 41.017l4.126-3.807 4.2 3.807m6.41-10.257l-2.284-1.398-1.695-1.01-6.631-4.041" stroke="#fff" stroke-width="2" stroke-miterlimit="10"/><path d="M279.982 36.666l-1.4-7.693 6.926-2.486" stroke="#fff" stroke-width="2" stroke-miterlimit="10"/><path d="M282.487 36.433l-1.031-5.673 5.157-1.865m-5.157-10.955l-2.284 1.32-1.695 1.088-6.631 3.963" stroke="#fff" stroke-width="2" stroke-miterlimit="10"/><path d="M285.508 22.213l-6.926-2.564 1.4-7.615" stroke="#fff" stroke-width="2" stroke-miterlimit="10"/><path d="M286.613 19.804l-5.157-1.865 1.031-5.75m62.259 129.221v12.821m5.6-14.453l-5.6 5.129-5.599-5.129" stroke="#fff" stroke-width="2" stroke-miterlimit="10"/><path d="M348.872 137.603l-4.126 3.807-4.126-3.807m-6.41 10.256l2.284 1.399 1.621 1.01 6.631 3.963" stroke="#fff" stroke-width="2" stroke-miterlimit="10"/><path d="M335.684 141.954l1.4 7.615-7 2.564" stroke="#fff" stroke-width="2" stroke-miterlimit="10"/><path d="M333.105 142.109l1.105 5.75-5.231 1.865m5.231 10.957l2.284-1.399 1.621-1.01 6.631-4.041" stroke="#fff" stroke-width="2" stroke-miterlimit="10"/><path d="M330.084 156.407l7 2.564-1.4 7.615" stroke="#fff" stroke-width="2" stroke-miterlimit="10"/><path d="M328.979 158.816l5.231 1.865-1.105 5.75m11.641.699v-12.899m-5.599 14.453l5.599-5.051 5.6 5.051" stroke="#fff" stroke-width="2" stroke-miterlimit="10"/><path d="M340.62 170.937l4.126-3.807 4.126 3.807m6.411-10.256l-2.285-1.399-1.694-1.01-6.558-4.041" stroke="#fff" stroke-width="2" stroke-miterlimit="10"/><path d="M353.809 166.586l-1.4-7.615 6.999-2.564" stroke="#fff" stroke-width="2" stroke-miterlimit="10"/><path d="M356.314 166.431l-1.032-5.75 5.232-1.865m-5.231-10.957l-2.285 1.399-1.694 1.01-6.558 3.963" stroke="#fff" stroke-width="2" stroke-miterlimit="10"/><path d="M359.408 152.133l-6.999-2.564 1.4-7.615" stroke="#fff" stroke-width="2" stroke-miterlimit="10"/><path d="M360.514 149.724l-5.232-1.865 1.032-5.75m-38.903 43.048v14.686m-6.999-7.382h13.925m-10.389-3.652l6.926 7.382m-6.926 0l6.926-7.382m-4.936-76.071v14.685m-7-7.381h13.925m-10.388-3.652l6.926 7.304m-6.926 0l6.926-7.304m3.463-76.85l2.947 5.285h5.747l-2.874 5.284 2.874 5.361h-5.747l-2.947 5.284-2.874-5.284h-5.821l2.948-5.361-2.948-5.284h5.821l2.874-5.284zm0-8.08v18.648m6.262-17.948l-6.263 5.671-6.189-5.672" stroke="#fff" stroke-width="2" stroke-miterlimit="10"/><path d="M307.538 40.784l3.316 2.02 2.431 1.477 9.578 5.828" stroke="#fff" stroke-width="2" stroke-miterlimit="10"/><path d="M311.222 35.5l1.548 8.47-7.737 2.875m2.505 12.665l3.316-2.02 2.431-1.476 9.578-5.906" stroke="#fff" stroke-width="2" stroke-miterlimit="10"/><path d="M305.033 53.45l7.737 2.875-1.548 8.47m11.642 4.04V50.109m-6.19 18.027l6.189-5.673 6.263 5.673m9.137-8.626l-3.316-2.02-2.431-1.476-9.652-5.906" stroke="#fff" stroke-width="2" stroke-miterlimit="10"/><path d="M334.579 64.794l-1.548-8.47 7.737-2.874m-2.505-12.666l-3.316 2.02-2.431 1.477-9.652 5.828" stroke="#fff" stroke-width="2" stroke-miterlimit="10"/><path d="M340.768 46.845l-7.737-2.875 1.548-8.47M180.588 88.96c-9.136 5.207-12.599 17.328-7.589 26.963 4.937 9.636 16.431 13.288 25.567 8.004 9.136-5.206 12.599-17.328 7.589-26.963-1.621-3.108-3.979-5.75-6.852-7.537m-.516-4.818c1.768-2.253 2.726-5.128 2.726-8.003 0-1.555-.294-3.03-.81-4.43" stroke="#fff" stroke-width="2" stroke-miterlimit="10"/><path d="M201.882 69.457l-2.432-1.088.295-1.632.737-3.885c.295-1.399-.442-2.797-1.695-3.264l-5.378-2.33c-1.253-.545-2.653-.078-3.39 1.165l-1.989 3.341-.81 1.476-2.432-1.087c-.663-.311-1.473.077-1.768.777l-.074.077c-.295.7.074 1.554.737 1.865l17.094 7.382c.663.31 1.473-.078 1.768-.777l.074-.155c.294-.7 0-1.555-.737-1.865zm3.61 27.351l9.431-5.983 2.8-3.419m-2.8 3.419l4.937 1.399m-11.715 2.797l1.105-3.496m-15.252 113.213c6.226 0 11.273-5.322 11.273-11.888s-5.047-11.889-11.273-11.889-11.273 5.323-11.273 11.889c0 6.566 5.047 11.888 11.273 11.888zm7.073-58.355c1.547 0 2.8-1.322 2.8-2.953 0-1.63-1.253-2.952-2.8-2.952-1.546 0-2.8 1.322-2.8 2.952 0 1.631 1.254 2.953 2.8 2.953zM364.64 5.662v14.453m-6.852-7.226h13.704M361.25 9.314l6.779 7.227m-6.779-.001l6.779-7.226m-3.389 15.463c6.226 0 11.273-5.323 11.273-11.888C375.913 6.323 370.866 1 364.64 1s-11.273 5.323-11.273 11.889c0 6.566 5.047 11.888 11.273 11.888zM317.411 5.118v14.764m-6.999-7.382h13.925m-10.389-3.652l6.926 7.304m-6.926 0l6.926-7.304M193.998 24.777c6.226 0 11.273-5.323 11.273-11.888C205.271 6.323 200.224 1 193.998 1s-11.273 5.323-11.273 11.889c0 6.566 5.047 11.888 11.273 11.888zM100.204 371.49v12.821m5.6-14.453l-5.6 5.129-5.6-5.129" stroke="#fff" stroke-width="2" stroke-miterlimit="10"/><path d="M104.33 367.682l-4.126 3.808-4.126-3.808m-4.936 4.352l1.4 7.615-7 2.564" stroke="#fff" stroke-width="2" stroke-miterlimit="10"/><path d="M88.563 372.189l1.105 5.75-5.231 1.865m30.429 2.409l-6.999-2.564 1.4-7.615" stroke="#fff" stroke-width="2" stroke-miterlimit="10"/><path d="M115.971 379.804l-5.231-1.865 1.032-5.75m-26.967-29.216l-6.189-7.771c.663-.233 1.4-.31 2.137-.31 3.61 0 3.61 1.787 7.147 1.787l-7.884-12.51-3.684-5.828a6 6 0 012.284-.466c3.094 0 3.094 1.787 6.115 1.787l-18.346-33.957-18.42 33.957c3.095 0 3.095-1.787 6.116-1.787.81 0 1.62.155 2.284.466l-.074.155-11.494 18.105c3.61 0 3.61-1.787 7.147-1.787.737 0 1.4.078 2.137.311l-.59.699L39.42 353.54c4.494 0 4.494-1.787 8.988-1.787 4.495 0 4.495 1.787 8.99 1.787 1.768 0 3.61-.388 5.23-1.165v11.345h7.442v-11.19c1.621.777 3.463 1.166 5.231 1.166 4.495 0 4.495-1.787 8.99-1.787 4.494 0 4.494 1.787 8.988 1.787l-8.473-10.723zm95.783-73.974c-9.21 5.206-12.599 17.328-7.662 26.963 4.936 9.713 16.43 13.288 25.567 8.081 9.209-5.206 12.599-17.327 7.662-26.963-1.621-3.108-3.979-5.75-6.852-7.615m-14.81-24.321c-5.968 2.875-8.62 10.412-5.82 16.706.589 1.321 1.4 2.565 2.357 3.575m17.757-.777c1.769-2.254 2.726-5.051 2.726-8.004 0-1.554-.294-3.108-.81-4.507" stroke="#fff" stroke-width="2" stroke-miterlimit="10"/><path d="M195.545 256.256c0 .855-.663 1.476-1.399 1.476-.737 0-1.4-.699-1.4-1.476s.663-1.477 1.4-1.477c.736 0 1.326.622 1.399 1.477zm-9.136 0c0 .855-.663 1.476-1.4 1.476-.736 0-1.4-.699-1.4-1.476s.664-1.477 1.4-1.477c.737 0 1.4.622 1.4 1.477zm5.084 3.108c0 .855-.663 1.632-1.547 1.632-.811 0-1.548-.7-1.548-1.632 0-.855.664-1.632 1.548-1.632s1.547.7 1.547 1.632z" fill="#fff"/><path d="M201.882 249.418l-2.432-1.01.295-1.71.737-3.885c.295-1.399-.442-2.797-1.695-3.263l-5.378-2.332c-1.253-.543-2.653-.077-3.39 1.166l-1.989 3.341-.81 1.477-2.432-1.088c-.663-.311-1.473.077-1.768.777l-.074.155c-.295.7.074 1.554.737 1.865l17.094 7.304c.663.311 1.473-.078 1.768-.777l.074-.155c.294-.7-.074-1.554-.737-1.865z" stroke="#fff" stroke-width="2" stroke-miterlimit="10"/><path d="M191.125 278.634c0 .933-.737 1.71-1.621 1.71s-1.621-.777-1.621-1.71c0-.932.737-1.709 1.621-1.709s1.621.699 1.621 1.709zm0 7.848c0 .933-.737 1.71-1.621 1.71s-1.621-.777-1.621-1.71c0-.932.737-1.709 1.621-1.709s1.621.777 1.621 1.709zm0 7.926c0 .933-.737 1.71-1.621 1.71s-1.621-.777-1.621-1.71c0-.932.737-1.709 1.621-1.709s1.621.777 1.621 1.709z" fill="#fff"/><path d="M205.492 276.847l9.431-6.061 2.8-3.419m-2.8 3.419l4.937 1.399m-11.715 2.797l1.105-3.419m-35.661 5.284l-9.431-6.061-2.8-3.419m2.8 3.419l-4.937 1.399m11.716 2.797l-1.106-3.419m28.146 9.558c.958-.855 1.252-2.02 1.179-4.274a34.529 34.529 0 00-1.548-6.76c.59 0 1.032 0 1.179-.078.958-.155.663-1.865.59-2.486-.074-.622.294-1.243.221-2.254-.074-1.01-2.874-1.243-6.852-1.243-2.579 0-5.158.233-7.663.622-2.137.311-4.421.466-4.421 1.554s-.589 2.098.368 3.108c.59.622 6.484.777 11.347.855.295 1.476.663 4.351.295 6.138-.442 2.098-1.474 3.497-1.4 4.585l6.705.233zM87.826 255.634c4.568-2.642 12.82-6.061 19.672-1.709 9.947 6.371 15.105 20.591 15.105 20.591-7.516 2.564-19.452 2.253-19.452 2.253s-11.936.311-19.451-2.253c.737-6.916 7.515-12.355 7-13.52-.222-.544-1.18-.622-2.137-.467" stroke="#fff" stroke-width="2" stroke-miterlimit="10"/><path d="M125.624 278.79c.147 3.263-.59 4.662-.59 4.662-8.694 3.574-35.071 3.574-43.692 0 0 0-.81-1.476-.59-4.662 0-1.71.664-3.419 1.77-4.662.367.155.81.31 1.178.466 7.515 2.564 19.451 2.253 19.451 2.253s11.936.311 19.452-2.253c.442-.156.81-.311 1.252-.466 1.032 1.243 1.695 2.952 1.769 4.662zm-36.767-20.125c0 2.564-1.989 4.662-4.42 4.662-2.432 0-4.421-2.098-4.421-4.662 0-2.565 1.99-4.663 4.42-4.663 2.432 0 4.421 2.021 4.421 4.663zm35.588 67.757v25.331m-12.01-12.665h23.946m-17.904-6.294l11.862 12.588m-11.862 0l11.862-12.588m-5.894-17.484v-4.817m3.61 8.159v-3.186h-7.294v3.186" stroke="#fff" stroke-width="2" stroke-miterlimit="10"/><path d="M124.445 359.834c10.864 0 19.672-9.288 19.672-20.746 0-11.459-8.808-20.747-19.672-20.747-10.865 0-19.673 9.288-19.673 20.747 0 11.458 8.808 20.746 19.673 20.746zm69.553 5.828v14.453m-6.926-7.226h13.778m-10.315-3.575l6.852 7.149m-6.852 0l6.852-7.149m-3.389-10.024v-2.797m2.063 4.74v-1.865h-4.126v1.865" stroke="#fff" stroke-width="2" stroke-miterlimit="10"/><path d="M193.998 384.777c6.226 0 11.273-5.322 11.273-11.888S200.224 361 193.998 361s-11.273 5.323-11.273 11.889c0 6.566 5.047 11.888 11.273 11.888zm-53.933-116.244c0 1.632-1.253 2.953-2.8 2.953s-2.8-1.321-2.8-2.953 1.253-2.953 2.8-2.953c1.473 0 2.8 1.321 2.8 2.953zm54.007-43.203c1.546 0 2.8-1.322 2.8-2.953 0-1.631-1.254-2.953-2.8-2.953-1.547 0-2.8 1.322-2.8 2.953 0 1.631 1.253 2.953 2.8 2.953zm-83.332 14.686c0 1.631-1.252 2.952-2.8 2.952-1.547 0-2.799-1.321-2.799-2.952 0-1.632 1.252-2.953 2.799-2.953 1.548 0 2.8 1.321 2.8 2.953zm90.331 86.406c1.547 0 2.8-1.322 2.8-2.953 0-1.631-1.253-2.953-2.8-2.953-1.546 0-2.8 1.322-2.8 2.953 0 1.631 1.254 2.953 2.8 2.953zm-99.099-18.727c0 1.632-1.252 2.953-2.8 2.953-1.547 0-2.8-1.321-2.8-2.953 0-1.631 1.253-2.952 2.8-2.952 1.548 0 2.8 1.321 2.8 2.952zm-43.397-33.257c1.546 0 2.8-1.322 2.8-2.952 0-1.631-1.254-2.953-2.8-2.953-1.546 0-2.8 1.322-2.8 2.953 0 1.63 1.254 2.952 2.8 2.952zm1.105-70.01v-4.896m-3.61 8.237v-3.264h7.22v3.264" stroke="#fff" stroke-width="2" stroke-miterlimit="10"/><path d="M59.68 249.029c10.906 0 19.747-9.323 19.747-20.824 0-11.501-8.841-20.825-19.747-20.825-10.905 0-19.746 9.324-19.746 20.825s8.841 20.824 19.746 20.824zm-18.714-27.74H78.32m-37.354 13.754H78.32" stroke="#fff" stroke-width="2" stroke-miterlimit="10"/><path d="M46.713 228.127c0 1.088-.81 2.02-1.842 2.02a1.936 1.936 0 01-1.916-1.942c0-1.088.81-2.02 1.842-2.02 1.105 0 1.916.854 1.916 1.942zm9.947 0c0 1.088-.811 2.02-1.842 2.02a1.936 1.936 0 01-1.916-1.942c0-1.088.81-2.02 1.842-2.02 1.031 0 1.916.854 1.916 1.942zm9.873 0c0 1.088-.81 2.02-1.842 2.02a1.936 1.936 0 01-1.916-1.942c0-1.088.81-2.02 1.842-2.02 1.031 0 1.842.854 1.916 1.942zm9.873 0c0 1.088-.81 1.943-1.842 1.943s-1.842-.855-1.842-1.943.81-1.942 1.842-1.942c.958 0 1.842.854 1.842 1.942zm23.798-36.676v12.899m5.6-14.453l-5.6 5.128-5.6-5.128" stroke="#fff" stroke-width="2" stroke-miterlimit="10"/><path d="M104.33 187.644l-4.126 3.807-4.126-3.807m-6.41 10.257l2.284 1.398 1.621 1.01 6.631 4.041" stroke="#fff" stroke-width="2" stroke-miterlimit="10"/><path d="M91.142 191.995l1.4 7.693-7 2.486" stroke="#fff" stroke-width="2" stroke-miterlimit="10"/><path d="M88.563 192.228l1.105 5.673-5.231 1.864m5.231 11.034l2.284-1.398 1.621-1.011 6.631-4.04" stroke="#fff" stroke-width="2" stroke-miterlimit="10"/><path d="M85.542 206.448l7 2.564-1.4 7.615" stroke="#fff" stroke-width="2" stroke-miterlimit="10"/><path d="M84.437 208.857l5.231 1.942-1.105 5.673m11.641.699V204.35m-5.599 14.453l5.599-5.129 5.6 5.129" stroke="#fff" stroke-width="2" stroke-miterlimit="10"/><path d="M96.078 220.978l4.126-3.807 4.126 3.807m6.41-10.179l-2.284-1.398-1.694-1.011-6.558-4.04" stroke="#fff" stroke-width="2" stroke-miterlimit="10"/><path d="M109.267 216.627l-1.4-7.615 6.999-2.564" stroke="#fff" stroke-width="2" stroke-miterlimit="10"/><path d="M111.772 216.472l-1.032-5.673 5.231-1.942m-5.231-10.956l-2.284 1.398-1.694 1.01-6.558 4.041" stroke="#fff" stroke-width="2" stroke-miterlimit="10"/><path d="M114.866 202.174l-6.999-2.486 1.4-7.693" stroke="#fff" stroke-width="2" stroke-miterlimit="10"/><path d="M115.971 199.765l-5.231-1.864 1.032-5.673m62.259 129.143v12.899m5.6-14.453l-5.6 5.129-5.526-5.129" stroke="#fff" stroke-width="2" stroke-miterlimit="10"/><path d="M178.231 317.564l-4.2 3.807-4.126-3.807m-6.41 10.257l2.284 1.398 1.695 1.01 6.557 4.041" stroke="#fff" stroke-width="2" stroke-miterlimit="10"/><path d="M164.968 321.915l1.4 7.693-6.926 2.486" stroke="#fff" stroke-width="2" stroke-miterlimit="10"/><path d="M162.463 322.148l1.032 5.673-5.231 1.942m5.231 10.956l2.284-1.398 1.695-1.01 6.557-4.041" stroke="#fff" stroke-width="2" stroke-miterlimit="10"/><path d="M159.442 336.368l6.926 2.564-1.4 7.615" stroke="#fff" stroke-width="2" stroke-miterlimit="10"/><path d="M158.264 338.777l5.231 1.942-1.032 5.673m11.568.699V334.27m-5.526 14.453l5.526-5.129 5.6 5.129" stroke="#fff" stroke-width="2" stroke-miterlimit="10"/><path d="M169.905 350.899l4.126-3.808 4.2 3.808m6.41-10.18l-2.284-1.398-1.695-1.01-6.631-4.041" stroke="#fff" stroke-width="2" stroke-miterlimit="10"/><path d="M183.167 346.547l-1.4-7.615 6.926-2.564" stroke="#fff" stroke-width="2" stroke-miterlimit="10"/><path d="M185.672 346.392l-1.031-5.673 5.157-1.942m-5.157-10.956l-2.284 1.398-1.695 1.01-6.631 4.041" stroke="#fff" stroke-width="2" stroke-miterlimit="10"/><path d="M188.693 332.094l-6.926-2.486 1.4-7.693" stroke="#fff" stroke-width="2" stroke-miterlimit="10"/><path d="M189.798 329.763l-5.157-1.942 1.031-5.673m-38.976 42.97v14.764m-7-7.382h13.999m-10.462-3.652l6.926 7.304m-6.926 0l6.926-7.304m-4.937-76.149v14.763m-6.999-7.382h13.999m-10.463-3.652l6.926 7.305m-6.926 0l6.926-7.305m3.537-76.848l2.873 5.284h5.821l-2.947 5.283 2.947 5.284h-5.821l-2.873 5.284-2.874-5.284h-5.82l2.873-5.284-2.873-5.283h5.82l2.874-5.284zm0-8.159v18.726m6.189-18.027l-6.189 5.75-6.189-5.75" stroke="#fff" stroke-width="2" stroke-miterlimit="10"/><path d="M136.823 220.745l3.315 2.098 2.432 1.477 9.652 5.827" stroke="#fff" stroke-width="2" stroke-miterlimit="10"/><path d="M140.507 215.461l1.621 8.548-7.81 2.797m2.505 12.666l3.315-2.021 2.432-1.476 9.652-5.828" stroke="#fff" stroke-width="2" stroke-miterlimit="10"/><path d="M134.318 233.489l7.81 2.797-1.621 8.547m11.715 4.041v-18.727m-6.189 18.028l6.189-5.75 6.189 5.75m9.21-8.703l-3.389-2.021-2.432-1.476-9.578-5.828" stroke="#fff" stroke-width="2" stroke-miterlimit="10"/><path d="M163.863 244.833l-1.547-8.547 7.81-2.797m-2.505-12.744l-3.389 2.098-2.432 1.477-9.578 5.827" stroke="#fff" stroke-width="2" stroke-miterlimit="10"/><path d="M170.126 226.806l-7.81-2.797 1.547-8.548M9.873 268.999c-3.094 1.787-5.6 4.352-7.368 7.615C.81 279.645 0 283.063 0 286.56c0 10.956 8.473 19.892 18.862 19.892 10.389 0 18.862-8.858 18.862-19.892 0-3.497-.884-6.915-2.505-9.946-1.621-2.953-3.832-5.361-6.631-7.149m-.516-4.817c1.768-2.254 2.726-5.051 2.726-8.004 0-1.554-.295-3.108-.81-4.507" stroke="#fff" stroke-width="2" stroke-miterlimit="10"/><path d="M31.166 249.418l-2.431-1.01.295-1.71.736-3.885c.295-1.399-.442-2.797-1.694-3.263l-5.305-2.332c-1.253-.543-2.653-.077-3.39 1.166l-1.989 3.341-.81 1.477-2.432-1.088c-.663-.311-1.473.077-1.768.777l-.074.155c-.294.7.074 1.554.737 1.865l17.094 7.304c.663.233 1.4-.078 1.694-.777l.074-.155c.295-.7 0-1.554-.737-1.865zm3.611 27.429l9.43-6.061 2.8-3.419m-2.799 3.419l5.01 1.399m-11.788 2.797l1.178-3.419M23.283 384.777c6.226 0 11.273-5.322 11.273-11.888S29.509 361 23.283 361s-11.273 5.323-11.273 11.889c0 6.566 5.047 11.888 11.273 11.888zm7.147-58.355c1.546 0 2.8-1.322 2.8-2.953 0-1.631-1.254-2.953-2.8-2.953-1.547 0-2.8 1.322-2.8 2.953 0 1.631 1.253 2.953 2.8 2.953zm163.568-140.799v14.531m-6.926-7.227h13.778m-10.315-3.652l6.852 7.227m-6.852 0l6.852-7.227m-3.389 15.541c6.226 0 11.273-5.323 11.273-11.889 0-6.565-5.047-11.888-11.273-11.888s-11.273 5.323-11.273 11.888c0 6.566 5.047 11.889 11.273 11.889zm-47.302-19.659v14.686m-7-7.382h13.999m-10.462-3.652l6.926 7.382m-6.926 0l6.926-7.382M23.283 204.816c6.226 0 11.273-5.323 11.273-11.889 0-6.565-5.047-11.888-11.273-11.888s-11.273 5.323-11.273 11.888c0 6.566 5.047 11.889 11.273 11.889zM270.846 371.49v12.821m5.599-14.453l-5.599 5.129-5.526-5.129" stroke="#fff" stroke-width="2" stroke-miterlimit="10"/><path d="M275.046 367.682l-4.2 3.808-4.126-3.808m-4.937 4.352l1.4 7.615-6.999 2.564" stroke="#fff" stroke-width="2" stroke-miterlimit="10"/><path d="M259.278 372.189l1.032 5.75-5.232 1.865m30.43 2.409l-6.926-2.564 1.4-7.615" stroke="#fff" stroke-width="2" stroke-miterlimit="10"/><path d="M286.613 379.804l-5.157-1.865 1.031-5.75m-27.04-29.216l-6.189-7.771c.663-.233 1.4-.31 2.136-.31 3.611 0 3.611 1.787 7.221 1.787l-7.884-12.433-3.684-5.827c.737-.311 1.548-.544 2.358-.467 3.095 0 3.095 1.787 6.115 1.787l-18.419-33.956-18.42 33.956c3.094 0 3.094-1.787 6.115-1.787a6.09 6.09 0 012.358.467l-.074.155-11.494 18.105c3.61 0 3.61-1.787 7.221-1.787.737 0 1.4.077 2.136.31l-.589.7-14.073 17.794c4.495 0 4.495-1.787 8.989-1.787 4.495 0 4.495 1.787 8.989 1.787 1.768 0 3.61-.389 5.231-1.166v11.19h7.442v-11.19c1.621.777 3.463 1.166 5.231 1.166 4.495 0 4.495-1.787 8.989-1.787 4.495 0 4.495 1.787 8.989 1.787l-8.694-10.723zm95.783-73.974c-9.21 5.206-12.599 17.328-7.662 26.963 4.936 9.713 16.43 13.288 25.566 8.081 9.21-5.206 12.6-17.327 7.663-26.963-1.621-3.108-3.979-5.75-6.852-7.615m-14.736-24.321c-5.968 2.875-8.621 10.412-5.821 16.706.589 1.321 1.4 2.565 2.358 3.575m17.683-.777c2.726-3.497 3.463-8.237 1.916-12.511" stroke="#fff" stroke-width="2" stroke-miterlimit="10"/><path d="M366.187 256.256c0 .855-.663 1.476-1.4 1.476-.737 0-1.4-.699-1.4-1.476s.663-1.477 1.4-1.477c.737 0 1.4.622 1.4 1.477zm-9.136 0c0 .855-.663 1.476-1.4 1.476-.811 0-1.4-.699-1.4-1.476 0-.855.663-1.477 1.4-1.477.81 0 1.4.622 1.4 1.477zm5.157 3.108c0 .855-.663 1.632-1.547 1.632-.81 0-1.547-.7-1.547-1.632 0-.855.663-1.632 1.547-1.632.884 0 1.547.7 1.547 1.632z" fill="#fff"/><path d="M372.523 249.418l-2.431-1.01.368-1.71.737-3.885c.295-1.399-.442-2.797-1.694-3.263l-5.379-2.332c-1.253-.543-2.652-.077-3.389 1.166l-1.99 3.341-.81 1.477-2.431-1.088c-.664-.311-1.474.077-1.769.777l-.073.155c-.295.7.073 1.554.736 1.865l17.094 7.304c.663.311 1.474-.078 1.768-.777l.074-.155c.221-.7-.074-1.554-.811-1.865z" stroke="#fff" stroke-width="2" stroke-miterlimit="10"/><path d="M361.766 278.634c0 .933-.736 1.71-1.621 1.71-.884 0-1.621-.777-1.621-1.71 0-.932.737-1.709 1.621-1.709.885 0 1.621.699 1.621 1.709zm0 7.848c0 .933-.736 1.71-1.621 1.71-.884 0-1.621-.777-1.621-1.71 0-.932.737-1.709 1.621-1.709.885 0 1.621.777 1.621 1.709zm0 7.926c0 .933-.736 1.71-1.621 1.71-.884 0-1.621-.777-1.621-1.71 0-.932.737-1.709 1.621-1.709.885 0 1.621.777 1.621 1.709z" fill="#fff"/><path d="M376.134 276.847l9.431-6.061 2.8-3.419m-2.8 3.419l5.01 1.399m-11.789 2.797l1.179-3.419m-35.661 5.284l-9.431-6.061-2.8-3.419m2.8 3.419l-5.01 1.399m11.789 2.797l-1.179-3.419m28.145 9.558c.958-.855 1.253-2.02 1.179-4.274a34.456 34.456 0 00-1.547-6.76c.589 0 1.032 0 1.179-.078.958-.155.663-1.865.589-2.486-.073-.622.295-1.243.221-2.254-.073-1.01-2.873-1.243-6.852-1.243-2.579 0-5.157.233-7.663.622-2.136.311-4.42.466-4.42 1.554s-.59 2.098.368 3.108c.59.622 6.484.777 11.347.855.294 1.476.663 4.351.294 6.138-.442 2.098-1.547 3.497-1.399 4.585l6.704.233zm-110.077-25.487c4.495-2.642 12.821-6.061 19.673-1.709 9.947 6.371 15.178 20.591 15.178 20.591-7.516 2.564-19.452 2.253-19.452 2.253s-11.936.311-19.451-2.253c.737-6.916 7.515-12.355 7-13.52-.221-.544-1.179-.622-2.137-.467" stroke="#fff" stroke-width="2" stroke-miterlimit="10"/><path d="M296.265 278.79c.148 3.263-.589 4.662-.589 4.662-8.694 3.574-35.072 3.574-43.692 0 0 0-.811-1.476-.59-4.662 0-1.71.59-3.419 1.769-4.662.368.155.81.31 1.252.466 7.516 2.564 19.452 2.253 19.452 2.253s11.936.311 19.451-2.253c.442-.156.81-.311 1.253-.466 1.031 1.243 1.694 2.952 1.694 4.662zm-36.692-20.125c0 2.564-1.99 4.662-4.421 4.662s-4.421-2.098-4.421-4.662c0-2.565 1.99-4.663 4.421-4.663s4.421 2.098 4.421 4.663zm35.513 67.757v25.331m-12.009-12.665h24.019m-17.978-6.294l11.936 12.588m-11.936 0l11.936-12.588m-5.968-17.484v-4.817m3.611 8.159v-3.186h-7.221v3.186" stroke="#fff" stroke-width="2" stroke-miterlimit="10"/><path d="M295.086 359.834c10.865 0 19.673-9.288 19.673-20.746 0-11.459-8.808-20.747-19.673-20.747-10.865 0-19.672 9.288-19.672 20.747 0 11.458 8.807 20.746 19.672 20.746zm69.554 5.828v14.453m-6.852-7.226h13.704m-10.242-3.575l6.779 7.149m-6.779 0l6.779-7.149m-3.389-10.024v-2.797m2.063 4.74v-1.865h-4.126v1.865" stroke="#fff" stroke-width="2" stroke-miterlimit="10"/><path d="M364.64 384.777c6.226 0 11.273-5.322 11.273-11.888S370.866 361 364.64 361s-11.273 5.323-11.273 11.889c0 6.566 5.047 11.888 11.273 11.888zm-53.934-116.244c0 1.632-1.252 2.953-2.799 2.953-1.548 0-2.8-1.321-2.8-2.953s1.252-2.953 2.8-2.953c1.547 0 2.799 1.321 2.799 2.953zm54.081-43.203c1.546 0 2.8-1.322 2.8-2.953 0-1.631-1.254-2.953-2.8-2.953-1.546 0-2.8 1.322-2.8 2.953 0 1.631 1.254 2.953 2.8 2.953zm-83.331 14.686c0 1.631-1.253 2.952-2.8 2.952s-2.8-1.321-2.8-2.952c0-1.632 1.253-2.953 2.8-2.953s2.8 1.321 2.8 2.953zm90.331 86.406c1.546 0 2.799-1.322 2.799-2.953 0-1.631-1.253-2.953-2.799-2.953-1.547 0-2.8 1.322-2.8 2.953 0 1.631 1.253 2.953 2.8 2.953zm-99.173-18.727c0 1.632-1.252 2.953-2.8 2.953-1.547 0-2.8-1.321-2.8-2.953 0-1.631 1.253-2.952 2.8-2.952 1.548 0 2.8 1.321 2.8 2.952zm-43.397-33.257c1.546 0 2.8-1.322 2.8-2.952 0-1.631-1.254-2.953-2.8-2.953-1.546 0-2.8 1.322-2.8 2.953 0 1.63 1.254 2.952 2.8 2.952zm1.105-70.01v-4.896m-3.61 8.237v-3.264h7.294v3.264" stroke="#fff" stroke-width="2" stroke-miterlimit="10"/><path d="M230.322 249.029c10.906 0 19.746-9.323 19.746-20.824 0-11.501-8.84-20.825-19.746-20.825-10.905 0-19.746 9.324-19.746 20.825s8.841 20.824 19.746 20.824zm-18.641-27.74h37.356m-37.356 13.754h37.356" stroke="#fff" stroke-width="2" stroke-miterlimit="10"/><path d="M217.428 228.127c0 1.088-.81 1.943-1.842 1.943-1.031 0-1.842-.855-1.842-1.943s.811-1.942 1.842-1.942c.958 0 1.842.932 1.842 1.942zm9.873 0c0 1.088-.81 2.02-1.842 2.02a1.937 1.937 0 01-1.916-1.942c0-1.088.811-2.02 1.842-2.02 1.032 0 1.916.854 1.916 1.942zm9.873 0c0 1.088-.81 2.02-1.842 2.02-1.031 0-1.915-.854-1.915-1.942s.81-2.02 1.841-2.02c1.106 0 1.916.854 1.916 1.942zm9.873 0c0 1.088-.81 2.02-1.842 2.02-1.031 0-1.915-.854-1.915-1.942s.81-2.02 1.842-2.02c1.105 0 1.915.854 1.915 1.942zm23.799-36.676v12.899m5.599-14.453l-5.599 5.128-5.526-5.128" stroke="#fff" stroke-width="2" stroke-miterlimit="10"/><path d="M275.046 187.644l-4.2 3.807-4.126-3.807m-6.41 10.257l2.284 1.398 1.694 1.01 6.558 4.041" stroke="#fff" stroke-width="2" stroke-miterlimit="10"/><path d="M261.783 191.995l1.4 7.693-6.999 2.486" stroke="#fff" stroke-width="2" stroke-miterlimit="10"/><path d="M259.278 192.228l1.032 5.673-5.232 1.864m5.232 11.034l2.284-1.398 1.694-1.011 6.558-4.04" stroke="#fff" stroke-width="2" stroke-miterlimit="10"/><path d="M256.184 206.448l6.999 2.564-1.4 7.615" stroke="#fff" stroke-width="2" stroke-miterlimit="10"/><path d="M255.078 208.857l5.232 1.942-1.032 5.673m11.568.699V204.35m-5.526 14.453l5.526-5.129 5.599 5.129" stroke="#fff" stroke-width="2" stroke-miterlimit="10"/><path d="M266.72 220.978l4.126-3.807 4.2 3.807m6.41-10.179l-2.284-1.398-1.695-1.011-6.631-4.04" stroke="#fff" stroke-width="2" stroke-miterlimit="10"/><path d="M279.982 216.627l-1.4-7.615 6.926-2.564" stroke="#fff" stroke-width="2" stroke-miterlimit="10"/><path d="M282.487 216.472l-1.031-5.673 5.157-1.942m-5.157-10.956l-2.284 1.398-1.695 1.01-6.631 4.041" stroke="#fff" stroke-width="2" stroke-miterlimit="10"/><path d="M285.508 202.174l-6.926-2.486 1.4-7.693" stroke="#fff" stroke-width="2" stroke-miterlimit="10"/><path d="M286.613 199.765l-5.157-1.864 1.031-5.673m62.259 129.143v12.899m5.6-14.453l-5.6 5.129-5.599-5.129" stroke="#fff" stroke-width="2" stroke-miterlimit="10"/><path d="M348.872 317.564l-4.126 3.807-4.126-3.807m-6.41 10.257l2.284 1.398 1.621 1.01 6.631 4.041" stroke="#fff" stroke-width="2" stroke-miterlimit="10"/><path d="M335.684 321.915l1.4 7.693-7 2.486" stroke="#fff" stroke-width="2" stroke-miterlimit="10"/><path d="M333.105 322.148l1.105 5.673-5.231 1.942m5.231 10.956l2.284-1.398 1.621-1.01 6.631-4.041" stroke="#fff" stroke-width="2" stroke-miterlimit="10"/><path d="M330.084 336.368l7 2.564-1.4 7.615" stroke="#fff" stroke-width="2" stroke-miterlimit="10"/><path d="M328.979 338.777l5.231 1.942-1.105 5.673m11.641.699V334.27m-5.599 14.453l5.599-5.129 5.6 5.129" stroke="#fff" stroke-width="2" stroke-miterlimit="10"/><path d="M340.62 350.899l4.126-3.808 4.126 3.808m6.411-10.18l-2.285-1.398-1.694-1.01-6.558-4.041" stroke="#fff" stroke-width="2" stroke-miterlimit="10"/><path d="M353.809 346.547l-1.4-7.615 6.999-2.564" stroke="#fff" stroke-width="2" stroke-miterlimit="10"/><path d="M356.314 346.392l-1.032-5.673 5.232-1.942m-5.231-10.956l-2.285 1.398-1.694 1.01-6.558 4.041" stroke="#fff" stroke-width="2" stroke-miterlimit="10"/><path d="M359.408 332.094l-6.999-2.486 1.4-7.693" stroke="#fff" stroke-width="2" stroke-miterlimit="10"/><path d="M360.514 329.763l-5.232-1.942 1.032-5.673m-38.903 42.97v14.764m-6.999-7.382h13.925m-10.389-3.652l6.926 7.304m-6.926 0l6.926-7.304m-4.936-76.149v14.763m-7-7.382h13.925m-10.388-3.652l6.926 7.305m-6.926 0l6.926-7.305m3.463-76.848l2.947 5.284h5.747l-2.874 5.283 2.874 5.284h-5.747l-2.947 5.284-2.874-5.284h-5.821l2.948-5.284-2.948-5.283h5.821l2.874-5.284zm0-8.159v18.726m6.262-18.027l-6.263 5.75-6.189-5.75" stroke="#fff" stroke-width="2" stroke-miterlimit="10"/><path d="M307.538 220.745l3.316 2.098 2.431 1.477 9.578 5.827" stroke="#fff" stroke-width="2" stroke-miterlimit="10"/><path d="M311.222 215.461l1.548 8.548-7.737 2.797m2.505 12.666l3.316-2.021 2.431-1.476 9.578-5.828" stroke="#fff" stroke-width="2" stroke-miterlimit="10"/><path d="M305.033 233.489l7.737 2.797-1.548 8.547m11.642 4.041v-18.727m-6.19 18.028l6.189-5.75 6.263 5.75m9.137-8.703l-3.316-2.021-2.431-1.476-9.652-5.828" stroke="#fff" stroke-width="2" stroke-miterlimit="10"/><path d="M334.579 244.833l-1.548-8.547 7.737-2.797m-2.505-12.744l-3.316 2.098-2.431 1.477-9.652 5.827" stroke="#fff" stroke-width="2" stroke-miterlimit="10"/><path d="M340.768 226.806l-7.737-2.797 1.548-8.548m-153.991 53.538c-9.21 5.206-12.599 17.328-7.662 26.963 4.936 9.713 16.43 13.288 25.567 8.081 9.209-5.206 12.599-17.327 7.662-26.963-1.621-3.108-3.979-5.75-6.852-7.615m-.516-4.817c1.768-2.254 2.726-5.051 2.726-8.004 0-1.554-.294-3.108-.81-4.507" stroke="#fff" stroke-width="2" stroke-miterlimit="10"/><path d="M201.882 249.418l-2.432-1.01.295-1.71.737-3.885c.295-1.399-.442-2.797-1.695-3.263l-5.378-2.332c-1.253-.543-2.653-.077-3.39 1.166l-1.989 3.341-.81 1.477-2.432-1.088c-.663-.311-1.473.077-1.768.777l-.074.155c-.295.7.074 1.554.737 1.865l17.094 7.304c.663.311 1.473-.078 1.768-.777l.074-.155c.294-.7-.074-1.554-.737-1.865zm3.61 27.429l9.431-6.061 2.8-3.419m-2.8 3.419l4.937 1.399m-11.715 2.797l1.105-3.419m-15.252 113.214c6.226 0 11.273-5.322 11.273-11.888S200.224 361 193.998 361s-11.273 5.323-11.273 11.889c0 6.566 5.047 11.888 11.273 11.888zm7.073-58.355c1.547 0 2.8-1.322 2.8-2.953 0-1.631-1.253-2.953-2.8-2.953-1.546 0-2.8 1.322-2.8 2.953 0 1.631 1.254 2.953 2.8 2.953zM364.64 185.623v14.531m-6.852-7.227h13.704m-10.242-3.652l6.779 7.227m-6.779 0l6.779-7.227m-3.389 15.541c6.226 0 11.273-5.323 11.273-11.889 0-6.565-5.047-11.888-11.273-11.888s-11.273 5.323-11.273 11.888c0 6.566 5.047 11.889 11.273 11.889zm-47.229-19.659v14.686m-6.999-7.382h13.925m-10.389-3.652l6.926 7.382m-6.926 0l6.926-7.382m-126.876 16.007c6.226 0 11.273-5.323 11.273-11.889 0-6.565-5.047-11.888-11.273-11.888s-11.273 5.323-11.273 11.888c0 6.566 5.047 11.889 11.273 11.889z" stroke="#fff" stroke-width="2" stroke-miterlimit="10"/></g></svg>