<svg width="35" height="30" fill="none" xmlns="http://www.w3.org/2000/svg"><path fill-rule="evenodd" clip-rule="evenodd" d="M17.5 22.941c-.744 0-1.346.593-1.346 1.324 0 .73.602 1.323 1.346 1.323.743 0 1.346-.593 1.346-1.323 0-.731-.603-1.324-1.346-1.324zm0-13.676a.89.89 0 00-.898.882v9.706a.89.89 0 00.898.882.89.89 0 00.897-.882v-9.706a.89.89 0 00-.897-.882zm0-7.5c.312 0 .678.205.827.455l14.75 24.664a.95.95 0 010 .896c-.08.135-.683.456-.995.455H2.918c-.313 0-.915-.32-.996-.455a.953.953 0 010-.896L16.672 2.22c.15-.25.516-.455.828-.455zM17.5 0c-.977 0-1.874.496-2.37 1.324L.365 25.988a2.612 2.612 0 00.015 2.688c.566.944 1.558 1.326 2.538 1.324h29.164c.98.004 1.972-.38 2.538-1.324a2.61 2.61 0 00.014-2.688L19.87 1.324A2.745 2.745 0 0017.5 0z" fill="#F88"/></svg>