<svg width="26" height="26" fill="none" xmlns="http://www.w3.org/2000/svg"><circle cx="13" cy="13" r="12.5" stroke="#fff"/><path d="M15.182 13c0 1.184-.977 2.143-2.182 2.143s-2.182-.96-2.182-2.143c0-1.184.977-2.143 2.182-2.143s2.182.96 2.182 2.143z" fill="#fff"/><path fill-rule="evenodd" clip-rule="evenodd" d="M13 8a8.905 8.905 0 00-8 5 8.905 8.905 0 008 5 8.905 8.905 0 008-5 8.905 8.905 0 00-8-5zm0 8.571c2.008 0 3.636-1.599 3.636-3.571 0-1.972-1.628-3.571-3.636-3.571S9.364 11.028 9.364 13c0 1.972 1.628 3.571 3.636 3.571z" fill="#fff"/></svg>