<svg width="193" height="106" fill="none" xmlns="http://www.w3.org/2000/svg"><path d="M66.027 31.808h12.01v3.905h-5.714v27.583h-6.296V31.808zm11.84 31.488h6.161l.585-8.368h2.97l.586 8.368h6.161l-3.283-31.488H81.15l-3.284 31.488zm6.97-11.83l1.08-15.755h.362l1.078 15.755h-2.52zm17.772.807v5.931c0 .807.628 1.034.988 1.034.587 0 .991-.494.991-1.034v-7.325c0-.99-.181-2.068-2.52-2.068h-2.563v-3.464h2.652c1.8 0 2.431-.405 2.431-2.339v-6.261c0-.54-.404-1.034-.991-1.034-.36 0-.988.225-.988 1.034v5.136h-6.298V37.43c0-2.205.27-5.622 4.677-5.622h5.221c4.412 0 4.679 3.417 4.679 5.622v5.038c0 3.419-2.383 4.363-4.272 4.273v.315c4.227-.089 4.272 3.15 4.272 4.273v6.343c0 2.203-.267 5.623-4.679 5.623h-5.221c-4.407 0-4.677-3.42-4.677-5.623v-5.399h6.298zm11.589-20.465h14.576v31.488h-6.294V35.713h-1.982v27.583h-6.3V31.808zm18.258 31.488h6.298V52.59h3.598c4.409 0 4.679-3.42 4.679-5.623V37.43c0-2.205-.27-5.622-4.679-5.622h-9.896v31.488zm6.298-14.17V35.713h.81c.675 0 1.17.584 1.17 1.572v10.267c0 .99-.495 1.574-1.17 1.574h-.81zm11.336 8.547c0 2.203.272 5.623 4.679 5.623h5.218c4.41 0 4.679-3.42 4.679-5.623V37.43c0-2.205-.269-5.623-4.679-5.623h-5.218c-4.407 0-4.679 3.418-4.679 5.623v20.242zm8.279.53c0 .542-.404 1.035-.989 1.035-.362 0-.992-.226-.992-1.035V36.748c0-.81.63-1.035.992-1.035.585 0 .989.495.989 1.035v21.455zm25.915-26.395h8.187v31.488h-6.297V43.549h-.226l-3.238 19.747h-5.038l-3.238-19.747h-.227v19.747h-6.296V31.808h8.185l4.093 22.13 4.095-22.13zm-127.838 3.11c-.08 3.657-.514 7.52-1.073 9.82.2-3.974-.277-9.58-1.192-13.96-.915-4.38-3.504-11.682-5.566-15.075-1.908 3.225-4.257 9.55-5.492 15.036-1.237 5.494-1.273 12.131-1.273 14.126-.326-1.684-1.15-7.664-.915-13.685.195-4.968 1.356-10.065 1.991-12.411C45.354 10.925 48.1 5.92 48.615 5.132c.514.789 3.975 6.96 5.767 13.439 1.784 6.485 2.144 12.686 2.064 16.347zm-7.79 27.987c-1.078-2.025-2.75-5.88-2.908-11.837-.042-5.765 2.266-10.71 2.94-11.736.599 1.025 2.592 5.334 2.826 11.215.16 5.76-1.747 10.291-2.858 12.358zm8.425-44.257C54.898 9.066 49.413 1.276 48.656 0c-1.2 1.79-5.576 8.665-7.8 16.304-2.426 8.516-2.78 16.065-1.945 23.508.833 7.431 3.976 15.07 3.976 15.07 1.67 4.01 4.174 8.302 5.8 10.408 2.39-3.105 7.882-12.358 9.589-24.448.953-6.718.994-12.604-1.195-22.194z" fill="#fff"/><path d="M52.37 67.52H35.722v11.17c.016-.017.028-.032.044-.047 3.923-3.92 10.279-3.92 14.2 0 3.922 3.925 3.922 10.284 0 14.202-.014.017-.031.032-.047.049 0 0 0 .004-.004.004a.655.655 0 01-.057.052 20 20 0 01-14.136 5.83 20.032 20.032 0 01-14.186-5.873c-6.9-6.905-7.72-17.589-2.456-25.386a19.74 19.74 0 012.456-2.984 19.998 19.998 0 0114.186-5.875V31.808C15.998 31.808 0 47.806 0 67.521c0 19.727 15.998 35.721 35.722 35.721 10.294 0 19.557-4.353 26.072-11.308V67.52H52.37zm14.966 34.544h1.492c1.574 0 2.508-.475 2.508-2.148 0-1.885-1.066-2.278-2.886-2.278h-1.114v4.426zm4.557-10.625v1.18h-4.557v3.838h1.557c2.132 0 3.804.723 3.804 3.46 0 2.345-1.41 3.328-3.541 3.328h-3.132V91.439h5.87zm11.971.001v11.805h-1.312V92.619h-3.967v4.674c0 2.641-.05 6.1-2.347 6.1-.245 0-.524-.033-.786-.098v-1.165c.18.066.36.082.509.082 1.212 0 1.31-1.835 1.31-5.624v-5.149h6.593zm7.358.95h-.031l-1.559 6.28h3.115l-1.525-6.28zm-.852-.95h1.738l3.312 11.805h-1.442l-.936-3.394H89.32l-.868 3.394h-1.443l3.36-11.806zm13.739 0v1.18h-4.232v10.625h-1.311V91.439h5.543zm6.423.954c-2.017 0-2.492 2.082-2.492 4.723 0 3.426.362 5.229 2.525 5.229s2.541-1.803 2.541-5.213c0-2.64-.491-4.739-2.574-4.739zm-3.853 4.935c0-2.705.443-6.116 3.886-6.116 3.46 0 3.903 3.411 3.903 6.116 0 3.263-.46 6.199-3.903 6.199s-3.886-2.936-3.886-6.199zm12.901 4.735h1.951c1.41 0 2.05-.672 2.05-2.213 0-1.591-.819-2.213-2.163-2.213h-1.838v4.426zm0-5.607h1.623c1.313 0 2.05-.476 2.05-1.985 0-1.344-.721-1.853-1.918-1.853h-1.755v3.838zm-1.311-5.018h3.098c2.214 0 3.249 1.18 3.249 2.953 0 1.311-.608 2.279-1.724 2.573v.033c1.116.148 2.049 1.23 2.049 2.87 0 2.196-1.212 3.377-3.41 3.377h-3.262V91.439zm16.327.001v1.18h-4.606v3.837h4.311v1.181h-4.311v4.426h4.622v1.181h-5.935V91.439h5.919zm4.999 10.624h3.673V91.439h1.313v10.625h3.672V91.439h1.312v10.625h.951V106h-1.246v-2.755h-10.985V91.439h1.31v10.625zm20.067-10.624v1.18h-4.606v3.837h4.312v1.181h-4.312v4.426h4.623v1.181h-5.936V91.439h5.919zm5 5.017h4.51V91.44h1.311v11.806h-1.311v-5.607h-4.51v5.607h-1.311V91.439h1.311v5.018zm15.394-1.471c0-1.428-.475-2.592-2.117-2.592-2.278 0-2.294 3.214-2.294 4.771 0 2.396.131 5.181 2.294 5.181 1.707 0 1.985-1.409 2.117-3.36h1.31c-.145 2.722-.818 4.542-3.328 4.542-3.476 0-3.754-3.543-3.754-6.33 0-2.656.491-5.985 3.722-5.985 2.229 0 3.36 1.657 3.36 3.773h-1.31zm6.366 2.521l4.297-6.068h1.638l-3.772 4.936 3.887 6.87h-1.524l-3.149-5.837-1.377 1.722v4.115h-1.312V91.439h1.312v6.068z" fill="#fff"/><path fill-rule="evenodd" clip-rule="evenodd" d="M66.027 67.528h126.444v19.678H66.027V67.528zm11.479 15.745V71.467h-7.547v11.806h2.843v-9.57h1.859v9.57h2.845zm4.535-11.806h6.608v2.236h-3.765v2.318h3.37v2.236h-3.37v2.779h3.765v2.237h-6.608V71.467zm14.088 5.08h-.51v-2.96h.46c.822 0 1.43.28 1.43 1.448 0 1.167-.674 1.513-1.38 1.513zm-3.355 6.726h2.845v-4.604h1.282c1.677 0 3.454-.692 3.454-3.602 0-3.01-1.809-3.6-3.454-3.6h-4.127v11.806zm10.667-11.806h6.61v2.236h-3.765v2.318h3.371v2.236h-3.371v2.779h3.765v2.237h-6.61V71.467zm14.087 5.08h-.51v-2.96h.462c.822 0 1.431.28 1.431 1.448 0 1.167-.676 1.513-1.383 1.513zm-3.354 6.726h2.844v-4.604h1.284c1.677 0 3.451-.692 3.451-3.602 0-3.01-1.807-3.6-3.451-3.6h-4.128v11.806zm14.861-4.49l-.755-5.196h-.016l-.74 5.197h1.511zm.988-7.316l2.613 11.806h-2.794l-.427-2.367h-2.172l-.361 2.367h-2.828l2.565-11.806h3.404zm9.616 9.685h-.494v-3.01h.544c.706 0 1.348.378 1.348 1.562 0 1.168-.576 1.448-1.398 1.448zm3.091-7.565v-2.12h-6.428v11.806h4.127c1.643 0 3.452-.594 3.452-3.602 0-2.911-1.776-3.65-3.452-3.65h-1.284v-2.434h3.585zm7.477.755v5.985c0 .707.495 1.052.986 1.052.477 0 .986-.345.986-1.052v-5.985c0-.674-.509-.97-.986-.97-.491 0-.986.296-.986.97zm4.817.196v5.296c0 2.351-1.166 3.715-3.831 3.715-2.63 0-3.829-1.364-3.829-3.716v-5.31c0-1.858 1.166-3.322 3.846-3.322s3.814 1.496 3.814 3.337zm5.505 8.735h2.615v-9.57h2.089v-2.236h-6.94v2.236h2.236v9.57zm11.226-7.103l1.991-4.703h3.09l-2.614 5.212 2.614 6.594h-2.992l-1.315-4.111-.774 1.364v2.747h-2.712V71.467h2.712v4.703zm12.423-2.583l.756 5.197h-1.512l.741-5.197h.015zm4.356 9.686l-2.612-11.806h-3.405l-2.565 11.806h2.828l.362-2.367h2.171l.428 2.367h2.793z" fill="#fff"/></svg>