<svg width="35" height="30" viewBox="0 0 35 30" fill="none" xmlns="http://www.w3.org/2000/svg">
<path fill-rule="evenodd" clip-rule="evenodd" d="M17.4999 22.9411C16.7564 22.9411 16.1539 23.5336 16.1539 24.2647C16.1539 24.9953 16.7564 25.5882 17.4999 25.5882C18.2434 25.5882 18.846 24.9953 18.846 24.2647C18.846 23.5336 18.2434 22.9411 17.4999 22.9411ZM17.4999 9.26469C17.0046 9.26469 16.6025 9.65999 16.6025 10.147V19.8529C16.6025 20.34 17.0046 20.7353 17.4999 20.7353C17.9953 20.7353 18.3973 20.34 18.3973 19.8529V10.147C18.3973 9.65999 17.9953 9.26469 17.4999 9.26469ZM17.4999 1.7647C17.8118 1.7647 18.1779 1.97029 18.3273 2.21956L33.0779 26.8844C33.2273 27.1341 33.2278 27.5307 33.0779 27.7804C32.9967 27.9154 32.3937 28.2361 32.0823 28.2353H2.91755C2.60526 28.2353 2.00312 27.9154 1.92191 27.7804C1.7725 27.5307 1.77295 27.1341 1.92191 26.8844L16.6725 2.21956C16.8219 1.97029 17.1881 1.7647 17.4999 1.7647ZM17.4999 0C16.5231 0 15.6262 0.495882 15.1304 1.32353L0.365413 25.9879C-0.130388 26.8182 -0.117824 27.847 0.379771 28.6764C0.945566 29.6201 1.93806 30.0022 2.91755 30H32.0823C33.0618 30.0044 34.0543 29.6201 34.6201 28.6764C35.1177 27.847 35.1307 26.8182 34.6344 25.9879L19.8694 1.32353C19.3736 0.495882 18.4767 0 17.4999 0Z" fill="#FF8888"/>
</svg>
