<svg width="26" height="26" viewBox="0 0 26 26" fill="none" xmlns="http://www.w3.org/2000/svg">
<circle cx="13" cy="13" r="12.5" stroke="white"/>
<path d="M15.1818 13C15.1818 14.1835 14.205 15.1429 13 15.1429C11.795 15.1429 10.8182 14.1835 10.8182 13C10.8182 11.8165 11.795 10.8571 13 10.8571C14.205 10.8571 15.1818 11.8165 15.1818 13Z" fill="white"/>
<path fill-rule="evenodd" clip-rule="evenodd" d="M13 8C9.48739 8 6.44971 10.0386 5 13C6.44971 15.9614 9.48739 18 13 18C16.5126 18 19.5503 15.9614 21 13C19.5503 10.0386 16.5126 8 13 8ZM13 16.5714C15.0083 16.5714 16.6364 14.9724 16.6364 13C16.6364 11.0276 15.0083 9.42857 13 9.42857C10.9917 9.42857 9.36364 11.0276 9.36364 13C9.36364 14.9724 10.9917 16.5714 13 16.5714Z" fill="white"/>
</svg>
