<svg width="193" height="106" viewBox="0 0 193 106" fill="none" xmlns="http://www.w3.org/2000/svg">
<path d="M66.0273 31.8081H78.0374V35.7127H72.323V63.2958H66.0273V31.8081Z" fill="white"/>
<path d="M77.8665 63.2957H84.0285L84.6129 54.9276H87.5829L88.1688 63.2957H94.3301L91.0467 31.8081H81.1506L77.8665 63.2957ZM84.8378 51.4661L85.9174 35.7111H86.2791L87.3572 51.4661H84.8378Z" fill="white"/>
<path d="M102.609 52.2731V58.204C102.609 59.0111 103.237 59.2376 103.597 59.2376C104.184 59.2376 104.588 58.7438 104.588 58.204V50.8794C104.588 49.8897 104.407 48.8108 102.068 48.8108H99.5053V45.347H102.157C103.957 45.347 104.588 44.9423 104.588 43.0081V36.747C104.588 36.2072 104.184 35.7127 103.597 35.7127C103.237 35.7127 102.609 35.9384 102.609 36.747V41.8832H96.311V37.4304C96.311 35.2251 96.5806 31.8081 100.988 31.8081H106.209C110.621 31.8081 110.888 35.2251 110.888 37.4304V42.4683C110.888 45.8868 108.505 46.8313 106.616 46.7414V47.0563C110.843 46.9672 110.888 50.2052 110.888 51.3294V57.6719C110.888 59.8749 110.621 63.295 106.209 63.295H100.988C96.5806 63.295 96.311 59.8749 96.311 57.6719V52.2731H102.609Z" fill="white"/>
<path d="M114.198 31.8081H128.774V63.2958H122.48V35.7127H120.498V63.2958H114.198V31.8081Z" fill="white"/>
<path d="M132.456 63.2957H138.754V52.5895H142.352C146.761 52.5895 147.031 49.1702 147.031 46.9672V37.4304C147.031 35.2251 146.761 31.8081 142.352 31.8081H132.456V63.2957ZM138.754 49.1264V35.7127H139.564C140.239 35.7127 140.734 36.297 140.734 37.2845V47.5515C140.734 48.5413 140.239 49.1264 139.564 49.1264H138.754Z" fill="white"/>
<path d="M150.09 57.6727C150.09 59.8757 150.362 63.2957 154.769 63.2957H159.987C164.397 63.2957 164.666 59.8757 164.666 57.6727V37.4311C164.666 35.2258 164.397 31.8081 159.987 31.8081H154.769C150.362 31.8081 150.09 35.2258 150.09 37.4311V57.6727ZM158.369 58.2033C158.369 58.7446 157.965 59.2384 157.38 59.2384C157.018 59.2384 156.388 59.0118 156.388 58.2033V36.7477C156.388 35.9384 157.018 35.7127 157.38 35.7127C157.965 35.7127 158.369 36.2079 158.369 36.7477V58.2033Z" fill="white"/>
<path d="M184.284 31.8081H192.471V63.2958H186.174V43.5487H185.948L182.71 63.2958H177.672L174.434 43.5487H174.207V63.2958H167.911V31.8081H176.096L180.189 53.9386L184.284 31.8081Z" fill="white"/>
<path d="M56.4462 34.9176C56.3663 38.575 55.9317 42.4373 55.3727 44.7378C55.5731 40.7641 55.0963 35.1588 54.181 30.7789C53.2657 26.3975 50.6773 19.0959 48.6148 15.7027C46.7067 18.9277 44.3578 25.2526 43.123 30.739C41.886 36.233 41.8499 42.8704 41.8499 44.8653C41.5244 43.1814 40.7005 37.2013 40.9346 31.1797C41.1297 26.2124 42.2907 21.1154 42.9265 18.7688C45.3537 10.9251 48.0995 5.92096 48.6148 5.13161C49.1292 5.92096 52.59 12.0915 54.3822 18.5707C56.1659 25.056 56.526 31.2573 56.4462 34.9176ZM48.6562 62.9046C47.5782 60.8805 45.9058 57.0243 45.7484 51.068C45.7061 45.303 48.0135 40.3572 48.6877 39.3321C49.2867 40.3572 51.28 44.6656 51.5142 50.5474C51.6747 56.3079 49.7666 60.8383 48.6562 62.9046ZM57.0812 18.6482C54.8982 9.06612 49.4126 1.27618 48.6562 0C47.4568 1.78911 43.08 8.66453 40.8563 16.304C38.4299 24.8195 38.0751 32.3691 38.9113 39.812C39.7437 47.2433 42.8873 54.8828 42.8873 54.8828C44.5574 58.8925 47.0606 63.1841 48.6877 65.2903C51.0773 62.1851 56.569 52.9324 58.276 40.8425C59.2289 34.1237 59.2704 28.238 57.0812 18.6482Z" fill="white"/>
<path d="M52.3703 67.5205H35.7224V78.6906C35.7377 78.6729 35.75 78.6583 35.7661 78.643C39.6891 74.7223 46.0447 74.7223 49.9669 78.643C53.8884 82.5683 53.8884 88.9269 49.9669 92.8446C49.9523 92.8615 49.9347 92.8768 49.9185 92.8937C49.9185 92.8937 49.9185 92.8983 49.9147 92.8983C49.9016 92.9114 49.8771 92.9352 49.8579 92.9498C45.9495 96.8328 40.8355 98.7794 35.7224 98.7794C30.5907 98.7794 25.4545 96.8175 21.5362 92.9075C14.6369 86.0022 13.8161 75.3182 19.0805 67.5205C19.79 66.4663 20.6055 65.4627 21.5362 64.5374C25.4545 60.6182 30.5907 58.6617 35.7224 58.6617V31.8081C15.9984 31.8081 0 47.8057 0 67.5205C0 87.2476 15.9984 103.242 35.7224 103.242C46.0163 103.242 55.279 98.8892 61.7935 91.9339V67.5205H52.3703Z" fill="white"/>
<path d="M67.3362 102.064H68.8281C70.4023 102.064 71.336 101.589 71.336 99.9163C71.336 98.0312 70.2702 97.638 68.4504 97.638H67.3362V102.064ZM71.8934 91.4391V92.6193H67.3362V96.4571H68.8926C71.025 96.4571 72.6974 97.1796 72.6974 99.9163C72.6974 102.262 71.2868 103.245 69.156 103.245H66.0239V91.4391H71.8934Z" fill="white"/>
<path d="M83.8637 91.4391V103.245H82.5522V92.6193H78.5847V97.2925C78.5847 99.934 78.5356 103.393 76.2382 103.393C75.9925 103.393 75.7137 103.36 75.4519 103.295V102.13C75.6323 102.196 75.812 102.212 75.961 102.212C77.1734 102.212 77.2717 100.377 77.2717 96.5876V91.4391H83.8637Z" fill="white"/>
<path d="M91.2223 92.3905H91.1908L89.632 98.67H92.7472L91.2223 92.3905ZM90.3699 91.4391H92.1084L95.4201 103.245H93.9781L93.0421 99.851H89.3203L88.4518 103.245H87.009L90.3699 91.4391Z" fill="white"/>
<path d="M104.109 91.4391V92.6193H99.8772V103.245H98.5657V91.4391H104.109Z" fill="white"/>
<path d="M110.532 92.3943C108.515 92.3943 108.04 94.4759 108.04 97.1166C108.04 100.543 108.402 102.346 110.565 102.346C112.728 102.346 113.106 100.543 113.106 97.1327C113.106 94.4928 112.615 92.3943 110.532 92.3943ZM106.679 97.3293C106.679 94.6241 107.122 91.2133 110.565 91.2133C114.025 91.2133 114.468 94.6241 114.468 97.3293C114.468 100.592 114.008 103.528 110.565 103.528C107.122 103.528 106.679 100.592 106.679 97.3293Z" fill="white"/>
<path d="M119.58 102.064H121.531C122.941 102.064 123.581 101.392 123.581 99.851C123.581 98.26 122.762 97.638 121.418 97.638H119.58V102.064ZM119.58 96.4571H121.203C122.516 96.4571 123.253 95.981 123.253 94.4722C123.253 93.1284 122.532 92.6193 121.335 92.6193H119.58V96.4571ZM118.269 91.4391H121.367C123.581 91.4391 124.616 92.6193 124.616 94.3915C124.616 95.703 124.008 96.6705 122.892 96.9646V96.9984C124.008 97.1458 124.941 98.2278 124.941 99.8679C124.941 102.064 123.729 103.245 121.531 103.245H118.269V91.4391Z" fill="white"/>
<path d="M134.596 91.4391V92.6193H129.99V96.4571H134.301V97.638H129.99V102.064H134.612V103.245H128.677V91.4391H134.596Z" fill="white"/>
<path d="M139.595 102.064H143.268V91.4391H144.581V102.064H148.253V91.4391H149.565V102.064H150.516V106H149.27V103.245H138.285V91.4391H139.595V102.064Z" fill="white"/>
<path d="M159.662 91.4391V92.6193H155.056V96.4571H159.368V97.638H155.056V102.064H159.679V103.245H153.743V91.4391H159.662Z" fill="white"/>
<path d="M164.662 96.4571H169.172V91.4391H170.483V103.245H169.172V97.638H164.662V103.245H163.351V91.4391H164.662V96.4571Z" fill="white"/>
<path d="M180.056 94.9858C180.056 93.5583 179.581 92.3943 177.939 92.3943C175.661 92.3943 175.645 95.6077 175.645 97.165C175.645 99.5607 175.776 102.346 177.939 102.346C179.646 102.346 179.924 100.937 180.056 98.9856H181.366C181.221 101.708 180.548 103.528 178.038 103.528C174.562 103.528 174.284 99.9853 174.284 97.198C174.284 94.542 174.775 91.2133 178.006 91.2133C180.235 91.2133 181.366 92.8696 181.366 94.9858H180.056Z" fill="white"/>
<path d="M186.422 97.5067L190.719 91.4391H192.357L188.585 96.3749L192.472 103.245H190.948L187.799 97.4077L186.422 99.13V103.245H185.11V91.4391H186.422V97.5067Z" fill="white"/>
<path fill-rule="evenodd" clip-rule="evenodd" d="M66.0273 67.5283H192.471V87.2062H66.0273V67.5283ZM77.5058 83.2728V71.4669H69.9592V83.2728H72.8019V73.7029H74.6608V83.2728H77.5058ZM82.0408 71.4669H88.649V73.7029H84.8842V76.0211H88.2543V78.2571H84.8842V81.036H88.649V83.2728H82.0408V71.4669ZM96.129 76.5479H95.6192V73.5878H96.0783C96.9007 73.5878 97.5088 73.8673 97.5088 75.0352C97.5088 76.2023 96.8354 76.5479 96.129 76.5479ZM92.7742 83.2728H95.6192V78.6687H96.9007C98.5777 78.6687 100.355 77.9768 100.355 75.0674C100.355 72.0574 98.5462 71.4669 96.9007 71.4669H92.7742V83.2728ZM103.441 71.4669H110.051V73.7029H106.286V76.0211H109.657V78.2571H106.286V81.036H110.051V83.2728H103.441V71.4669ZM117.528 76.5479H117.018V73.5878H117.48C118.302 73.5878 118.911 73.8673 118.911 75.0352C118.911 76.2023 118.235 76.5479 117.528 76.5479ZM114.174 83.2728H117.018V78.6687H118.302C119.979 78.6687 121.753 77.9768 121.753 75.0674C121.753 72.0574 119.946 71.4669 118.302 71.4669H114.174V83.2728ZM129.035 78.7839L128.28 73.587H128.264L127.524 78.7839H129.035ZM130.023 71.4669L132.636 83.2728H129.842L129.415 80.9055H127.243L126.882 83.2728H124.054L126.619 71.4669H130.023ZM139.639 81.1519H139.145V78.1427H139.689C140.395 78.1427 141.037 78.5197 141.037 79.7038C141.037 80.8724 140.461 81.1519 139.639 81.1519ZM142.73 73.587V71.4669H136.302V83.2728H140.429C142.072 83.2728 143.881 82.6792 143.881 79.6707C143.881 76.7598 142.105 76.0203 140.429 76.0203H139.145V73.587H142.73ZM150.207 74.3417V80.3272C150.207 81.0336 150.702 81.3791 151.193 81.3791C151.67 81.3791 152.179 81.0336 152.179 80.3272V74.3417C152.179 73.6683 151.67 73.3719 151.193 73.3719C150.702 73.3719 150.207 73.6683 150.207 74.3417ZM155.024 74.5383V79.8335C155.024 82.1854 153.858 83.5491 151.193 83.5491C148.563 83.5491 147.364 82.1854 147.364 79.8335V74.5222C147.364 72.6647 148.53 71.2012 151.21 71.2012C153.89 71.2012 155.024 72.697 155.024 74.5383ZM160.529 83.2728H163.144V73.7029H165.233V71.4669H158.293V73.7029H160.529V83.2728ZM171.755 76.1701L173.746 71.4669H176.836L174.222 76.6792L176.836 83.2728H173.844L172.529 79.1616L171.755 80.5261V83.2728H169.043V71.4669H171.755V76.1701ZM184.178 73.587L184.934 78.7839H183.422L184.163 73.587H184.178ZM188.534 83.2728L185.922 71.4669H182.517L179.952 83.2728H182.78L183.142 80.9055H185.313L185.741 83.2728H188.534Z" fill="white"/>
</svg>
